<?xml version="1.0" encoding="utf-8" standalone="no"?>
<!DOCTYPE svg PUBLIC "-//W3C//DTD SVG 1.1//EN"
  "http://www.w3.org/Graphics/SVG/1.1/DTD/svg11.dtd">
<svg xmlns:xlink="http://www.w3.org/1999/xlink" width="719.33875pt" height="395.969687pt" viewBox="0 0 719.33875 395.969687" xmlns="http://www.w3.org/2000/svg" version="1.1">
 <metadata>
  <rdf:RDF xmlns:dc="http://purl.org/dc/elements/1.1/" xmlns:cc="http://creativecommons.org/ns#" xmlns:rdf="http://www.w3.org/1999/02/22-rdf-syntax-ns#">
   <cc:Work>
    <dc:type rdf:resource="http://purl.org/dc/dcmitype/StillImage"/>
    <dc:date>2026-02-15T13:34:16.572188</dc:date>
    <dc:format>image/svg+xml</dc:format>
    <dc:creator>
     <cc:Agent>
      <dc:title>Matplotlib v3.7.1, https://matplotlib.org/</dc:title>
     </cc:Agent>
    </dc:creator>
   </cc:Work>
  </rdf:RDF>
 </metadata>
 <defs>
  <style type="text/css">*{stroke-linejoin: round; stroke-linecap: butt}</style>
 </defs>
 <g id="figure_1">
  <g id="patch_1">
   <path d="M 0 395.969687 
L 719.33875 395.969687 
L 719.33875 0 
L 0 0 
z
" style="fill: #ffffff"/>
  </g>
  <g id="axes_1">
   <g id="patch_2">
    <path d="M 42.53875 356.477812 
L 712.13875 356.477812 
L 712.13875 23.837812 
L 42.53875 23.837812 
z
" style="fill: #ffffff"/>
   </g>
   <g id="matplotlib.axis_1">
    <g id="xtick_1">
     <g id="line2d_1">
      <path d="M 70.979287 356.477812 
L 70.979287 23.837812 
" clip-path="url(#pa96d685eca)" style="fill: none; stroke: #b0b0b0; stroke-opacity: 0.3; stroke-width: 0.8; stroke-linecap: square"/>
     </g>
     <g id="line2d_2">
      <defs>
       <path id="m1596bf25d2" d="M 0 0 
L 0 3.5 
" style="stroke: #000000; stroke-width: 0.8"/>
      </defs>
      <g>
       <use xlink:href="#m1596bf25d2" x="70.979287" y="356.477812" style="stroke: #000000; stroke-width: 0.8"/>
      </g>
     </g>
     <g id="text_1">
      <!-- 0 -->
      <g transform="translate(67.798037 371.07625) scale(0.1 -0.1)">
       <defs>
        <path id="DejaVuSans-30" d="M 2034 4250 
Q 1547 4250 1301 3770 
Q 1056 3291 1056 2328 
Q 1056 1369 1301 889 
Q 1547 409 2034 409 
Q 2525 409 2770 889 
Q 3016 1369 3016 2328 
Q 3016 3291 2770 3770 
Q 2525 4250 2034 4250 
z
M 2034 4750 
Q 2819 4750 3233 4129 
Q 3647 3509 3647 2328 
Q 3647 1150 3233 529 
Q 2819 -91 2034 -91 
Q 1250 -91 836 529 
Q 422 1150 422 2328 
Q 422 3509 836 4129 
Q 1250 4750 2034 4750 
z
" transform="scale(0.015625)"/>
       </defs>
       <use xlink:href="#DejaVuSans-30"/>
      </g>
     </g>
    </g>
    <g id="xtick_2">
     <g id="line2d_3">
      <path d="M 170.770643 356.477812 
L 170.770643 23.837812 
" clip-path="url(#pa96d685eca)" style="fill: none; stroke: #b0b0b0; stroke-opacity: 0.3; stroke-width: 0.8; stroke-linecap: square"/>
     </g>
     <g id="line2d_4">
      <g>
       <use xlink:href="#m1596bf25d2" x="170.770643" y="356.477812" style="stroke: #000000; stroke-width: 0.8"/>
      </g>
     </g>
     <g id="text_2">
      <!-- 50 -->
      <g transform="translate(164.408143 371.07625) scale(0.1 -0.1)">
       <defs>
        <path id="DejaVuSans-35" d="M 691 4666 
L 3169 4666 
L 3169 4134 
L 1269 4134 
L 1269 2991 
Q 1406 3038 1543 3061 
Q 1681 3084 1819 3084 
Q 2600 3084 3056 2656 
Q 3513 2228 3513 1497 
Q 3513 744 3044 326 
Q 2575 -91 1722 -91 
Q 1428 -91 1123 -41 
Q 819 9 494 109 
L 494 744 
Q 775 591 1075 516 
Q 1375 441 1709 441 
Q 2250 441 2565 725 
Q 2881 1009 2881 1497 
Q 2881 1984 2565 2268 
Q 2250 2553 1709 2553 
Q 1456 2553 1204 2497 
Q 953 2441 691 2322 
L 691 4666 
z
" transform="scale(0.015625)"/>
       </defs>
       <use xlink:href="#DejaVuSans-35"/>
       <use xlink:href="#DejaVuSans-30" x="63.623047"/>
      </g>
     </g>
    </g>
    <g id="xtick_3">
     <g id="line2d_5">
      <path d="M 270.561999 356.477812 
L 270.561999 23.837812 
" clip-path="url(#pa96d685eca)" style="fill: none; stroke: #b0b0b0; stroke-opacity: 0.3; stroke-width: 0.8; stroke-linecap: square"/>
     </g>
     <g id="line2d_6">
      <g>
       <use xlink:href="#m1596bf25d2" x="270.561999" y="356.477812" style="stroke: #000000; stroke-width: 0.8"/>
      </g>
     </g>
     <g id="text_3">
      <!-- 100 -->
      <g transform="translate(261.018249 371.07625) scale(0.1 -0.1)">
       <defs>
        <path id="DejaVuSans-31" d="M 794 531 
L 1825 531 
L 1825 4091 
L 703 3866 
L 703 4441 
L 1819 4666 
L 2450 4666 
L 2450 531 
L 3481 531 
L 3481 0 
L 794 0 
L 794 531 
z
" transform="scale(0.015625)"/>
       </defs>
       <use xlink:href="#DejaVuSans-31"/>
       <use xlink:href="#DejaVuSans-30" x="63.623047"/>
       <use xlink:href="#DejaVuSans-30" x="127.246094"/>
      </g>
     </g>
    </g>
    <g id="xtick_4">
     <g id="line2d_7">
      <path d="M 370.353355 356.477812 
L 370.353355 23.837812 
" clip-path="url(#pa96d685eca)" style="fill: none; stroke: #b0b0b0; stroke-opacity: 0.3; stroke-width: 0.8; stroke-linecap: square"/>
     </g>
     <g id="line2d_8">
      <g>
       <use xlink:href="#m1596bf25d2" x="370.353355" y="356.477812" style="stroke: #000000; stroke-width: 0.8"/>
      </g>
     </g>
     <g id="text_4">
      <!-- 150 -->
      <g transform="translate(360.809605 371.07625) scale(0.1 -0.1)">
       <use xlink:href="#DejaVuSans-31"/>
       <use xlink:href="#DejaVuSans-35" x="63.623047"/>
       <use xlink:href="#DejaVuSans-30" x="127.246094"/>
      </g>
     </g>
    </g>
    <g id="xtick_5">
     <g id="line2d_9">
      <path d="M 470.144711 356.477812 
L 470.144711 23.837812 
" clip-path="url(#pa96d685eca)" style="fill: none; stroke: #b0b0b0; stroke-opacity: 0.3; stroke-width: 0.8; stroke-linecap: square"/>
     </g>
     <g id="line2d_10">
      <g>
       <use xlink:href="#m1596bf25d2" x="470.144711" y="356.477812" style="stroke: #000000; stroke-width: 0.8"/>
      </g>
     </g>
     <g id="text_5">
      <!-- 200 -->
      <g transform="translate(460.600961 371.07625) scale(0.1 -0.1)">
       <defs>
        <path id="DejaVuSans-32" d="M 1228 531 
L 3431 531 
L 3431 0 
L 469 0 
L 469 531 
Q 828 903 1448 1529 
Q 2069 2156 2228 2338 
Q 2531 2678 2651 2914 
Q 2772 3150 2772 3378 
Q 2772 3750 2511 3984 
Q 2250 4219 1831 4219 
Q 1534 4219 1204 4116 
Q 875 4013 500 3803 
L 500 4441 
Q 881 4594 1212 4672 
Q 1544 4750 1819 4750 
Q 2544 4750 2975 4387 
Q 3406 4025 3406 3419 
Q 3406 3131 3298 2873 
Q 3191 2616 2906 2266 
Q 2828 2175 2409 1742 
Q 1991 1309 1228 531 
z
" transform="scale(0.015625)"/>
       </defs>
       <use xlink:href="#DejaVuSans-32"/>
       <use xlink:href="#DejaVuSans-30" x="63.623047"/>
       <use xlink:href="#DejaVuSans-30" x="127.246094"/>
      </g>
     </g>
    </g>
    <g id="xtick_6">
     <g id="line2d_11">
      <path d="M 569.936067 356.477812 
L 569.936067 23.837812 
" clip-path="url(#pa96d685eca)" style="fill: none; stroke: #b0b0b0; stroke-opacity: 0.3; stroke-width: 0.8; stroke-linecap: square"/>
     </g>
     <g id="line2d_12">
      <g>
       <use xlink:href="#m1596bf25d2" x="569.936067" y="356.477812" style="stroke: #000000; stroke-width: 0.8"/>
      </g>
     </g>
     <g id="text_6">
      <!-- 250 -->
      <g transform="translate(560.392317 371.07625) scale(0.1 -0.1)">
       <use xlink:href="#DejaVuSans-32"/>
       <use xlink:href="#DejaVuSans-35" x="63.623047"/>
       <use xlink:href="#DejaVuSans-30" x="127.246094"/>
      </g>
     </g>
    </g>
    <g id="xtick_7">
     <g id="line2d_13">
      <path d="M 669.727424 356.477812 
L 669.727424 23.837812 
" clip-path="url(#pa96d685eca)" style="fill: none; stroke: #b0b0b0; stroke-opacity: 0.3; stroke-width: 0.8; stroke-linecap: square"/>
     </g>
     <g id="line2d_14">
      <g>
       <use xlink:href="#m1596bf25d2" x="669.727424" y="356.477812" style="stroke: #000000; stroke-width: 0.8"/>
      </g>
     </g>
     <g id="text_7">
      <!-- 300 -->
      <g transform="translate(660.183674 371.07625) scale(0.1 -0.1)">
       <defs>
        <path id="DejaVuSans-33" d="M 2597 2516 
Q 3050 2419 3304 2112 
Q 3559 1806 3559 1356 
Q 3559 666 3084 287 
Q 2609 -91 1734 -91 
Q 1441 -91 1130 -33 
Q 819 25 488 141 
L 488 750 
Q 750 597 1062 519 
Q 1375 441 1716 441 
Q 2309 441 2620 675 
Q 2931 909 2931 1356 
Q 2931 1769 2642 2001 
Q 2353 2234 1838 2234 
L 1294 2234 
L 1294 2753 
L 1863 2753 
Q 2328 2753 2575 2939 
Q 2822 3125 2822 3475 
Q 2822 3834 2567 4026 
Q 2313 4219 1838 4219 
Q 1578 4219 1281 4162 
Q 984 4106 628 3988 
L 628 4550 
Q 988 4650 1302 4700 
Q 1616 4750 1894 4750 
Q 2613 4750 3031 4423 
Q 3450 4097 3450 3541 
Q 3450 3153 3228 2886 
Q 3006 2619 2597 2516 
z
" transform="scale(0.015625)"/>
       </defs>
       <use xlink:href="#DejaVuSans-33"/>
       <use xlink:href="#DejaVuSans-30" x="63.623047"/>
       <use xlink:href="#DejaVuSans-30" x="127.246094"/>
      </g>
     </g>
    </g>
    <g id="text_8">
     <!-- Episode -->
     <g transform="translate(353.77375 386.274062) scale(0.12 -0.12)">
      <defs>
       <path id="DejaVuSans-45" d="M 628 4666 
L 3578 4666 
L 3578 4134 
L 1259 4134 
L 1259 2753 
L 3481 2753 
L 3481 2222 
L 1259 2222 
L 1259 531 
L 3634 531 
L 3634 0 
L 628 0 
L 628 4666 
z
" transform="scale(0.015625)"/>
       <path id="DejaVuSans-70" d="M 1159 525 
L 1159 -1331 
L 581 -1331 
L 581 3500 
L 1159 3500 
L 1159 2969 
Q 1341 3281 1617 3432 
Q 1894 3584 2278 3584 
Q 2916 3584 3314 3078 
Q 3713 2572 3713 1747 
Q 3713 922 3314 415 
Q 2916 -91 2278 -91 
Q 1894 -91 1617 61 
Q 1341 213 1159 525 
z
M 3116 1747 
Q 3116 2381 2855 2742 
Q 2594 3103 2138 3103 
Q 1681 3103 1420 2742 
Q 1159 2381 1159 1747 
Q 1159 1113 1420 752 
Q 1681 391 2138 391 
Q 2594 391 2855 752 
Q 3116 1113 3116 1747 
z
" transform="scale(0.015625)"/>
       <path id="DejaVuSans-69" d="M 603 3500 
L 1178 3500 
L 1178 0 
L 603 0 
L 603 3500 
z
M 603 4863 
L 1178 4863 
L 1178 4134 
L 603 4134 
L 603 4863 
z
" transform="scale(0.015625)"/>
       <path id="DejaVuSans-73" d="M 2834 3397 
L 2834 2853 
Q 2591 2978 2328 3040 
Q 2066 3103 1784 3103 
Q 1356 3103 1142 2972 
Q 928 2841 928 2578 
Q 928 2378 1081 2264 
Q 1234 2150 1697 2047 
L 1894 2003 
Q 2506 1872 2764 1633 
Q 3022 1394 3022 966 
Q 3022 478 2636 193 
Q 2250 -91 1575 -91 
Q 1294 -91 989 -36 
Q 684 19 347 128 
L 347 722 
Q 666 556 975 473 
Q 1284 391 1588 391 
Q 1994 391 2212 530 
Q 2431 669 2431 922 
Q 2431 1156 2273 1281 
Q 2116 1406 1581 1522 
L 1381 1569 
Q 847 1681 609 1914 
Q 372 2147 372 2553 
Q 372 3047 722 3315 
Q 1072 3584 1716 3584 
Q 2034 3584 2315 3537 
Q 2597 3491 2834 3397 
z
" transform="scale(0.015625)"/>
       <path id="DejaVuSans-6f" d="M 1959 3097 
Q 1497 3097 1228 2736 
Q 959 2375 959 1747 
Q 959 1119 1226 758 
Q 1494 397 1959 397 
Q 2419 397 2687 759 
Q 2956 1122 2956 1747 
Q 2956 2369 2687 2733 
Q 2419 3097 1959 3097 
z
M 1959 3584 
Q 2709 3584 3137 3096 
Q 3566 2609 3566 1747 
Q 3566 888 3137 398 
Q 2709 -91 1959 -91 
Q 1206 -91 779 398 
Q 353 888 353 1747 
Q 353 2609 779 3096 
Q 1206 3584 1959 3584 
z
" transform="scale(0.015625)"/>
       <path id="DejaVuSans-64" d="M 2906 2969 
L 2906 4863 
L 3481 4863 
L 3481 0 
L 2906 0 
L 2906 525 
Q 2725 213 2448 61 
Q 2172 -91 1784 -91 
Q 1150 -91 751 415 
Q 353 922 353 1747 
Q 353 2572 751 3078 
Q 1150 3584 1784 3584 
Q 2172 3584 2448 3432 
Q 2725 3281 2906 2969 
z
M 947 1747 
Q 947 1113 1208 752 
Q 1469 391 1925 391 
Q 2381 391 2643 752 
Q 2906 1113 2906 1747 
Q 2906 2381 2643 2742 
Q 2381 3103 1925 3103 
Q 1469 3103 1208 2742 
Q 947 2381 947 1747 
z
" transform="scale(0.015625)"/>
       <path id="DejaVuSans-65" d="M 3597 1894 
L 3597 1613 
L 953 1613 
Q 991 1019 1311 708 
Q 1631 397 2203 397 
Q 2534 397 2845 478 
Q 3156 559 3463 722 
L 3463 178 
Q 3153 47 2828 -22 
Q 2503 -91 2169 -91 
Q 1331 -91 842 396 
Q 353 884 353 1716 
Q 353 2575 817 3079 
Q 1281 3584 2069 3584 
Q 2775 3584 3186 3129 
Q 3597 2675 3597 1894 
z
M 3022 2063 
Q 3016 2534 2758 2815 
Q 2500 3097 2075 3097 
Q 1594 3097 1305 2825 
Q 1016 2553 972 2059 
L 3022 2063 
z
" transform="scale(0.015625)"/>
      </defs>
      <use xlink:href="#DejaVuSans-45"/>
      <use xlink:href="#DejaVuSans-70" x="63.183594"/>
      <use xlink:href="#DejaVuSans-69" x="126.660156"/>
      <use xlink:href="#DejaVuSans-73" x="154.443359"/>
      <use xlink:href="#DejaVuSans-6f" x="206.542969"/>
      <use xlink:href="#DejaVuSans-64" x="267.724609"/>
      <use xlink:href="#DejaVuSans-65" x="331.201172"/>
     </g>
    </g>
   </g>
   <g id="matplotlib.axis_2">
    <g id="ytick_1">
     <g id="line2d_15">
      <path d="M 42.53875 337.832499 
L 712.13875 337.832499 
" clip-path="url(#pa96d685eca)" style="fill: none; stroke: #b0b0b0; stroke-opacity: 0.3; stroke-width: 0.8; stroke-linecap: square"/>
     </g>
     <g id="line2d_16">
      <defs>
       <path id="m2595f8848a" d="M 0 0 
L -3.5 0 
" style="stroke: #000000; stroke-width: 0.8"/>
      </defs>
      <g>
       <use xlink:href="#m2595f8848a" x="42.53875" y="337.832499" style="stroke: #000000; stroke-width: 0.8"/>
      </g>
     </g>
     <g id="text_9">
      <!-- 60 -->
      <g transform="translate(22.81375 341.631717) scale(0.1 -0.1)">
       <defs>
        <path id="DejaVuSans-36" d="M 2113 2584 
Q 1688 2584 1439 2293 
Q 1191 2003 1191 1497 
Q 1191 994 1439 701 
Q 1688 409 2113 409 
Q 2538 409 2786 701 
Q 3034 994 3034 1497 
Q 3034 2003 2786 2293 
Q 2538 2584 2113 2584 
z
M 3366 4563 
L 3366 3988 
Q 3128 4100 2886 4159 
Q 2644 4219 2406 4219 
Q 1781 4219 1451 3797 
Q 1122 3375 1075 2522 
Q 1259 2794 1537 2939 
Q 1816 3084 2150 3084 
Q 2853 3084 3261 2657 
Q 3669 2231 3669 1497 
Q 3669 778 3244 343 
Q 2819 -91 2113 -91 
Q 1303 -91 875 529 
Q 447 1150 447 2328 
Q 447 3434 972 4092 
Q 1497 4750 2381 4750 
Q 2619 4750 2861 4703 
Q 3103 4656 3366 4563 
z
" transform="scale(0.015625)"/>
       </defs>
       <use xlink:href="#DejaVuSans-36"/>
       <use xlink:href="#DejaVuSans-30" x="63.623047"/>
      </g>
     </g>
    </g>
    <g id="ytick_2">
     <g id="line2d_17">
      <path d="M 42.53875 286.246819 
L 712.13875 286.246819 
" clip-path="url(#pa96d685eca)" style="fill: none; stroke: #b0b0b0; stroke-opacity: 0.3; stroke-width: 0.8; stroke-linecap: square"/>
     </g>
     <g id="line2d_18">
      <g>
       <use xlink:href="#m2595f8848a" x="42.53875" y="286.246819" style="stroke: #000000; stroke-width: 0.8"/>
      </g>
     </g>
     <g id="text_10">
      <!-- 65 -->
      <g transform="translate(22.81375 290.046038) scale(0.1 -0.1)">
       <use xlink:href="#DejaVuSans-36"/>
       <use xlink:href="#DejaVuSans-35" x="63.623047"/>
      </g>
     </g>
    </g>
    <g id="ytick_3">
     <g id="line2d_19">
      <path d="M 42.53875 234.661139 
L 712.13875 234.661139 
" clip-path="url(#pa96d685eca)" style="fill: none; stroke: #b0b0b0; stroke-opacity: 0.3; stroke-width: 0.8; stroke-linecap: square"/>
     </g>
     <g id="line2d_20">
      <g>
       <use xlink:href="#m2595f8848a" x="42.53875" y="234.661139" style="stroke: #000000; stroke-width: 0.8"/>
      </g>
     </g>
     <g id="text_11">
      <!-- 70 -->
      <g transform="translate(22.81375 238.460358) scale(0.1 -0.1)">
       <defs>
        <path id="DejaVuSans-37" d="M 525 4666 
L 3525 4666 
L 3525 4397 
L 1831 0 
L 1172 0 
L 2766 4134 
L 525 4134 
L 525 4666 
z
" transform="scale(0.015625)"/>
       </defs>
       <use xlink:href="#DejaVuSans-37"/>
       <use xlink:href="#DejaVuSans-30" x="63.623047"/>
      </g>
     </g>
    </g>
    <g id="ytick_4">
     <g id="line2d_21">
      <path d="M 42.53875 183.07546 
L 712.13875 183.07546 
" clip-path="url(#pa96d685eca)" style="fill: none; stroke: #b0b0b0; stroke-opacity: 0.3; stroke-width: 0.8; stroke-linecap: square"/>
     </g>
     <g id="line2d_22">
      <g>
       <use xlink:href="#m2595f8848a" x="42.53875" y="183.07546" style="stroke: #000000; stroke-width: 0.8"/>
      </g>
     </g>
     <g id="text_12">
      <!-- 75 -->
      <g transform="translate(22.81375 186.874679) scale(0.1 -0.1)">
       <use xlink:href="#DejaVuSans-37"/>
       <use xlink:href="#DejaVuSans-35" x="63.623047"/>
      </g>
     </g>
    </g>
    <g id="ytick_5">
     <g id="line2d_23">
      <path d="M 42.53875 131.48978 
L 712.13875 131.48978 
" clip-path="url(#pa96d685eca)" style="fill: none; stroke: #b0b0b0; stroke-opacity: 0.3; stroke-width: 0.8; stroke-linecap: square"/>
     </g>
     <g id="line2d_24">
      <g>
       <use xlink:href="#m2595f8848a" x="42.53875" y="131.48978" style="stroke: #000000; stroke-width: 0.8"/>
      </g>
     </g>
     <g id="text_13">
      <!-- 80 -->
      <g transform="translate(22.81375 135.288999) scale(0.1 -0.1)">
       <defs>
        <path id="DejaVuSans-38" d="M 2034 2216 
Q 1584 2216 1326 1975 
Q 1069 1734 1069 1313 
Q 1069 891 1326 650 
Q 1584 409 2034 409 
Q 2484 409 2743 651 
Q 3003 894 3003 1313 
Q 3003 1734 2745 1975 
Q 2488 2216 2034 2216 
z
M 1403 2484 
Q 997 2584 770 2862 
Q 544 3141 544 3541 
Q 544 4100 942 4425 
Q 1341 4750 2034 4750 
Q 2731 4750 3128 4425 
Q 3525 4100 3525 3541 
Q 3525 3141 3298 2862 
Q 3072 2584 2669 2484 
Q 3125 2378 3379 2068 
Q 3634 1759 3634 1313 
Q 3634 634 3220 271 
Q 2806 -91 2034 -91 
Q 1263 -91 848 271 
Q 434 634 434 1313 
Q 434 1759 690 2068 
Q 947 2378 1403 2484 
z
M 1172 3481 
Q 1172 3119 1398 2916 
Q 1625 2713 2034 2713 
Q 2441 2713 2670 2916 
Q 2900 3119 2900 3481 
Q 2900 3844 2670 4047 
Q 2441 4250 2034 4250 
Q 1625 4250 1398 4047 
Q 1172 3844 1172 3481 
z
" transform="scale(0.015625)"/>
       </defs>
       <use xlink:href="#DejaVuSans-38"/>
       <use xlink:href="#DejaVuSans-30" x="63.623047"/>
      </g>
     </g>
    </g>
    <g id="ytick_6">
     <g id="line2d_25">
      <path d="M 42.53875 79.9041 
L 712.13875 79.9041 
" clip-path="url(#pa96d685eca)" style="fill: none; stroke: #b0b0b0; stroke-opacity: 0.3; stroke-width: 0.8; stroke-linecap: square"/>
     </g>
     <g id="line2d_26">
      <g>
       <use xlink:href="#m2595f8848a" x="42.53875" y="79.9041" style="stroke: #000000; stroke-width: 0.8"/>
      </g>
     </g>
     <g id="text_14">
      <!-- 85 -->
      <g transform="translate(22.81375 83.703319) scale(0.1 -0.1)">
       <use xlink:href="#DejaVuSans-38"/>
       <use xlink:href="#DejaVuSans-35" x="63.623047"/>
      </g>
     </g>
    </g>
    <g id="ytick_7">
     <g id="line2d_27">
      <path d="M 42.53875 28.318421 
L 712.13875 28.318421 
" clip-path="url(#pa96d685eca)" style="fill: none; stroke: #b0b0b0; stroke-opacity: 0.3; stroke-width: 0.8; stroke-linecap: square"/>
     </g>
     <g id="line2d_28">
      <g>
       <use xlink:href="#m2595f8848a" x="42.53875" y="28.318421" style="stroke: #000000; stroke-width: 0.8"/>
      </g>
     </g>
     <g id="text_15">
      <!-- 90 -->
      <g transform="translate(22.81375 32.11764) scale(0.1 -0.1)">
       <defs>
        <path id="DejaVuSans-39" d="M 703 97 
L 703 672 
Q 941 559 1184 500 
Q 1428 441 1663 441 
Q 2288 441 2617 861 
Q 2947 1281 2994 2138 
Q 2813 1869 2534 1725 
Q 2256 1581 1919 1581 
Q 1219 1581 811 2004 
Q 403 2428 403 3163 
Q 403 3881 828 4315 
Q 1253 4750 1959 4750 
Q 2769 4750 3195 4129 
Q 3622 3509 3622 2328 
Q 3622 1225 3098 567 
Q 2575 -91 1691 -91 
Q 1453 -91 1209 -44 
Q 966 3 703 97 
z
M 1959 2075 
Q 2384 2075 2632 2365 
Q 2881 2656 2881 3163 
Q 2881 3666 2632 3958 
Q 2384 4250 1959 4250 
Q 1534 4250 1286 3958 
Q 1038 3666 1038 3163 
Q 1038 2656 1286 2365 
Q 1534 2075 1959 2075 
z
" transform="scale(0.015625)"/>
       </defs>
       <use xlink:href="#DejaVuSans-39"/>
       <use xlink:href="#DejaVuSans-30" x="63.623047"/>
      </g>
     </g>
    </g>
    <g id="text_16">
     <!-- Total Reward -->
     <g transform="translate(16.318125 228.421875) rotate(-90) scale(0.12 -0.12)">
      <defs>
       <path id="DejaVuSans-54" d="M -19 4666 
L 3928 4666 
L 3928 4134 
L 2272 4134 
L 2272 0 
L 1638 0 
L 1638 4134 
L -19 4134 
L -19 4666 
z
" transform="scale(0.015625)"/>
       <path id="DejaVuSans-74" d="M 1172 4494 
L 1172 3500 
L 2356 3500 
L 2356 3053 
L 1172 3053 
L 1172 1153 
Q 1172 725 1289 603 
Q 1406 481 1766 481 
L 2356 481 
L 2356 0 
L 1766 0 
Q 1100 0 847 248 
Q 594 497 594 1153 
L 594 3053 
L 172 3053 
L 172 3500 
L 594 3500 
L 594 4494 
L 1172 4494 
z
" transform="scale(0.015625)"/>
       <path id="DejaVuSans-61" d="M 2194 1759 
Q 1497 1759 1228 1600 
Q 959 1441 959 1056 
Q 959 750 1161 570 
Q 1363 391 1709 391 
Q 2188 391 2477 730 
Q 2766 1069 2766 1631 
L 2766 1759 
L 2194 1759 
z
M 3341 1997 
L 3341 0 
L 2766 0 
L 2766 531 
Q 2569 213 2275 61 
Q 1981 -91 1556 -91 
Q 1019 -91 701 211 
Q 384 513 384 1019 
Q 384 1609 779 1909 
Q 1175 2209 1959 2209 
L 2766 2209 
L 2766 2266 
Q 2766 2663 2505 2880 
Q 2244 3097 1772 3097 
Q 1472 3097 1187 3025 
Q 903 2953 641 2809 
L 641 3341 
Q 956 3463 1253 3523 
Q 1550 3584 1831 3584 
Q 2591 3584 2966 3190 
Q 3341 2797 3341 1997 
z
" transform="scale(0.015625)"/>
       <path id="DejaVuSans-6c" d="M 603 4863 
L 1178 4863 
L 1178 0 
L 603 0 
L 603 4863 
z
" transform="scale(0.015625)"/>
       <path id="DejaVuSans-20" transform="scale(0.015625)"/>
       <path id="DejaVuSans-52" d="M 2841 2188 
Q 3044 2119 3236 1894 
Q 3428 1669 3622 1275 
L 4263 0 
L 3584 0 
L 2988 1197 
Q 2756 1666 2539 1819 
Q 2322 1972 1947 1972 
L 1259 1972 
L 1259 0 
L 628 0 
L 628 4666 
L 2053 4666 
Q 2853 4666 3247 4331 
Q 3641 3997 3641 3322 
Q 3641 2881 3436 2590 
Q 3231 2300 2841 2188 
z
M 1259 4147 
L 1259 2491 
L 2053 2491 
Q 2509 2491 2742 2702 
Q 2975 2913 2975 3322 
Q 2975 3731 2742 3939 
Q 2509 4147 2053 4147 
L 1259 4147 
z
" transform="scale(0.015625)"/>
       <path id="DejaVuSans-77" d="M 269 3500 
L 844 3500 
L 1563 769 
L 2278 3500 
L 2956 3500 
L 3675 769 
L 4391 3500 
L 4966 3500 
L 4050 0 
L 3372 0 
L 2619 2869 
L 1863 0 
L 1184 0 
L 269 3500 
z
" transform="scale(0.015625)"/>
       <path id="DejaVuSans-72" d="M 2631 2963 
Q 2534 3019 2420 3045 
Q 2306 3072 2169 3072 
Q 1681 3072 1420 2755 
Q 1159 2438 1159 1844 
L 1159 0 
L 581 0 
L 581 3500 
L 1159 3500 
L 1159 2956 
Q 1341 3275 1631 3429 
Q 1922 3584 2338 3584 
Q 2397 3584 2469 3576 
Q 2541 3569 2628 3553 
L 2631 2963 
z
" transform="scale(0.015625)"/>
      </defs>
      <use xlink:href="#DejaVuSans-54"/>
      <use xlink:href="#DejaVuSans-6f" x="44.083984"/>
      <use xlink:href="#DejaVuSans-74" x="105.265625"/>
      <use xlink:href="#DejaVuSans-61" x="144.474609"/>
      <use xlink:href="#DejaVuSans-6c" x="205.753906"/>
      <use xlink:href="#DejaVuSans-20" x="233.537109"/>
      <use xlink:href="#DejaVuSans-52" x="265.324219"/>
      <use xlink:href="#DejaVuSans-65" x="330.306641"/>
      <use xlink:href="#DejaVuSans-77" x="391.830078"/>
      <use xlink:href="#DejaVuSans-61" x="473.617188"/>
      <use xlink:href="#DejaVuSans-72" x="534.896484"/>
      <use xlink:href="#DejaVuSans-64" x="574.259766"/>
     </g>
    </g>
   </g>
   <g id="line2d_29">
    <path d="M 72.975114 280.909135 
L 74.970941 305.901757 
L 76.966768 214.825218 
L 78.962595 225.085568 
L 80.958422 243.100257 
L 84.950076 197.268537 
L 86.945904 223.03089 
L 88.941731 293.049928 
L 90.937558 273.853721 
L 92.933385 317.45338 
L 94.929212 289.974648 
L 96.925039 257.605903 
L 98.920866 230.6418 
L 100.916693 260.020319 
L 102.91252 245.524413 
L 104.908348 235.367492 
L 106.904175 277.826169 
L 108.900002 294.001932 
L 110.895829 252.690159 
L 112.891656 237.119342 
L 114.887483 245.049577 
L 116.88331 257.534096 
L 118.879137 228.41791 
L 120.874965 216.614281 
L 122.870792 283.968878 
L 124.866619 251.363706 
L 126.862446 247.829055 
L 128.858273 274.701387 
L 130.8541 251.481073 
L 132.849927 236.550176 
L 134.845754 256.641839 
L 136.841582 285.035525 
L 138.837409 283.375756 
L 140.833236 317.726268 
L 142.829063 232.967809 
L 144.82489 261.220522 
L 146.820717 210.911134 
L 148.816544 206.375164 
L 150.812371 209.777879 
L 152.808199 310.7205 
L 154.804026 227.204295 
L 156.799853 289.235116 
L 158.79568 267.998271 
L 160.791507 226.608481 
L 162.787334 219.490482 
L 164.783161 194.862612 
L 166.778988 266.75582 
L 168.774816 328.084693 
L 170.770643 259.781426 
L 172.76647 292.113916 
L 174.762297 257.065048 
L 176.758124 239.372016 
L 178.753951 212.232326 
L 180.749778 256.802198 
L 182.745605 235.814606 
L 184.741433 274.873456 
L 186.73726 243.610006 
L 188.733087 226.386105 
L 190.728914 255.594887 
L 192.724741 199.41153 
L 194.720568 226.003298 
L 196.716395 295.497493 
L 198.712222 213.248945 
L 200.70805 219.416849 
L 202.703877 247.594629 
L 204.699704 239.612467 
L 206.695531 214.657936 
L 208.691358 247.530281 
L 210.687185 314.014833 
L 212.683012 234.439177 
L 214.678839 242.816639 
L 216.674667 341.357812 
L 218.670494 231.410478 
L 220.666321 243.321447 
L 222.662148 234.678823 
L 224.657975 208.037708 
L 226.653802 192.475237 
L 228.649629 239.93917 
L 230.645456 254.876123 
L 232.641284 256.87352 
L 234.637111 145.340308 
L 236.632938 261.944537 
L 238.628765 238.082787 
L 240.624592 248.105286 
L 242.620419 277.855635 
L 244.616246 191.738109 
L 246.612073 246.806276 
L 248.607901 227.943879 
L 250.603728 219.04342 
L 252.599555 189.364858 
L 254.595382 221.458001 
L 256.591209 153.144768 
L 258.587036 252.325551 
L 260.582863 234.953991 
L 262.57869 293.335507 
L 264.574518 164.072729 
L 266.570345 245.132971 
L 268.566172 299.145437 
L 270.561999 284.49043 
L 272.557826 194.0167 
L 274.553653 244.538879 
L 276.54948 248.86213 
L 278.545307 231.354941 
L 280.541135 251.503111 
L 282.536962 209.635864 
L 284.532789 211.589702 
L 286.528616 246.825579 
L 288.524443 208.770627 
L 290.52027 279.307266 
L 292.516097 271.711048 
L 294.511924 146.991545 
L 296.507751 231.254473 
L 298.503579 216.910878 
L 300.499406 215.54034 
L 302.495233 211.133736 
L 304.49106 179.307724 
L 306.486887 323.696712 
L 308.482714 226.193949 
L 310.478541 219.474078 
L 312.474368 214.133598 
L 314.470196 221.460694 
L 316.466023 273.418761 
L 318.46185 228.905003 
L 320.457677 205.140791 
L 322.453504 224.289704 
L 324.449331 233.314764 
L 326.445158 232.786619 
L 328.440985 209.678618 
L 330.436813 227.69048 
L 332.43264 152.004487 
L 334.428467 268.172579 
L 336.424294 154.017112 
L 338.420121 173.097778 
L 340.415948 302.780494 
L 342.411775 210.456365 
L 344.407602 235.157796 
L 346.40343 239.971565 
L 348.399257 200.929934 
L 350.395084 155.62932 
L 352.390911 235.397123 
L 356.382565 184.915573 
L 358.378392 168.740326 
L 360.374219 177.299184 
L 362.370047 240.866959 
L 364.365874 201.722311 
L 366.361701 241.977474 
L 368.357528 179.317288 
L 370.353355 310.179572 
L 372.349182 193.043412 
L 374.345009 123.722586 
L 376.340836 220.139451 
L 378.336664 186.733328 
L 380.332491 161.323285 
L 382.328318 170.408379 
L 384.324145 159.570919 
L 386.319972 161.224529 
L 388.315799 200.31267 
L 390.311626 275.313451 
L 392.307453 233.413364 
L 394.303281 243.996517 
L 396.299108 255.347843 
L 398.294935 243.689768 
L 400.290762 199.695747 
L 402.286589 233.827381 
L 404.282416 235.638874 
L 406.278243 155.420377 
L 408.27407 201.458048 
L 410.269898 292.117362 
L 412.265725 239.785826 
L 414.261552 218.997189 
L 416.257379 243.144394 
L 418.253206 208.38357 
L 420.249033 233.908958 
L 422.24486 239.601149 
L 424.240687 191.194736 
L 426.236515 168.653528 
L 428.232342 165.696513 
L 430.228169 240.967613 
L 432.223996 216.540339 
L 434.219823 169.403243 
L 436.21565 183.043446 
L 438.211477 247.389225 
L 440.207304 145.106656 
L 442.203132 192.230051 
L 444.198959 208.700863 
L 446.194786 209.738756 
L 448.190613 187.084977 
L 450.18644 159.659482 
L 452.182267 258.608481 
L 454.178094 278.849123 
L 456.173921 154.679885 
L 458.169749 208.451642 
L 460.165576 290.034621 
L 462.161403 127.691805 
L 464.15723 88.339525 
L 466.153057 204.591269 
L 468.148884 214.23321 
L 470.144711 193.913095 
L 472.140538 191.567154 
L 474.136365 150.722696 
L 476.132193 247.657935 
L 478.12802 117.945589 
L 480.123847 234.070102 
L 482.119674 161.07101 
L 484.115501 215.963518 
L 486.111328 117.743424 
L 488.107155 189.227898 
L 490.102982 190.986144 
L 492.09881 117.1603 
L 494.094637 136.268358 
L 496.090464 99.704603 
L 498.086291 141.652386 
L 500.082118 128.384302 
L 502.077945 226.507455 
L 504.073772 263.749272 
L 506.069599 209.989669 
L 508.065427 188.726919 
L 510.061254 176.037512 
L 512.057081 191.930699 
L 514.052908 110.429823 
L 516.048735 96.604325 
L 518.044562 122.060062 
L 520.040389 202.390469 
L 522.036216 193.532929 
L 524.032044 267.477989 
L 526.027871 217.965723 
L 528.023698 159.428904 
L 530.019525 160.721012 
L 532.015352 314.545371 
L 534.011179 175.088181 
L 536.007006 282.938887 
L 538.002833 163.099968 
L 539.998661 163.218182 
L 541.994488 123.552807 
L 543.990315 312.695922 
L 545.986142 137.231638 
L 547.981969 77.485134 
L 549.977796 211.590538 
L 551.973623 155.309602 
L 553.96945 170.197724 
L 555.965278 271.362029 
L 557.961105 129.461266 
L 559.956932 53.675651 
L 561.952759 167.438984 
L 563.948586 193.422598 
L 565.944413 128.807861 
L 567.94024 115.955733 
L 569.936067 143.912282 
L 571.931895 214.548213 
L 573.927722 124.567013 
L 575.923549 158.548584 
L 577.919376 82.258564 
L 579.915203 194.076054 
L 581.91103 140.589927 
L 583.906857 164.785406 
L 585.902684 185.804157 
L 587.898512 205.360731 
L 589.894339 194.341143 
L 591.890166 195.39443 
L 593.885993 174.189187 
L 595.88182 64.565449 
L 597.877647 129.619046 
L 599.873474 222.678838 
L 601.869301 140.22761 
L 603.865129 153.611783 
L 605.860956 173.145278 
L 607.856783 157.620331 
L 609.85261 203.358732 
L 611.848437 197.697132 
L 613.844264 235.798201 
L 615.840091 88.203071 
L 617.835918 82.622655 
L 619.831746 273.016392 
L 621.827573 38.957812 
L 623.8234 206.865434 
L 625.819227 199.661504 
L 627.815054 156.2855 
L 629.810881 159.812877 
L 631.806708 136.544981 
L 633.802535 59.398514 
L 635.798363 296.04036 
L 637.79419 177.954653 
L 639.790017 209.429985 
L 641.785844 115.144042 
L 643.781671 135.929244 
L 645.777498 190.436819 
L 647.773325 83.744097 
L 649.769152 169.588869 
L 651.76498 137.996983 
L 653.760807 190.948662 
L 655.756634 166.753905 
L 657.752461 246.363815 
L 659.748288 130.499799 
L 661.744115 218.527986 
L 663.739942 178.763454 
L 665.735769 287.99252 
L 667.731596 192.869228 
L 669.727424 168.538832 
L 671.723251 205.078589 
L 673.719078 219.968186 
L 675.714905 211.42566 
L 677.710732 244.477079 
L 679.706559 100.83987 
L 681.702386 202.482013 
L 681.702386 202.482013 
" clip-path="url(#pa96d685eca)" style="fill: none; stroke: #0000ff; stroke-opacity: 0.3; stroke-width: 1.5; stroke-linecap: square"/>
   </g>
   <g id="line2d_30">
    <path d="M 110.895829 256.926185 
L 112.891656 254.736696 
L 114.887483 251.694087 
L 116.88331 253.82953 
L 118.879137 253.996148 
L 120.874965 252.671849 
L 122.870792 255.850669 
L 124.866619 258.555427 
L 126.862446 259.795335 
L 128.858273 258.877908 
L 130.8541 257.759276 
L 132.849927 253.714116 
L 134.845754 252.047475 
L 136.841582 253.418956 
L 138.837409 256.055654 
L 140.833236 258.940952 
L 142.829063 258.313121 
L 144.82489 259.605773 
L 146.820717 256.260021 
L 148.816544 251.878683 
L 150.812371 249.733069 
L 152.808199 253.413127 
L 154.804026 252.520863 
L 156.799853 254.105914 
L 158.79568 256.084932 
L 160.791507 256.584642 
L 162.787334 253.360722 
L 164.783161 250.535667 
L 166.778988 251.482005 
L 168.774816 254.151171 
L 170.770643 254.566188 
L 172.76647 257.344375 
L 174.762297 257.365536 
L 176.758124 255.08236 
L 178.753951 251.525189 
L 180.749778 248.478985 
L 182.745605 248.621325 
L 184.741433 249.303972 
L 186.73726 250.938916 
L 188.733087 251.939463 
L 190.728914 254.230313 
L 192.724741 248.664865 
L 194.720568 248.604815 
L 196.716395 248.917934 
L 198.712222 246.180467 
L 200.70805 245.820886 
L 202.703877 247.226093 
L 204.699704 249.463586 
L 206.695531 246.858692 
L 208.691358 242.830971 
L 210.687185 245.542641 
L 212.683012 242.658904 
L 214.678839 241.946484 
L 216.674667 247.045774 
L 218.670494 248.004681 
L 220.666321 247.330644 
L 222.662148 247.273855 
L 224.657975 243.932067 
L 226.653802 241.375329 
L 228.649629 242.052982 
L 230.645456 242.017044 
L 232.641284 244.890143 
L 234.637111 240.856994 
L 236.632938 239.179346 
L 238.628765 240.421038 
L 242.620419 243.36851 
L 244.616246 240.974792 
L 246.612073 242.582209 
L 248.607901 241.602889 
L 250.603728 236.854319 
L 252.599555 234.600603 
L 254.595382 233.532671 
L 256.591209 224.122018 
L 258.587036 225.167772 
L 260.582863 224.749399 
L 262.57869 227.682234 
L 264.574518 225.483985 
L 266.570345 228.116871 
L 268.566172 231.077185 
L 270.561999 232.5579 
L 272.557826 229.415059 
L 274.553653 234.374987 
L 276.54948 233.720867 
L 278.545307 233.384475 
L 280.541135 233.554366 
L 282.536962 230.143378 
L 284.532789 231.135957 
L 286.528616 231.136922 
L 288.524443 230.17826 
L 290.52027 233.191452 
L 292.516097 237.308762 
L 294.511924 233.585439 
L 296.507751 237.490924 
L 298.503579 235.72019 
L 300.499406 234.749508 
L 302.495233 230.639419 
L 304.49106 231.401169 
L 306.486887 235.329356 
L 308.482714 231.681782 
L 310.478541 228.430964 
L 312.474368 229.436809 
L 314.470196 228.2829 
L 316.466023 229.510731 
L 318.46185 229.388234 
L 320.457677 227.070118 
L 322.453504 227.80281 
L 324.449331 228.889063 
L 326.445158 228.187115 
L 328.440985 228.232515 
L 330.436813 225.651676 
L 332.43264 219.666348 
L 334.428467 225.725399 
L 336.424294 221.863531 
L 338.420121 219.672876 
L 340.415948 224.034884 
L 342.411775 224.001015 
L 344.407602 226.793519 
L 346.40343 222.607262 
L 348.399257 221.344061 
L 350.395084 218.151823 
L 352.390911 219.214999 
L 354.386738 218.621738 
L 356.382565 214.196579 
L 358.378392 211.188345 
L 360.374219 209.796265 
L 362.370047 210.625127 
L 364.365874 209.045505 
L 366.361701 209.505047 
L 368.357528 207.986981 
L 370.353355 212.111436 
L 372.349182 214.163382 
L 374.345009 206.940882 
L 376.340836 210.246999 
L 378.336664 210.928777 
L 380.332491 203.855916 
L 382.328318 201.853517 
L 386.319972 194.136821 
L 388.315799 194.105958 
L 390.311626 200.090165 
L 392.307453 199.990977 
L 394.303281 201.711029 
L 396.299108 205.232643 
L 398.294935 208.980115 
L 400.290762 210.099943 
L 402.286589 209.747964 
L 404.282416 211.443792 
L 406.278243 207.115937 
L 408.27407 208.222975 
L 410.269898 207.319865 
L 412.265725 209.656985 
L 414.261552 214.420715 
L 418.253206 216.653475 
L 422.24486 223.742397 
L 424.240687 225.323588 
L 426.236515 225.695038 
L 430.228169 222.246938 
L 432.223996 221.403287 
L 436.21565 214.058403 
L 438.211477 214.243376 
L 440.207304 211.513921 
L 442.203132 209.434055 
L 444.198959 208.087154 
L 446.194786 210.803073 
L 448.190613 210.08442 
L 450.18644 203.461526 
L 452.182267 204.402658 
L 454.178094 207.395255 
L 456.173921 202.97203 
L 458.169749 202.975433 
L 460.165576 205.781716 
L 462.161403 200.186249 
L 464.15723 195.043489 
L 466.153057 196.840376 
L 468.148884 199.267211 
L 470.144711 196.914485 
L 472.140538 195.665825 
L 474.136365 194.731798 
L 476.132193 197.962523 
L 478.12802 191.490341 
L 480.123847 195.938513 
L 482.119674 194.380561 
L 484.115501 194.743694 
L 486.111328 190.143927 
L 488.107155 190.251073 
L 490.102982 191.817406 
L 494.094637 177.615959 
L 496.090464 174.867195 
L 498.086291 171.527232 
L 500.082118 163.444716 
L 502.077945 168.385499 
L 504.073772 177.155986 
L 506.069599 177.425906 
L 508.065427 176.150591 
L 510.061254 175.256812 
L 512.057081 175.27499 
L 514.052908 173.260346 
L 516.048735 165.707665 
L 518.044562 165.913389 
L 520.040389 164.329407 
L 522.036216 165.952503 
L 524.032044 168.528227 
L 526.027871 173.539342 
L 530.019525 170.536136 
L 532.015352 180.405389 
L 534.011179 182.34638 
L 536.007006 191.508094 
L 538.002833 192.580474 
L 539.998661 194.322168 
L 541.994488 189.174435 
L 543.990315 191.621768 
L 545.986142 187.983866 
L 547.981969 182.421777 
L 549.977796 184.199428 
L 551.973623 182.368373 
L 553.96945 185.356768 
L 555.965278 194.094654 
L 557.961105 194.464714 
L 559.956932 187.028973 
L 561.952759 185.724276 
L 563.948586 182.021506 
L 565.944413 177.563613 
L 567.94024 175.389954 
L 569.936067 174.549518 
L 571.931895 169.54966 
L 573.927722 167.023602 
L 575.923549 160.804086 
L 577.919376 156.762016 
L 579.915203 158.30491 
L 581.91103 159.156766 
L 583.906857 151.76124 
L 585.902684 154.189866 
L 587.898512 160.583646 
L 589.894339 159.721176 
L 591.890166 161.725418 
L 593.885993 161.924991 
L 595.88182 151.585162 
L 597.877647 151.593051 
L 599.873474 160.04321 
L 601.869301 158.682641 
L 603.865129 156.692101 
L 607.856783 160.992201 
L 609.85261 163.964524 
L 611.848437 163.12197 
L 613.844264 168.683529 
L 615.840091 165.166254 
L 617.835918 165.184458 
L 619.831746 169.131475 
L 621.827573 164.049869 
L 623.8234 166.153871 
L 625.819227 166.846738 
L 627.815054 164.392976 
L 629.810881 162.666563 
L 631.806708 159.724091 
L 633.802535 153.984557 
L 635.798363 165.558303 
L 637.79419 167.975083 
L 639.790017 167.31264 
L 641.785844 166.058462 
L 643.781671 165.174335 
L 645.777498 166.038912 
L 647.773325 162.3451 
L 649.769152 160.656607 
L 651.76498 157.6716 
L 653.760807 155.429123 
L 655.756634 159.356665 
L 657.752461 167.543722 
L 659.748288 160.417893 
L 661.744115 169.396402 
L 663.739942 167.991303 
L 665.735769 172.407853 
L 667.731596 174.23704 
L 669.727424 174.673337 
L 671.723251 178.100018 
L 673.719078 186.128501 
L 675.714905 181.897766 
L 677.710732 185.223888 
L 679.706559 179.794382 
L 681.702386 184.161281 
L 681.702386 184.161281 
" clip-path="url(#pa96d685eca)" style="fill: none; stroke: #ff0000; stroke-width: 2; stroke-linecap: square"/>
   </g>
   <g id="patch_3">
    <path d="M 42.53875 356.477812 
L 42.53875 23.837812 
" style="fill: none; stroke: #000000; stroke-width: 0.8; stroke-linejoin: miter; stroke-linecap: square"/>
   </g>
   <g id="patch_4">
    <path d="M 712.13875 356.477812 
L 712.13875 23.837812 
" style="fill: none; stroke: #000000; stroke-width: 0.8; stroke-linejoin: miter; stroke-linecap: square"/>
   </g>
   <g id="patch_5">
    <path d="M 42.53875 356.477812 
L 712.13875 356.477812 
" style="fill: none; stroke: #000000; stroke-width: 0.8; stroke-linejoin: miter; stroke-linecap: square"/>
   </g>
   <g id="patch_6">
    <path d="M 42.53875 23.837812 
L 712.13875 23.837812 
" style="fill: none; stroke: #000000; stroke-width: 0.8; stroke-linejoin: miter; stroke-linecap: square"/>
   </g>
   <g id="text_17">
    <!-- DQN Training Reward Curve (306 Episodes) -->
    <g transform="translate(206.800156 17.837812) scale(0.14 -0.14)">
     <defs>
      <path id="DejaVuSans-Bold-44" d="M 1791 3756 
L 1791 909 
L 2222 909 
Q 2959 909 3348 1275 
Q 3738 1641 3738 2338 
Q 3738 3031 3350 3393 
Q 2963 3756 2222 3756 
L 1791 3756 
z
M 588 4666 
L 1856 4666 
Q 2919 4666 3439 4514 
Q 3959 4363 4331 4000 
Q 4659 3684 4818 3271 
Q 4978 2859 4978 2338 
Q 4978 1809 4818 1395 
Q 4659 981 4331 666 
Q 3956 303 3431 151 
Q 2906 0 1856 0 
L 588 0 
L 588 4666 
z
" transform="scale(0.015625)"/>
      <path id="DejaVuSans-Bold-51" d="M 2847 -84 
L 2753 -84 
Q 1600 -84 959 553 
Q 319 1191 319 2328 
Q 319 3463 958 4106 
Q 1597 4750 2719 4750 
Q 3853 4750 4486 4112 
Q 5119 3475 5119 2328 
Q 5119 1541 4783 972 
Q 4447 403 3816 116 
L 4756 -934 
L 3609 -934 
L 2847 -84 
z
M 2719 3878 
Q 2169 3878 1866 3472 
Q 1563 3066 1563 2328 
Q 1563 1578 1859 1179 
Q 2156 781 2719 781 
Q 3272 781 3575 1187 
Q 3878 1594 3878 2328 
Q 3878 3066 3575 3472 
Q 3272 3878 2719 3878 
z
" transform="scale(0.015625)"/>
      <path id="DejaVuSans-Bold-4e" d="M 588 4666 
L 1931 4666 
L 3628 1466 
L 3628 4666 
L 4769 4666 
L 4769 0 
L 3425 0 
L 1728 3200 
L 1728 0 
L 588 0 
L 588 4666 
z
" transform="scale(0.015625)"/>
      <path id="DejaVuSans-Bold-20" transform="scale(0.015625)"/>
      <path id="DejaVuSans-Bold-54" d="M 31 4666 
L 4331 4666 
L 4331 3756 
L 2784 3756 
L 2784 0 
L 1581 0 
L 1581 3756 
L 31 3756 
L 31 4666 
z
" transform="scale(0.015625)"/>
      <path id="DejaVuSans-Bold-72" d="M 3138 2547 
Q 2991 2616 2845 2648 
Q 2700 2681 2553 2681 
Q 2122 2681 1889 2404 
Q 1656 2128 1656 1613 
L 1656 0 
L 538 0 
L 538 3500 
L 1656 3500 
L 1656 2925 
Q 1872 3269 2151 3426 
Q 2431 3584 2822 3584 
Q 2878 3584 2943 3579 
Q 3009 3575 3134 3559 
L 3138 2547 
z
" transform="scale(0.015625)"/>
      <path id="DejaVuSans-Bold-61" d="M 2106 1575 
Q 1756 1575 1579 1456 
Q 1403 1338 1403 1106 
Q 1403 894 1545 773 
Q 1688 653 1941 653 
Q 2256 653 2472 879 
Q 2688 1106 2688 1447 
L 2688 1575 
L 2106 1575 
z
M 3816 1997 
L 3816 0 
L 2688 0 
L 2688 519 
Q 2463 200 2181 54 
Q 1900 -91 1497 -91 
Q 953 -91 614 226 
Q 275 544 275 1050 
Q 275 1666 698 1953 
Q 1122 2241 2028 2241 
L 2688 2241 
L 2688 2328 
Q 2688 2594 2478 2717 
Q 2269 2841 1825 2841 
Q 1466 2841 1156 2769 
Q 847 2697 581 2553 
L 581 3406 
Q 941 3494 1303 3539 
Q 1666 3584 2028 3584 
Q 2975 3584 3395 3211 
Q 3816 2838 3816 1997 
z
" transform="scale(0.015625)"/>
      <path id="DejaVuSans-Bold-69" d="M 538 3500 
L 1656 3500 
L 1656 0 
L 538 0 
L 538 3500 
z
M 538 4863 
L 1656 4863 
L 1656 3950 
L 538 3950 
L 538 4863 
z
" transform="scale(0.015625)"/>
      <path id="DejaVuSans-Bold-6e" d="M 4056 2131 
L 4056 0 
L 2931 0 
L 2931 347 
L 2931 1631 
Q 2931 2084 2911 2256 
Q 2891 2428 2841 2509 
Q 2775 2619 2662 2680 
Q 2550 2741 2406 2741 
Q 2056 2741 1856 2470 
Q 1656 2200 1656 1722 
L 1656 0 
L 538 0 
L 538 3500 
L 1656 3500 
L 1656 2988 
Q 1909 3294 2193 3439 
Q 2478 3584 2822 3584 
Q 3428 3584 3742 3212 
Q 4056 2841 4056 2131 
z
" transform="scale(0.015625)"/>
      <path id="DejaVuSans-Bold-67" d="M 2919 594 
Q 2688 288 2409 144 
Q 2131 0 1766 0 
Q 1125 0 706 504 
Q 288 1009 288 1791 
Q 288 2575 706 3076 
Q 1125 3578 1766 3578 
Q 2131 3578 2409 3434 
Q 2688 3291 2919 2981 
L 2919 3500 
L 4044 3500 
L 4044 353 
Q 4044 -491 3511 -936 
Q 2978 -1381 1966 -1381 
Q 1638 -1381 1331 -1331 
Q 1025 -1281 716 -1178 
L 716 -306 
Q 1009 -475 1290 -558 
Q 1572 -641 1856 -641 
Q 2406 -641 2662 -400 
Q 2919 -159 2919 353 
L 2919 594 
z
M 2181 2772 
Q 1834 2772 1640 2515 
Q 1447 2259 1447 1791 
Q 1447 1309 1634 1061 
Q 1822 813 2181 813 
Q 2531 813 2725 1069 
Q 2919 1325 2919 1791 
Q 2919 2259 2725 2515 
Q 2531 2772 2181 2772 
z
" transform="scale(0.015625)"/>
      <path id="DejaVuSans-Bold-52" d="M 2297 2597 
Q 2675 2597 2839 2737 
Q 3003 2878 3003 3200 
Q 3003 3519 2839 3656 
Q 2675 3794 2297 3794 
L 1791 3794 
L 1791 2597 
L 2297 2597 
z
M 1791 1766 
L 1791 0 
L 588 0 
L 588 4666 
L 2425 4666 
Q 3347 4666 3776 4356 
Q 4206 4047 4206 3378 
Q 4206 2916 3982 2619 
Q 3759 2322 3309 2181 
Q 3556 2125 3751 1926 
Q 3947 1728 4147 1325 
L 4800 0 
L 3519 0 
L 2950 1159 
Q 2778 1509 2601 1637 
Q 2425 1766 2131 1766 
L 1791 1766 
z
" transform="scale(0.015625)"/>
      <path id="DejaVuSans-Bold-65" d="M 4031 1759 
L 4031 1441 
L 1416 1441 
Q 1456 1047 1700 850 
Q 1944 653 2381 653 
Q 2734 653 3104 758 
Q 3475 863 3866 1075 
L 3866 213 
Q 3469 63 3072 -14 
Q 2675 -91 2278 -91 
Q 1328 -91 801 392 
Q 275 875 275 1747 
Q 275 2603 792 3093 
Q 1309 3584 2216 3584 
Q 3041 3584 3536 3087 
Q 4031 2591 4031 1759 
z
M 2881 2131 
Q 2881 2450 2695 2645 
Q 2509 2841 2209 2841 
Q 1884 2841 1681 2658 
Q 1478 2475 1428 2131 
L 2881 2131 
z
" transform="scale(0.015625)"/>
      <path id="DejaVuSans-Bold-77" d="M 225 3500 
L 1313 3500 
L 1900 1088 
L 2491 3500 
L 3425 3500 
L 4013 1113 
L 4603 3500 
L 5691 3500 
L 4769 0 
L 3547 0 
L 2956 2406 
L 2369 0 
L 1147 0 
L 225 3500 
z
" transform="scale(0.015625)"/>
      <path id="DejaVuSans-Bold-64" d="M 2919 2988 
L 2919 4863 
L 4044 4863 
L 4044 0 
L 2919 0 
L 2919 506 
Q 2688 197 2409 53 
Q 2131 -91 1766 -91 
Q 1119 -91 703 423 
Q 288 938 288 1747 
Q 288 2556 703 3070 
Q 1119 3584 1766 3584 
Q 2128 3584 2408 3439 
Q 2688 3294 2919 2988 
z
M 2181 722 
Q 2541 722 2730 984 
Q 2919 1247 2919 1747 
Q 2919 2247 2730 2509 
Q 2541 2772 2181 2772 
Q 1825 2772 1636 2509 
Q 1447 2247 1447 1747 
Q 1447 1247 1636 984 
Q 1825 722 2181 722 
z
" transform="scale(0.015625)"/>
      <path id="DejaVuSans-Bold-43" d="M 4288 256 
Q 3956 84 3597 -3 
Q 3238 -91 2847 -91 
Q 1681 -91 1000 561 
Q 319 1213 319 2328 
Q 319 3447 1000 4098 
Q 1681 4750 2847 4750 
Q 3238 4750 3597 4662 
Q 3956 4575 4288 4403 
L 4288 3438 
Q 3953 3666 3628 3772 
Q 3303 3878 2944 3878 
Q 2300 3878 1931 3465 
Q 1563 3053 1563 2328 
Q 1563 1606 1931 1193 
Q 2300 781 2944 781 
Q 3303 781 3628 887 
Q 3953 994 4288 1222 
L 4288 256 
z
" transform="scale(0.015625)"/>
      <path id="DejaVuSans-Bold-75" d="M 500 1363 
L 500 3500 
L 1625 3500 
L 1625 3150 
Q 1625 2866 1622 2436 
Q 1619 2006 1619 1863 
Q 1619 1441 1641 1255 
Q 1663 1069 1716 984 
Q 1784 875 1895 815 
Q 2006 756 2150 756 
Q 2500 756 2700 1025 
Q 2900 1294 2900 1772 
L 2900 3500 
L 4019 3500 
L 4019 0 
L 2900 0 
L 2900 506 
Q 2647 200 2364 54 
Q 2081 -91 1741 -91 
Q 1134 -91 817 281 
Q 500 653 500 1363 
z
" transform="scale(0.015625)"/>
      <path id="DejaVuSans-Bold-76" d="M 97 3500 
L 1216 3500 
L 2088 1081 
L 2956 3500 
L 4078 3500 
L 2700 0 
L 1472 0 
L 97 3500 
z
" transform="scale(0.015625)"/>
      <path id="DejaVuSans-Bold-28" d="M 2413 -844 
L 1484 -844 
Q 1006 -72 778 623 
Q 550 1319 550 2003 
Q 550 2688 779 3389 
Q 1009 4091 1484 4856 
L 2413 4856 
Q 2013 4116 1813 3408 
Q 1613 2700 1613 2009 
Q 1613 1319 1811 609 
Q 2009 -100 2413 -844 
z
" transform="scale(0.015625)"/>
      <path id="DejaVuSans-Bold-33" d="M 2981 2516 
Q 3453 2394 3698 2092 
Q 3944 1791 3944 1325 
Q 3944 631 3412 270 
Q 2881 -91 1863 -91 
Q 1503 -91 1142 -33 
Q 781 25 428 141 
L 428 1069 
Q 766 900 1098 814 
Q 1431 728 1753 728 
Q 2231 728 2486 893 
Q 2741 1059 2741 1369 
Q 2741 1688 2480 1852 
Q 2219 2016 1709 2016 
L 1228 2016 
L 1228 2791 
L 1734 2791 
Q 2188 2791 2409 2933 
Q 2631 3075 2631 3366 
Q 2631 3634 2415 3781 
Q 2200 3928 1806 3928 
Q 1516 3928 1219 3862 
Q 922 3797 628 3669 
L 628 4550 
Q 984 4650 1334 4700 
Q 1684 4750 2022 4750 
Q 2931 4750 3382 4451 
Q 3834 4153 3834 3553 
Q 3834 3144 3618 2883 
Q 3403 2622 2981 2516 
z
" transform="scale(0.015625)"/>
      <path id="DejaVuSans-Bold-30" d="M 2944 2338 
Q 2944 3213 2780 3570 
Q 2616 3928 2228 3928 
Q 1841 3928 1675 3570 
Q 1509 3213 1509 2338 
Q 1509 1453 1675 1090 
Q 1841 728 2228 728 
Q 2613 728 2778 1090 
Q 2944 1453 2944 2338 
z
M 4147 2328 
Q 4147 1169 3647 539 
Q 3147 -91 2228 -91 
Q 1306 -91 806 539 
Q 306 1169 306 2328 
Q 306 3491 806 4120 
Q 1306 4750 2228 4750 
Q 3147 4750 3647 4120 
Q 4147 3491 4147 2328 
z
" transform="scale(0.015625)"/>
      <path id="DejaVuSans-Bold-36" d="M 2316 2303 
Q 2000 2303 1842 2098 
Q 1684 1894 1684 1484 
Q 1684 1075 1842 870 
Q 2000 666 2316 666 
Q 2634 666 2792 870 
Q 2950 1075 2950 1484 
Q 2950 1894 2792 2098 
Q 2634 2303 2316 2303 
z
M 3803 4544 
L 3803 3681 
Q 3506 3822 3243 3889 
Q 2981 3956 2731 3956 
Q 2194 3956 1894 3657 
Q 1594 3359 1544 2772 
Q 1750 2925 1990 3001 
Q 2231 3078 2516 3078 
Q 3231 3078 3670 2659 
Q 4109 2241 4109 1563 
Q 4109 813 3618 361 
Q 3128 -91 2303 -91 
Q 1394 -91 895 523 
Q 397 1138 397 2266 
Q 397 3422 980 4083 
Q 1563 4744 2578 4744 
Q 2900 4744 3203 4694 
Q 3506 4644 3803 4544 
z
" transform="scale(0.015625)"/>
      <path id="DejaVuSans-Bold-45" d="M 588 4666 
L 3834 4666 
L 3834 3756 
L 1791 3756 
L 1791 2888 
L 3713 2888 
L 3713 1978 
L 1791 1978 
L 1791 909 
L 3903 909 
L 3903 0 
L 588 0 
L 588 4666 
z
" transform="scale(0.015625)"/>
      <path id="DejaVuSans-Bold-70" d="M 1656 506 
L 1656 -1331 
L 538 -1331 
L 538 3500 
L 1656 3500 
L 1656 2988 
Q 1888 3294 2169 3439 
Q 2450 3584 2816 3584 
Q 3463 3584 3878 3070 
Q 4294 2556 4294 1747 
Q 4294 938 3878 423 
Q 3463 -91 2816 -91 
Q 2450 -91 2169 54 
Q 1888 200 1656 506 
z
M 2400 2772 
Q 2041 2772 1848 2508 
Q 1656 2244 1656 1747 
Q 1656 1250 1848 986 
Q 2041 722 2400 722 
Q 2759 722 2948 984 
Q 3138 1247 3138 1747 
Q 3138 2247 2948 2509 
Q 2759 2772 2400 2772 
z
" transform="scale(0.015625)"/>
      <path id="DejaVuSans-Bold-73" d="M 3272 3391 
L 3272 2541 
Q 2913 2691 2578 2766 
Q 2244 2841 1947 2841 
Q 1628 2841 1473 2761 
Q 1319 2681 1319 2516 
Q 1319 2381 1436 2309 
Q 1553 2238 1856 2203 
L 2053 2175 
Q 2913 2066 3209 1816 
Q 3506 1566 3506 1031 
Q 3506 472 3093 190 
Q 2681 -91 1863 -91 
Q 1516 -91 1145 -36 
Q 775 19 384 128 
L 384 978 
Q 719 816 1070 734 
Q 1422 653 1784 653 
Q 2113 653 2278 743 
Q 2444 834 2444 1013 
Q 2444 1163 2330 1236 
Q 2216 1309 1875 1350 
L 1678 1375 
Q 931 1469 631 1722 
Q 331 1975 331 2491 
Q 331 3047 712 3315 
Q 1094 3584 1881 3584 
Q 2191 3584 2531 3537 
Q 2872 3491 3272 3391 
z
" transform="scale(0.015625)"/>
      <path id="DejaVuSans-Bold-6f" d="M 2203 2784 
Q 1831 2784 1636 2517 
Q 1441 2250 1441 1747 
Q 1441 1244 1636 976 
Q 1831 709 2203 709 
Q 2569 709 2762 976 
Q 2956 1244 2956 1747 
Q 2956 2250 2762 2517 
Q 2569 2784 2203 2784 
z
M 2203 3584 
Q 3106 3584 3614 3096 
Q 4122 2609 4122 1747 
Q 4122 884 3614 396 
Q 3106 -91 2203 -91 
Q 1297 -91 786 396 
Q 275 884 275 1747 
Q 275 2609 786 3096 
Q 1297 3584 2203 3584 
z
" transform="scale(0.015625)"/>
      <path id="DejaVuSans-Bold-29" d="M 513 -844 
Q 913 -100 1113 609 
Q 1313 1319 1313 2009 
Q 1313 2700 1113 3408 
Q 913 4116 513 4856 
L 1441 4856 
Q 1916 4091 2145 3389 
Q 2375 2688 2375 2003 
Q 2375 1319 2147 623 
Q 1919 -72 1441 -844 
L 513 -844 
z
" transform="scale(0.015625)"/>
     </defs>
     <use xlink:href="#DejaVuSans-Bold-44"/>
     <use xlink:href="#DejaVuSans-Bold-51" x="83.007812"/>
     <use xlink:href="#DejaVuSans-Bold-4e" x="168.017578"/>
     <use xlink:href="#DejaVuSans-Bold-20" x="251.708984"/>
     <use xlink:href="#DejaVuSans-Bold-54" x="286.523438"/>
     <use xlink:href="#DejaVuSans-Bold-72" x="343.736328"/>
     <use xlink:href="#DejaVuSans-Bold-61" x="393.052734"/>
     <use xlink:href="#DejaVuSans-Bold-69" x="460.533203"/>
     <use xlink:href="#DejaVuSans-Bold-6e" x="494.810547"/>
     <use xlink:href="#DejaVuSans-Bold-69" x="566.001953"/>
     <use xlink:href="#DejaVuSans-Bold-6e" x="600.279297"/>
     <use xlink:href="#DejaVuSans-Bold-67" x="671.470703"/>
     <use xlink:href="#DejaVuSans-Bold-20" x="743.052734"/>
     <use xlink:href="#DejaVuSans-Bold-52" x="777.867188"/>
     <use xlink:href="#DejaVuSans-Bold-65" x="854.869141"/>
     <use xlink:href="#DejaVuSans-Bold-77" x="922.691406"/>
     <use xlink:href="#DejaVuSans-Bold-61" x="1015.074219"/>
     <use xlink:href="#DejaVuSans-Bold-72" x="1082.554688"/>
     <use xlink:href="#DejaVuSans-Bold-64" x="1131.871094"/>
     <use xlink:href="#DejaVuSans-Bold-20" x="1203.453125"/>
     <use xlink:href="#DejaVuSans-Bold-43" x="1238.267578"/>
     <use xlink:href="#DejaVuSans-Bold-75" x="1311.65625"/>
     <use xlink:href="#DejaVuSans-Bold-72" x="1382.847656"/>
     <use xlink:href="#DejaVuSans-Bold-76" x="1432.164062"/>
     <use xlink:href="#DejaVuSans-Bold-65" x="1497.349609"/>
     <use xlink:href="#DejaVuSans-Bold-20" x="1565.171875"/>
     <use xlink:href="#DejaVuSans-Bold-28" x="1599.986328"/>
     <use xlink:href="#DejaVuSans-Bold-33" x="1645.689453"/>
     <use xlink:href="#DejaVuSans-Bold-30" x="1715.269531"/>
     <use xlink:href="#DejaVuSans-Bold-36" x="1784.849609"/>
     <use xlink:href="#DejaVuSans-Bold-20" x="1854.429688"/>
     <use xlink:href="#DejaVuSans-Bold-45" x="1889.244141"/>
     <use xlink:href="#DejaVuSans-Bold-70" x="1957.554688"/>
     <use xlink:href="#DejaVuSans-Bold-69" x="2029.136719"/>
     <use xlink:href="#DejaVuSans-Bold-73" x="2063.414062"/>
     <use xlink:href="#DejaVuSans-Bold-6f" x="2122.935547"/>
     <use xlink:href="#DejaVuSans-Bold-64" x="2191.636719"/>
     <use xlink:href="#DejaVuSans-Bold-65" x="2263.21875"/>
     <use xlink:href="#DejaVuSans-Bold-73" x="2331.041016"/>
     <use xlink:href="#DejaVuSans-Bold-29" x="2390.5625"/>
    </g>
   </g>
   <g id="legend_1">
    <g id="patch_7">
     <path d="M 49.53875 61.194062 
L 198.974688 61.194062 
Q 200.974688 61.194062 200.974688 59.194062 
L 200.974688 30.837812 
Q 200.974688 28.837812 198.974688 28.837812 
L 49.53875 28.837812 
Q 47.53875 28.837812 47.53875 30.837812 
L 47.53875 59.194062 
Q 47.53875 61.194062 49.53875 61.194062 
z
" style="fill: #ffffff; opacity: 0.8; stroke: #cccccc; stroke-linejoin: miter"/>
    </g>
    <g id="line2d_31">
     <path d="M 51.53875 36.93625 
L 61.53875 36.93625 
L 71.53875 36.93625 
" style="fill: none; stroke: #0000ff; stroke-opacity: 0.3; stroke-width: 1.5; stroke-linecap: square"/>
    </g>
    <g id="text_18">
     <!-- Per-episode -->
     <g transform="translate(79.53875 40.43625) scale(0.1 -0.1)">
      <defs>
       <path id="DejaVuSans-50" d="M 1259 4147 
L 1259 2394 
L 2053 2394 
Q 2494 2394 2734 2622 
Q 2975 2850 2975 3272 
Q 2975 3691 2734 3919 
Q 2494 4147 2053 4147 
L 1259 4147 
z
M 628 4666 
L 2053 4666 
Q 2838 4666 3239 4311 
Q 3641 3956 3641 3272 
Q 3641 2581 3239 2228 
Q 2838 1875 2053 1875 
L 1259 1875 
L 1259 0 
L 628 0 
L 628 4666 
z
" transform="scale(0.015625)"/>
       <path id="DejaVuSans-2d" d="M 313 2009 
L 1997 2009 
L 1997 1497 
L 313 1497 
L 313 2009 
z
" transform="scale(0.015625)"/>
      </defs>
      <use xlink:href="#DejaVuSans-50"/>
      <use xlink:href="#DejaVuSans-65" x="56.677734"/>
      <use xlink:href="#DejaVuSans-72" x="118.201172"/>
      <use xlink:href="#DejaVuSans-2d" x="152.939453"/>
      <use xlink:href="#DejaVuSans-65" x="189.023438"/>
      <use xlink:href="#DejaVuSans-70" x="250.546875"/>
      <use xlink:href="#DejaVuSans-69" x="314.023438"/>
      <use xlink:href="#DejaVuSans-73" x="341.806641"/>
      <use xlink:href="#DejaVuSans-6f" x="393.90625"/>
      <use xlink:href="#DejaVuSans-64" x="455.087891"/>
      <use xlink:href="#DejaVuSans-65" x="518.564453"/>
     </g>
    </g>
    <g id="line2d_32">
     <path d="M 51.53875 51.614375 
L 61.53875 51.614375 
L 71.53875 51.614375 
" style="fill: none; stroke: #ff0000; stroke-width: 2; stroke-linecap: square"/>
    </g>
    <g id="text_19">
     <!-- 20-episode moving avg -->
     <g transform="translate(79.53875 55.114375) scale(0.1 -0.1)">
      <defs>
       <path id="DejaVuSans-6d" d="M 3328 2828 
Q 3544 3216 3844 3400 
Q 4144 3584 4550 3584 
Q 5097 3584 5394 3201 
Q 5691 2819 5691 2113 
L 5691 0 
L 5113 0 
L 5113 2094 
Q 5113 2597 4934 2840 
Q 4756 3084 4391 3084 
Q 3944 3084 3684 2787 
Q 3425 2491 3425 1978 
L 3425 0 
L 2847 0 
L 2847 2094 
Q 2847 2600 2669 2842 
Q 2491 3084 2119 3084 
Q 1678 3084 1418 2786 
Q 1159 2488 1159 1978 
L 1159 0 
L 581 0 
L 581 3500 
L 1159 3500 
L 1159 2956 
Q 1356 3278 1631 3431 
Q 1906 3584 2284 3584 
Q 2666 3584 2933 3390 
Q 3200 3197 3328 2828 
z
" transform="scale(0.015625)"/>
       <path id="DejaVuSans-76" d="M 191 3500 
L 800 3500 
L 1894 563 
L 2988 3500 
L 3597 3500 
L 2284 0 
L 1503 0 
L 191 3500 
z
" transform="scale(0.015625)"/>
       <path id="DejaVuSans-6e" d="M 3513 2113 
L 3513 0 
L 2938 0 
L 2938 2094 
Q 2938 2591 2744 2837 
Q 2550 3084 2163 3084 
Q 1697 3084 1428 2787 
Q 1159 2491 1159 1978 
L 1159 0 
L 581 0 
L 581 3500 
L 1159 3500 
L 1159 2956 
Q 1366 3272 1645 3428 
Q 1925 3584 2291 3584 
Q 2894 3584 3203 3211 
Q 3513 2838 3513 2113 
z
" transform="scale(0.015625)"/>
       <path id="DejaVuSans-67" d="M 2906 1791 
Q 2906 2416 2648 2759 
Q 2391 3103 1925 3103 
Q 1463 3103 1205 2759 
Q 947 2416 947 1791 
Q 947 1169 1205 825 
Q 1463 481 1925 481 
Q 2391 481 2648 825 
Q 2906 1169 2906 1791 
z
M 3481 434 
Q 3481 -459 3084 -895 
Q 2688 -1331 1869 -1331 
Q 1566 -1331 1297 -1286 
Q 1028 -1241 775 -1147 
L 775 -588 
Q 1028 -725 1275 -790 
Q 1522 -856 1778 -856 
Q 2344 -856 2625 -561 
Q 2906 -266 2906 331 
L 2906 616 
Q 2728 306 2450 153 
Q 2172 0 1784 0 
Q 1141 0 747 490 
Q 353 981 353 1791 
Q 353 2603 747 3093 
Q 1141 3584 1784 3584 
Q 2172 3584 2450 3431 
Q 2728 3278 2906 2969 
L 2906 3500 
L 3481 3500 
L 3481 434 
z
" transform="scale(0.015625)"/>
      </defs>
      <use xlink:href="#DejaVuSans-32"/>
      <use xlink:href="#DejaVuSans-30" x="63.623047"/>
      <use xlink:href="#DejaVuSans-2d" x="127.246094"/>
      <use xlink:href="#DejaVuSans-65" x="163.330078"/>
      <use xlink:href="#DejaVuSans-70" x="224.853516"/>
      <use xlink:href="#DejaVuSans-69" x="288.330078"/>
      <use xlink:href="#DejaVuSans-73" x="316.113281"/>
      <use xlink:href="#DejaVuSans-6f" x="368.212891"/>
      <use xlink:href="#DejaVuSans-64" x="429.394531"/>
      <use xlink:href="#DejaVuSans-65" x="492.871094"/>
      <use xlink:href="#DejaVuSans-20" x="554.394531"/>
      <use xlink:href="#DejaVuSans-6d" x="586.181641"/>
      <use xlink:href="#DejaVuSans-6f" x="683.59375"/>
      <use xlink:href="#DejaVuSans-76" x="744.775391"/>
      <use xlink:href="#DejaVuSans-69" x="803.955078"/>
      <use xlink:href="#DejaVuSans-6e" x="831.738281"/>
      <use xlink:href="#DejaVuSans-67" x="895.117188"/>
      <use xlink:href="#DejaVuSans-20" x="958.59375"/>
      <use xlink:href="#DejaVuSans-61" x="990.380859"/>
      <use xlink:href="#DejaVuSans-76" x="1051.660156"/>
      <use xlink:href="#DejaVuSans-67" x="1110.839844"/>
     </g>
    </g>
   </g>
  </g>
 </g>
 <defs>
  <clipPath id="pa96d685eca">
   <rect x="42.53875" y="23.837812" width="669.6" height="332.64"/>
  </clipPath>
 </defs>
</svg>
