<?xml version="1.0" encoding="utf-8" standalone="no"?>
<!DOCTYPE svg PUBLIC "-//W3C//DTD SVG 1.1//EN"
  "http://www.w3.org/Graphics/SVG/1.1/DTD/svg11.dtd">
<svg xmlns:xlink="http://www.w3.org/1999/xlink" width="996.551562pt" height="348.753125pt" viewBox="0 0 996.551562 348.753125" xmlns="http://www.w3.org/2000/svg" version="1.1">
 <metadata>
  <rdf:RDF xmlns:dc="http://purl.org/dc/elements/1.1/" xmlns:cc="http://creativecommons.org/ns#" xmlns:rdf="http://www.w3.org/1999/02/22-rdf-syntax-ns#">
   <cc:Work>
    <dc:type rdf:resource="http://purl.org/dc/dcmitype/StillImage"/>
    <dc:date>2026-03-05T11:53:05.276490</dc:date>
    <dc:format>image/svg+xml</dc:format>
    <dc:creator>
     <cc:Agent>
      <dc:title>Matplotlib v3.7.1, https://matplotlib.org/</dc:title>
     </cc:Agent>
    </dc:creator>
   </cc:Work>
  </rdf:RDF>
 </metadata>
 <defs>
  <style type="text/css">*{stroke-linejoin: round; stroke-linecap: butt}</style>
 </defs>
 <g id="figure_1">
  <g id="patch_1">
   <path d="M 0 348.753125 
L 996.551562 348.753125 
L 996.551562 0 
L 0 0 
z
" style="fill: #ffffff"/>
  </g>
  <g id="axes_1">
   <g id="patch_2">
    <path d="M 46.051563 306.357812 
L 491.831562 306.357812 
L 491.831562 23.837812 
L 46.051563 23.837812 
z
" style="fill: #ffffff"/>
   </g>
   <g id="matplotlib.axis_1">
    <g id="xtick_1">
     <g id="line2d_1">
      <path d="M 64.985586 306.357812 
L 64.985586 23.837812 
" clip-path="url(#p971a9e1ea8)" style="fill: none; stroke: #b0b0b0; stroke-opacity: 0.3; stroke-width: 0.8; stroke-linecap: square"/>
     </g>
     <g id="line2d_2">
      <defs>
       <path id="m2a19e6486e" d="M 0 0 
L 0 3.5 
" style="stroke: #000000; stroke-width: 0.8"/>
      </defs>
      <g>
       <use xlink:href="#m2a19e6486e" x="64.985586" y="306.357812" style="stroke: #000000; stroke-width: 0.8"/>
      </g>
     </g>
     <g id="text_1">
      <!-- 0 -->
      <g transform="translate(61.168086 322.475937) scale(0.12 -0.12)">
       <defs>
        <path id="DejaVuSans-30" d="M 2034 4250 
Q 1547 4250 1301 3770 
Q 1056 3291 1056 2328 
Q 1056 1369 1301 889 
Q 1547 409 2034 409 
Q 2525 409 2770 889 
Q 3016 1369 3016 2328 
Q 3016 3291 2770 3770 
Q 2525 4250 2034 4250 
z
M 2034 4750 
Q 2819 4750 3233 4129 
Q 3647 3509 3647 2328 
Q 3647 1150 3233 529 
Q 2819 -91 2034 -91 
Q 1250 -91 836 529 
Q 422 1150 422 2328 
Q 422 3509 836 4129 
Q 1250 4750 2034 4750 
z
" transform="scale(0.015625)"/>
       </defs>
       <use xlink:href="#DejaVuSans-30"/>
      </g>
     </g>
    </g>
    <g id="xtick_2">
     <g id="line2d_3">
      <path d="M 131.420758 306.357812 
L 131.420758 23.837812 
" clip-path="url(#p971a9e1ea8)" style="fill: none; stroke: #b0b0b0; stroke-opacity: 0.3; stroke-width: 0.8; stroke-linecap: square"/>
     </g>
     <g id="line2d_4">
      <g>
       <use xlink:href="#m2a19e6486e" x="131.420758" y="306.357812" style="stroke: #000000; stroke-width: 0.8"/>
      </g>
     </g>
     <g id="text_2">
      <!-- 50 -->
      <g transform="translate(123.785758 322.475937) scale(0.12 -0.12)">
       <defs>
        <path id="DejaVuSans-35" d="M 691 4666 
L 3169 4666 
L 3169 4134 
L 1269 4134 
L 1269 2991 
Q 1406 3038 1543 3061 
Q 1681 3084 1819 3084 
Q 2600 3084 3056 2656 
Q 3513 2228 3513 1497 
Q 3513 744 3044 326 
Q 2575 -91 1722 -91 
Q 1428 -91 1123 -41 
Q 819 9 494 109 
L 494 744 
Q 775 591 1075 516 
Q 1375 441 1709 441 
Q 2250 441 2565 725 
Q 2881 1009 2881 1497 
Q 2881 1984 2565 2268 
Q 2250 2553 1709 2553 
Q 1456 2553 1204 2497 
Q 953 2441 691 2322 
L 691 4666 
z
" transform="scale(0.015625)"/>
       </defs>
       <use xlink:href="#DejaVuSans-35"/>
       <use xlink:href="#DejaVuSans-30" x="63.623047"/>
      </g>
     </g>
    </g>
    <g id="xtick_3">
     <g id="line2d_5">
      <path d="M 197.855929 306.357812 
L 197.855929 23.837812 
" clip-path="url(#p971a9e1ea8)" style="fill: none; stroke: #b0b0b0; stroke-opacity: 0.3; stroke-width: 0.8; stroke-linecap: square"/>
     </g>
     <g id="line2d_6">
      <g>
       <use xlink:href="#m2a19e6486e" x="197.855929" y="306.357812" style="stroke: #000000; stroke-width: 0.8"/>
      </g>
     </g>
     <g id="text_3">
      <!-- 100 -->
      <g transform="translate(186.403429 322.475937) scale(0.12 -0.12)">
       <defs>
        <path id="DejaVuSans-31" d="M 794 531 
L 1825 531 
L 1825 4091 
L 703 3866 
L 703 4441 
L 1819 4666 
L 2450 4666 
L 2450 531 
L 3481 531 
L 3481 0 
L 794 0 
L 794 531 
z
" transform="scale(0.015625)"/>
       </defs>
       <use xlink:href="#DejaVuSans-31"/>
       <use xlink:href="#DejaVuSans-30" x="63.623047"/>
       <use xlink:href="#DejaVuSans-30" x="127.246094"/>
      </g>
     </g>
    </g>
    <g id="xtick_4">
     <g id="line2d_7">
      <path d="M 264.291101 306.357812 
L 264.291101 23.837812 
" clip-path="url(#p971a9e1ea8)" style="fill: none; stroke: #b0b0b0; stroke-opacity: 0.3; stroke-width: 0.8; stroke-linecap: square"/>
     </g>
     <g id="line2d_8">
      <g>
       <use xlink:href="#m2a19e6486e" x="264.291101" y="306.357812" style="stroke: #000000; stroke-width: 0.8"/>
      </g>
     </g>
     <g id="text_4">
      <!-- 150 -->
      <g transform="translate(252.838601 322.475937) scale(0.12 -0.12)">
       <use xlink:href="#DejaVuSans-31"/>
       <use xlink:href="#DejaVuSans-35" x="63.623047"/>
       <use xlink:href="#DejaVuSans-30" x="127.246094"/>
      </g>
     </g>
    </g>
    <g id="xtick_5">
     <g id="line2d_9">
      <path d="M 330.726272 306.357812 
L 330.726272 23.837812 
" clip-path="url(#p971a9e1ea8)" style="fill: none; stroke: #b0b0b0; stroke-opacity: 0.3; stroke-width: 0.8; stroke-linecap: square"/>
     </g>
     <g id="line2d_10">
      <g>
       <use xlink:href="#m2a19e6486e" x="330.726272" y="306.357812" style="stroke: #000000; stroke-width: 0.8"/>
      </g>
     </g>
     <g id="text_5">
      <!-- 200 -->
      <g transform="translate(319.273772 322.475937) scale(0.12 -0.12)">
       <defs>
        <path id="DejaVuSans-32" d="M 1228 531 
L 3431 531 
L 3431 0 
L 469 0 
L 469 531 
Q 828 903 1448 1529 
Q 2069 2156 2228 2338 
Q 2531 2678 2651 2914 
Q 2772 3150 2772 3378 
Q 2772 3750 2511 3984 
Q 2250 4219 1831 4219 
Q 1534 4219 1204 4116 
Q 875 4013 500 3803 
L 500 4441 
Q 881 4594 1212 4672 
Q 1544 4750 1819 4750 
Q 2544 4750 2975 4387 
Q 3406 4025 3406 3419 
Q 3406 3131 3298 2873 
Q 3191 2616 2906 2266 
Q 2828 2175 2409 1742 
Q 1991 1309 1228 531 
z
" transform="scale(0.015625)"/>
       </defs>
       <use xlink:href="#DejaVuSans-32"/>
       <use xlink:href="#DejaVuSans-30" x="63.623047"/>
       <use xlink:href="#DejaVuSans-30" x="127.246094"/>
      </g>
     </g>
    </g>
    <g id="xtick_6">
     <g id="line2d_11">
      <path d="M 397.161443 306.357812 
L 397.161443 23.837812 
" clip-path="url(#p971a9e1ea8)" style="fill: none; stroke: #b0b0b0; stroke-opacity: 0.3; stroke-width: 0.8; stroke-linecap: square"/>
     </g>
     <g id="line2d_12">
      <g>
       <use xlink:href="#m2a19e6486e" x="397.161443" y="306.357812" style="stroke: #000000; stroke-width: 0.8"/>
      </g>
     </g>
     <g id="text_6">
      <!-- 250 -->
      <g transform="translate(385.708943 322.475937) scale(0.12 -0.12)">
       <use xlink:href="#DejaVuSans-32"/>
       <use xlink:href="#DejaVuSans-35" x="63.623047"/>
       <use xlink:href="#DejaVuSans-30" x="127.246094"/>
      </g>
     </g>
    </g>
    <g id="xtick_7">
     <g id="line2d_13">
      <path d="M 463.596615 306.357812 
L 463.596615 23.837812 
" clip-path="url(#p971a9e1ea8)" style="fill: none; stroke: #b0b0b0; stroke-opacity: 0.3; stroke-width: 0.8; stroke-linecap: square"/>
     </g>
     <g id="line2d_14">
      <g>
       <use xlink:href="#m2a19e6486e" x="463.596615" y="306.357812" style="stroke: #000000; stroke-width: 0.8"/>
      </g>
     </g>
     <g id="text_7">
      <!-- 300 -->
      <g transform="translate(452.144115 322.475937) scale(0.12 -0.12)">
       <defs>
        <path id="DejaVuSans-33" d="M 2597 2516 
Q 3050 2419 3304 2112 
Q 3559 1806 3559 1356 
Q 3559 666 3084 287 
Q 2609 -91 1734 -91 
Q 1441 -91 1130 -33 
Q 819 25 488 141 
L 488 750 
Q 750 597 1062 519 
Q 1375 441 1716 441 
Q 2309 441 2620 675 
Q 2931 909 2931 1356 
Q 2931 1769 2642 2001 
Q 2353 2234 1838 2234 
L 1294 2234 
L 1294 2753 
L 1863 2753 
Q 2328 2753 2575 2939 
Q 2822 3125 2822 3475 
Q 2822 3834 2567 4026 
Q 2313 4219 1838 4219 
Q 1578 4219 1281 4162 
Q 984 4106 628 3988 
L 628 4550 
Q 988 4650 1302 4700 
Q 1616 4750 1894 4750 
Q 2613 4750 3031 4423 
Q 3450 4097 3450 3541 
Q 3450 3153 3228 2886 
Q 3006 2619 2597 2516 
z
" transform="scale(0.015625)"/>
       </defs>
       <use xlink:href="#DejaVuSans-33"/>
       <use xlink:href="#DejaVuSans-30" x="63.623047"/>
       <use xlink:href="#DejaVuSans-30" x="127.246094"/>
      </g>
     </g>
    </g>
    <g id="text_8">
     <!-- Episode -->
     <g transform="translate(243.412812 338.849531) scale(0.13 -0.13)">
      <defs>
       <path id="DejaVuSans-45" d="M 628 4666 
L 3578 4666 
L 3578 4134 
L 1259 4134 
L 1259 2753 
L 3481 2753 
L 3481 2222 
L 1259 2222 
L 1259 531 
L 3634 531 
L 3634 0 
L 628 0 
L 628 4666 
z
" transform="scale(0.015625)"/>
       <path id="DejaVuSans-70" d="M 1159 525 
L 1159 -1331 
L 581 -1331 
L 581 3500 
L 1159 3500 
L 1159 2969 
Q 1341 3281 1617 3432 
Q 1894 3584 2278 3584 
Q 2916 3584 3314 3078 
Q 3713 2572 3713 1747 
Q 3713 922 3314 415 
Q 2916 -91 2278 -91 
Q 1894 -91 1617 61 
Q 1341 213 1159 525 
z
M 3116 1747 
Q 3116 2381 2855 2742 
Q 2594 3103 2138 3103 
Q 1681 3103 1420 2742 
Q 1159 2381 1159 1747 
Q 1159 1113 1420 752 
Q 1681 391 2138 391 
Q 2594 391 2855 752 
Q 3116 1113 3116 1747 
z
" transform="scale(0.015625)"/>
       <path id="DejaVuSans-69" d="M 603 3500 
L 1178 3500 
L 1178 0 
L 603 0 
L 603 3500 
z
M 603 4863 
L 1178 4863 
L 1178 4134 
L 603 4134 
L 603 4863 
z
" transform="scale(0.015625)"/>
       <path id="DejaVuSans-73" d="M 2834 3397 
L 2834 2853 
Q 2591 2978 2328 3040 
Q 2066 3103 1784 3103 
Q 1356 3103 1142 2972 
Q 928 2841 928 2578 
Q 928 2378 1081 2264 
Q 1234 2150 1697 2047 
L 1894 2003 
Q 2506 1872 2764 1633 
Q 3022 1394 3022 966 
Q 3022 478 2636 193 
Q 2250 -91 1575 -91 
Q 1294 -91 989 -36 
Q 684 19 347 128 
L 347 722 
Q 666 556 975 473 
Q 1284 391 1588 391 
Q 1994 391 2212 530 
Q 2431 669 2431 922 
Q 2431 1156 2273 1281 
Q 2116 1406 1581 1522 
L 1381 1569 
Q 847 1681 609 1914 
Q 372 2147 372 2553 
Q 372 3047 722 3315 
Q 1072 3584 1716 3584 
Q 2034 3584 2315 3537 
Q 2597 3491 2834 3397 
z
" transform="scale(0.015625)"/>
       <path id="DejaVuSans-6f" d="M 1959 3097 
Q 1497 3097 1228 2736 
Q 959 2375 959 1747 
Q 959 1119 1226 758 
Q 1494 397 1959 397 
Q 2419 397 2687 759 
Q 2956 1122 2956 1747 
Q 2956 2369 2687 2733 
Q 2419 3097 1959 3097 
z
M 1959 3584 
Q 2709 3584 3137 3096 
Q 3566 2609 3566 1747 
Q 3566 888 3137 398 
Q 2709 -91 1959 -91 
Q 1206 -91 779 398 
Q 353 888 353 1747 
Q 353 2609 779 3096 
Q 1206 3584 1959 3584 
z
" transform="scale(0.015625)"/>
       <path id="DejaVuSans-64" d="M 2906 2969 
L 2906 4863 
L 3481 4863 
L 3481 0 
L 2906 0 
L 2906 525 
Q 2725 213 2448 61 
Q 2172 -91 1784 -91 
Q 1150 -91 751 415 
Q 353 922 353 1747 
Q 353 2572 751 3078 
Q 1150 3584 1784 3584 
Q 2172 3584 2448 3432 
Q 2725 3281 2906 2969 
z
M 947 1747 
Q 947 1113 1208 752 
Q 1469 391 1925 391 
Q 2381 391 2643 752 
Q 2906 1113 2906 1747 
Q 2906 2381 2643 2742 
Q 2381 3103 1925 3103 
Q 1469 3103 1208 2742 
Q 947 2381 947 1747 
z
" transform="scale(0.015625)"/>
       <path id="DejaVuSans-65" d="M 3597 1894 
L 3597 1613 
L 953 1613 
Q 991 1019 1311 708 
Q 1631 397 2203 397 
Q 2534 397 2845 478 
Q 3156 559 3463 722 
L 3463 178 
Q 3153 47 2828 -22 
Q 2503 -91 2169 -91 
Q 1331 -91 842 396 
Q 353 884 353 1716 
Q 353 2575 817 3079 
Q 1281 3584 2069 3584 
Q 2775 3584 3186 3129 
Q 3597 2675 3597 1894 
z
M 3022 2063 
Q 3016 2534 2758 2815 
Q 2500 3097 2075 3097 
Q 1594 3097 1305 2825 
Q 1016 2553 972 2059 
L 3022 2063 
z
" transform="scale(0.015625)"/>
      </defs>
      <use xlink:href="#DejaVuSans-45"/>
      <use xlink:href="#DejaVuSans-70" x="63.183594"/>
      <use xlink:href="#DejaVuSans-69" x="126.660156"/>
      <use xlink:href="#DejaVuSans-73" x="154.443359"/>
      <use xlink:href="#DejaVuSans-6f" x="206.542969"/>
      <use xlink:href="#DejaVuSans-64" x="267.724609"/>
      <use xlink:href="#DejaVuSans-65" x="331.201172"/>
     </g>
    </g>
   </g>
   <g id="matplotlib.axis_2">
    <g id="ytick_1">
     <g id="line2d_15">
      <path d="M 46.051563 290.521852 
L 491.831562 290.521852 
" clip-path="url(#p971a9e1ea8)" style="fill: none; stroke: #b0b0b0; stroke-opacity: 0.3; stroke-width: 0.8; stroke-linecap: square"/>
     </g>
     <g id="line2d_16">
      <defs>
       <path id="mf8885e3fea" d="M 0 0 
L -3.5 0 
" style="stroke: #000000; stroke-width: 0.8"/>
      </defs>
      <g>
       <use xlink:href="#mf8885e3fea" x="46.051563" y="290.521852" style="stroke: #000000; stroke-width: 0.8"/>
      </g>
     </g>
     <g id="text_9">
      <!-- 60 -->
      <g transform="translate(23.781563 295.080914) scale(0.12 -0.12)">
       <defs>
        <path id="DejaVuSans-36" d="M 2113 2584 
Q 1688 2584 1439 2293 
Q 1191 2003 1191 1497 
Q 1191 994 1439 701 
Q 1688 409 2113 409 
Q 2538 409 2786 701 
Q 3034 994 3034 1497 
Q 3034 2003 2786 2293 
Q 2538 2584 2113 2584 
z
M 3366 4563 
L 3366 3988 
Q 3128 4100 2886 4159 
Q 2644 4219 2406 4219 
Q 1781 4219 1451 3797 
Q 1122 3375 1075 2522 
Q 1259 2794 1537 2939 
Q 1816 3084 2150 3084 
Q 2853 3084 3261 2657 
Q 3669 2231 3669 1497 
Q 3669 778 3244 343 
Q 2819 -91 2113 -91 
Q 1303 -91 875 529 
Q 447 1150 447 2328 
Q 447 3434 972 4092 
Q 1497 4750 2381 4750 
Q 2619 4750 2861 4703 
Q 3103 4656 3366 4563 
z
" transform="scale(0.015625)"/>
       </defs>
       <use xlink:href="#DejaVuSans-36"/>
       <use xlink:href="#DejaVuSans-30" x="63.623047"/>
      </g>
     </g>
    </g>
    <g id="ytick_2">
     <g id="line2d_17">
      <path d="M 46.051563 246.708762 
L 491.831562 246.708762 
" clip-path="url(#p971a9e1ea8)" style="fill: none; stroke: #b0b0b0; stroke-opacity: 0.3; stroke-width: 0.8; stroke-linecap: square"/>
     </g>
     <g id="line2d_18">
      <g>
       <use xlink:href="#mf8885e3fea" x="46.051563" y="246.708762" style="stroke: #000000; stroke-width: 0.8"/>
      </g>
     </g>
     <g id="text_10">
      <!-- 65 -->
      <g transform="translate(23.781563 251.267824) scale(0.12 -0.12)">
       <use xlink:href="#DejaVuSans-36"/>
       <use xlink:href="#DejaVuSans-35" x="63.623047"/>
      </g>
     </g>
    </g>
    <g id="ytick_3">
     <g id="line2d_19">
      <path d="M 46.051563 202.895672 
L 491.831562 202.895672 
" clip-path="url(#p971a9e1ea8)" style="fill: none; stroke: #b0b0b0; stroke-opacity: 0.3; stroke-width: 0.8; stroke-linecap: square"/>
     </g>
     <g id="line2d_20">
      <g>
       <use xlink:href="#mf8885e3fea" x="46.051563" y="202.895672" style="stroke: #000000; stroke-width: 0.8"/>
      </g>
     </g>
     <g id="text_11">
      <!-- 70 -->
      <g transform="translate(23.781563 207.454734) scale(0.12 -0.12)">
       <defs>
        <path id="DejaVuSans-37" d="M 525 4666 
L 3525 4666 
L 3525 4397 
L 1831 0 
L 1172 0 
L 2766 4134 
L 525 4134 
L 525 4666 
z
" transform="scale(0.015625)"/>
       </defs>
       <use xlink:href="#DejaVuSans-37"/>
       <use xlink:href="#DejaVuSans-30" x="63.623047"/>
      </g>
     </g>
    </g>
    <g id="ytick_4">
     <g id="line2d_21">
      <path d="M 46.051563 159.082582 
L 491.831562 159.082582 
" clip-path="url(#p971a9e1ea8)" style="fill: none; stroke: #b0b0b0; stroke-opacity: 0.3; stroke-width: 0.8; stroke-linecap: square"/>
     </g>
     <g id="line2d_22">
      <g>
       <use xlink:href="#mf8885e3fea" x="46.051563" y="159.082582" style="stroke: #000000; stroke-width: 0.8"/>
      </g>
     </g>
     <g id="text_12">
      <!-- 75 -->
      <g transform="translate(23.781563 163.641644) scale(0.12 -0.12)">
       <use xlink:href="#DejaVuSans-37"/>
       <use xlink:href="#DejaVuSans-35" x="63.623047"/>
      </g>
     </g>
    </g>
    <g id="ytick_5">
     <g id="line2d_23">
      <path d="M 46.051563 115.269492 
L 491.831562 115.269492 
" clip-path="url(#p971a9e1ea8)" style="fill: none; stroke: #b0b0b0; stroke-opacity: 0.3; stroke-width: 0.8; stroke-linecap: square"/>
     </g>
     <g id="line2d_24">
      <g>
       <use xlink:href="#mf8885e3fea" x="46.051563" y="115.269492" style="stroke: #000000; stroke-width: 0.8"/>
      </g>
     </g>
     <g id="text_13">
      <!-- 80 -->
      <g transform="translate(23.781563 119.828555) scale(0.12 -0.12)">
       <defs>
        <path id="DejaVuSans-38" d="M 2034 2216 
Q 1584 2216 1326 1975 
Q 1069 1734 1069 1313 
Q 1069 891 1326 650 
Q 1584 409 2034 409 
Q 2484 409 2743 651 
Q 3003 894 3003 1313 
Q 3003 1734 2745 1975 
Q 2488 2216 2034 2216 
z
M 1403 2484 
Q 997 2584 770 2862 
Q 544 3141 544 3541 
Q 544 4100 942 4425 
Q 1341 4750 2034 4750 
Q 2731 4750 3128 4425 
Q 3525 4100 3525 3541 
Q 3525 3141 3298 2862 
Q 3072 2584 2669 2484 
Q 3125 2378 3379 2068 
Q 3634 1759 3634 1313 
Q 3634 634 3220 271 
Q 2806 -91 2034 -91 
Q 1263 -91 848 271 
Q 434 634 434 1313 
Q 434 1759 690 2068 
Q 947 2378 1403 2484 
z
M 1172 3481 
Q 1172 3119 1398 2916 
Q 1625 2713 2034 2713 
Q 2441 2713 2670 2916 
Q 2900 3119 2900 3481 
Q 2900 3844 2670 4047 
Q 2441 4250 2034 4250 
Q 1625 4250 1398 4047 
Q 1172 3844 1172 3481 
z
" transform="scale(0.015625)"/>
       </defs>
       <use xlink:href="#DejaVuSans-38"/>
       <use xlink:href="#DejaVuSans-30" x="63.623047"/>
      </g>
     </g>
    </g>
    <g id="ytick_6">
     <g id="line2d_25">
      <path d="M 46.051563 71.456402 
L 491.831562 71.456402 
" clip-path="url(#p971a9e1ea8)" style="fill: none; stroke: #b0b0b0; stroke-opacity: 0.3; stroke-width: 0.8; stroke-linecap: square"/>
     </g>
     <g id="line2d_26">
      <g>
       <use xlink:href="#mf8885e3fea" x="46.051563" y="71.456402" style="stroke: #000000; stroke-width: 0.8"/>
      </g>
     </g>
     <g id="text_14">
      <!-- 85 -->
      <g transform="translate(23.781563 76.015465) scale(0.12 -0.12)">
       <use xlink:href="#DejaVuSans-38"/>
       <use xlink:href="#DejaVuSans-35" x="63.623047"/>
      </g>
     </g>
    </g>
    <g id="ytick_7">
     <g id="line2d_27">
      <path d="M 46.051563 27.643312 
L 491.831562 27.643312 
" clip-path="url(#p971a9e1ea8)" style="fill: none; stroke: #b0b0b0; stroke-opacity: 0.3; stroke-width: 0.8; stroke-linecap: square"/>
     </g>
     <g id="line2d_28">
      <g>
       <use xlink:href="#mf8885e3fea" x="46.051563" y="27.643312" style="stroke: #000000; stroke-width: 0.8"/>
      </g>
     </g>
     <g id="text_15">
      <!-- 90 -->
      <g transform="translate(23.781563 32.202375) scale(0.12 -0.12)">
       <defs>
        <path id="DejaVuSans-39" d="M 703 97 
L 703 672 
Q 941 559 1184 500 
Q 1428 441 1663 441 
Q 2288 441 2617 861 
Q 2947 1281 2994 2138 
Q 2813 1869 2534 1725 
Q 2256 1581 1919 1581 
Q 1219 1581 811 2004 
Q 403 2428 403 3163 
Q 403 3881 828 4315 
Q 1253 4750 1959 4750 
Q 2769 4750 3195 4129 
Q 3622 3509 3622 2328 
Q 3622 1225 3098 567 
Q 2575 -91 1691 -91 
Q 1453 -91 1209 -44 
Q 966 3 703 97 
z
M 1959 2075 
Q 2384 2075 2632 2365 
Q 2881 2656 2881 3163 
Q 2881 3666 2632 3958 
Q 2384 4250 1959 4250 
Q 1534 4250 1286 3958 
Q 1038 3666 1038 3163 
Q 1038 2656 1286 2365 
Q 1534 2075 1959 2075 
z
" transform="scale(0.015625)"/>
       </defs>
       <use xlink:href="#DejaVuSans-39"/>
       <use xlink:href="#DejaVuSans-30" x="63.623047"/>
      </g>
     </g>
    </g>
    <g id="text_16">
     <!-- Total Reward -->
     <g transform="translate(17.077969 206.550547) rotate(-90) scale(0.13 -0.13)">
      <defs>
       <path id="DejaVuSans-54" d="M -19 4666 
L 3928 4666 
L 3928 4134 
L 2272 4134 
L 2272 0 
L 1638 0 
L 1638 4134 
L -19 4134 
L -19 4666 
z
" transform="scale(0.015625)"/>
       <path id="DejaVuSans-74" d="M 1172 4494 
L 1172 3500 
L 2356 3500 
L 2356 3053 
L 1172 3053 
L 1172 1153 
Q 1172 725 1289 603 
Q 1406 481 1766 481 
L 2356 481 
L 2356 0 
L 1766 0 
Q 1100 0 847 248 
Q 594 497 594 1153 
L 594 3053 
L 172 3053 
L 172 3500 
L 594 3500 
L 594 4494 
L 1172 4494 
z
" transform="scale(0.015625)"/>
       <path id="DejaVuSans-61" d="M 2194 1759 
Q 1497 1759 1228 1600 
Q 959 1441 959 1056 
Q 959 750 1161 570 
Q 1363 391 1709 391 
Q 2188 391 2477 730 
Q 2766 1069 2766 1631 
L 2766 1759 
L 2194 1759 
z
M 3341 1997 
L 3341 0 
L 2766 0 
L 2766 531 
Q 2569 213 2275 61 
Q 1981 -91 1556 -91 
Q 1019 -91 701 211 
Q 384 513 384 1019 
Q 384 1609 779 1909 
Q 1175 2209 1959 2209 
L 2766 2209 
L 2766 2266 
Q 2766 2663 2505 2880 
Q 2244 3097 1772 3097 
Q 1472 3097 1187 3025 
Q 903 2953 641 2809 
L 641 3341 
Q 956 3463 1253 3523 
Q 1550 3584 1831 3584 
Q 2591 3584 2966 3190 
Q 3341 2797 3341 1997 
z
" transform="scale(0.015625)"/>
       <path id="DejaVuSans-6c" d="M 603 4863 
L 1178 4863 
L 1178 0 
L 603 0 
L 603 4863 
z
" transform="scale(0.015625)"/>
       <path id="DejaVuSans-20" transform="scale(0.015625)"/>
       <path id="DejaVuSans-52" d="M 2841 2188 
Q 3044 2119 3236 1894 
Q 3428 1669 3622 1275 
L 4263 0 
L 3584 0 
L 2988 1197 
Q 2756 1666 2539 1819 
Q 2322 1972 1947 1972 
L 1259 1972 
L 1259 0 
L 628 0 
L 628 4666 
L 2053 4666 
Q 2853 4666 3247 4331 
Q 3641 3997 3641 3322 
Q 3641 2881 3436 2590 
Q 3231 2300 2841 2188 
z
M 1259 4147 
L 1259 2491 
L 2053 2491 
Q 2509 2491 2742 2702 
Q 2975 2913 2975 3322 
Q 2975 3731 2742 3939 
Q 2509 4147 2053 4147 
L 1259 4147 
z
" transform="scale(0.015625)"/>
       <path id="DejaVuSans-77" d="M 269 3500 
L 844 3500 
L 1563 769 
L 2278 3500 
L 2956 3500 
L 3675 769 
L 4391 3500 
L 4966 3500 
L 4050 0 
L 3372 0 
L 2619 2869 
L 1863 0 
L 1184 0 
L 269 3500 
z
" transform="scale(0.015625)"/>
       <path id="DejaVuSans-72" d="M 2631 2963 
Q 2534 3019 2420 3045 
Q 2306 3072 2169 3072 
Q 1681 3072 1420 2755 
Q 1159 2438 1159 1844 
L 1159 0 
L 581 0 
L 581 3500 
L 1159 3500 
L 1159 2956 
Q 1341 3275 1631 3429 
Q 1922 3584 2338 3584 
Q 2397 3584 2469 3576 
Q 2541 3569 2628 3553 
L 2631 2963 
z
" transform="scale(0.015625)"/>
      </defs>
      <use xlink:href="#DejaVuSans-54"/>
      <use xlink:href="#DejaVuSans-6f" x="44.083984"/>
      <use xlink:href="#DejaVuSans-74" x="105.265625"/>
      <use xlink:href="#DejaVuSans-61" x="144.474609"/>
      <use xlink:href="#DejaVuSans-6c" x="205.753906"/>
      <use xlink:href="#DejaVuSans-20" x="233.537109"/>
      <use xlink:href="#DejaVuSans-52" x="265.324219"/>
      <use xlink:href="#DejaVuSans-65" x="330.306641"/>
      <use xlink:href="#DejaVuSans-77" x="391.830078"/>
      <use xlink:href="#DejaVuSans-61" x="473.617188"/>
      <use xlink:href="#DejaVuSans-72" x="534.896484"/>
      <use xlink:href="#DejaVuSans-64" x="574.259766"/>
     </g>
    </g>
   </g>
   <g id="line2d_29">
    <path d="M 66.31429 242.175325 
L 67.642993 263.402224 
L 68.971697 186.048496 
L 70.3004 194.762885 
L 71.629103 210.063239 
L 74.28651 171.13714 
L 75.615214 193.017792 
L 76.943917 252.486823 
L 78.272621 236.182974 
L 79.601324 273.213324 
L 80.930027 249.874906 
L 82.258731 222.38327 
L 83.587434 199.48194 
L 84.916138 224.433898 
L 86.244841 212.122139 
L 87.573545 203.495596 
L 88.902248 239.556879 
L 90.230951 253.295385 
L 91.559655 218.208198 
L 92.888358 204.983488 
L 94.217062 211.718848 
L 95.545765 222.322282 
L 96.874469 197.593131 
L 98.203172 187.567995 
L 99.531875 244.774046 
L 100.860579 217.081606 
L 102.189282 214.079533 
L 103.517986 236.902919 
L 104.846689 217.181289 
L 106.175393 204.500081 
L 107.504096 221.564464 
L 108.832799 245.679978 
L 110.161503 244.270292 
L 111.490206 273.445095 
L 112.81891 201.457481 
L 114.147613 225.453262 
L 115.476317 182.72416 
L 116.80502 178.87164 
L 118.133723 181.761657 
L 119.462427 267.49491 
L 120.79113 196.562376 
L 122.119834 249.246801 
L 123.448537 231.209785 
L 124.777241 196.056335 
L 126.105944 190.010829 
L 127.434647 169.093724 
L 128.763351 230.154538 
L 130.092054 282.242781 
L 131.420758 224.230999 
L 132.749461 251.691843 
L 134.078165 221.923907 
L 135.406868 206.896745 
L 136.735571 183.846284 
L 138.064275 221.700662 
L 139.392978 203.875341 
L 140.721682 237.049062 
L 142.050385 210.496183 
L 143.379089 195.867465 
L 144.707792 220.67526 
L 146.036495 172.957241 
L 147.365199 195.542337 
L 148.693902 254.565605 
L 150.022606 184.709726 
L 151.351309 189.94829 
L 152.680013 213.880428 
L 154.008716 207.100966 
L 155.337419 185.906419 
L 156.666123 213.825776 
L 157.994826 270.292875 
L 159.32353 202.707153 
L 160.652233 209.822355 
L 161.980937 293.515994 
L 163.30964 200.134799 
L 164.638343 210.251101 
L 165.967047 202.910691 
L 167.29575 180.283684 
L 168.624454 167.066063 
L 169.953157 207.378443 
L 171.281861 220.064795 
L 172.610564 221.761238 
L 173.939267 127.033114 
L 175.267971 226.068187 
L 176.596674 205.801768 
L 177.925378 214.314143 
L 179.254081 239.581905 
L 180.582785 166.44 
L 181.911488 213.210859 
L 183.240191 197.190524 
L 184.568895 189.631127 
L 185.897598 164.424335 
L 187.226302 191.681895 
L 188.555005 133.661649 
L 189.883709 217.898527 
L 191.212412 203.144399 
L 192.541115 252.729372 
L 193.869819 142.943058 
L 195.198522 211.789676 
L 196.527226 257.663901 
L 197.855929 245.217014 
L 199.184633 168.375268 
L 200.513336 211.285099 
L 201.842039 214.956951 
L 203.170743 200.08763 
L 204.499446 217.200006 
L 205.82815 181.641039 
L 207.156853 183.300486 
L 208.485557 213.227254 
L 209.81426 180.906171 
L 211.142963 240.814815 
L 212.471667 234.363144 
L 213.80037 128.435553 
L 215.129074 200.002299 
L 216.457777 187.819903 
L 217.786481 186.655868 
L 219.115184 182.913223 
L 220.443887 155.882544 
L 221.772591 278.515952 
L 223.101294 195.704261 
L 224.429998 189.996897 
L 225.758701 185.461085 
L 227.087405 191.684183 
L 228.416108 235.81355 
L 229.744811 198.006832 
L 231.073515 177.823254 
L 232.402218 194.086936 
L 233.730922 201.752159 
L 235.059625 201.303592 
L 236.388329 181.677352 
L 237.717032 196.975305 
L 239.045735 132.693178 
L 240.374439 231.357829 
L 241.703142 134.402555 
L 243.031846 150.608272 
L 244.360549 260.751251 
L 245.689253 182.337913 
L 247.017956 203.317495 
L 248.346659 207.405958 
L 249.675363 174.246862 
L 251.004066 135.771845 
L 252.33277 203.520762 
L 254.990177 160.645439 
L 256.31888 146.907371 
L 257.647583 154.176638 
L 258.976287 208.166439 
L 260.30499 174.919849 
L 261.633694 209.10963 
L 262.962397 155.890667 
L 264.291101 267.035485 
L 265.619804 167.548629 
L 266.948507 108.672608 
L 268.277211 190.562015 
L 269.605914 162.189307 
L 270.934618 140.607881 
L 272.263321 148.324094 
L 273.592024 139.119551 
L 274.920728 140.524006 
L 276.249431 173.722603 
L 277.578135 237.422761 
L 278.906838 201.835903 
L 281.564245 220.465439 
L 282.892948 210.563926 
L 284.221652 173.198634 
L 285.550355 202.187538 
L 286.879059 203.726088 
L 288.207762 135.594384 
L 289.536466 174.695403 
L 290.865169 251.69477 
L 292.193872 207.248204 
L 293.522576 189.591862 
L 294.851279 210.100726 
L 296.179983 180.577433 
L 297.508686 202.256824 
L 298.83739 207.091354 
L 300.166093 165.978499 
L 301.494796 146.833651 
L 302.8235 144.32218 
L 304.152203 208.251927 
L 305.480907 187.505194 
L 306.80961 147.470404 
L 308.138314 159.055392 
L 309.467017 213.705973 
L 310.79572 126.834667 
L 312.124424 166.857819 
L 313.453127 180.846918 
L 314.781831 181.728429 
L 316.110534 162.487972 
L 317.439238 139.194769 
L 318.767941 223.234786 
L 320.096644 240.425702 
L 321.425348 134.965465 
L 322.754051 180.635249 
L 324.082755 249.925843 
L 325.411458 112.043771 
L 326.740162 78.620833 
L 328.068865 177.356531 
L 329.397568 185.545688 
L 330.726272 168.287274 
L 332.054975 166.294804 
L 333.383679 131.604519 
L 334.712382 213.934196 
L 336.041086 103.76605 
L 337.369789 202.393688 
L 338.698492 140.393618 
L 340.027196 187.015284 
L 341.355899 103.594346 
L 342.684603 164.308011 
L 344.013306 165.801337 
L 345.34201 103.099083 
L 346.670713 119.328065 
L 347.999416 88.273496 
L 349.32812 123.900864 
L 350.656823 112.631927 
L 351.985527 195.970531 
L 353.31423 227.600997 
L 354.642934 181.941536 
L 355.971637 163.882516 
L 357.30034 153.105066 
L 358.629044 166.603572 
L 359.957747 97.382711 
L 361.286451 85.640347 
L 362.615154 107.260582 
L 363.943858 175.487333 
L 365.272561 167.964389 
L 366.601264 230.767895 
L 367.929968 188.715811 
L 369.258671 138.998933 
L 370.587375 140.096355 
L 371.916078 270.743475 
L 373.244782 152.298773 
L 374.573485 243.899247 
L 375.902188 142.116865 
L 377.230892 142.217268 
L 378.559595 108.52841 
L 379.888299 269.172688 
L 381.217002 120.146204 
L 382.545706 69.40191 
L 383.874409 183.301196 
L 385.203112 135.5003 
L 386.531816 148.145179 
L 387.860519 234.066714 
L 389.189223 113.546621 
L 390.517926 49.179882 
L 391.84663 145.802107 
L 393.175333 167.870682 
L 394.504036 112.991667 
L 395.83274 102.076013 
L 397.161443 125.820254 
L 398.490147 185.813228 
L 399.81885 109.389802 
L 401.147554 138.251254 
L 402.476257 73.45611 
L 403.80496 168.42568 
L 405.133664 122.998489 
L 406.462367 143.548353 
L 409.119774 178.010056 
L 410.448478 168.650826 
L 411.777181 169.545411 
L 413.105884 151.535234 
L 414.434588 58.428878 
L 415.763291 113.680628 
L 417.091995 192.718785 
L 418.420698 122.690764 
L 419.749402 134.058298 
L 421.078105 150.648615 
L 422.406808 137.462864 
L 423.735512 176.309705 
L 425.064215 171.501157 
L 426.392919 203.861409 
L 427.721622 78.504938 
L 429.050326 73.765343 
L 430.379029 235.471808 
L 431.707732 36.679631 
L 433.036436 179.28804 
L 434.365139 173.169551 
L 435.693843 136.329156 
L 437.022546 139.325052 
L 438.35125 119.563008 
L 439.679953 54.040462 
L 441.008656 255.026677 
L 442.33736 154.733344 
L 443.666063 181.466181 
L 444.994767 101.386622 
L 446.32347 119.040047 
L 447.652174 165.33478 
L 448.980877 74.717814 
L 450.30958 147.628061 
L 451.638284 120.796233 
L 452.966987 165.769502 
L 454.295691 145.220252 
L 455.624394 212.835066 
L 456.953098 114.428675 
L 458.281801 189.193356 
L 459.610504 155.420281 
L 460.939208 248.191432 
L 462.267911 167.40069 
L 463.596615 146.736237 
L 464.925318 177.770425 
L 466.254022 190.416556 
L 467.582725 183.161161 
L 468.911428 211.232611 
L 470.240132 89.237708 
L 471.568835 175.565084 
L 471.568835 175.565084 
" clip-path="url(#p971a9e1ea8)" style="fill: none; stroke: #2196f3; stroke-opacity: 0.3; stroke-width: 0.8; stroke-linecap: square"/>
   </g>
   <g id="line2d_30">
    <path d="M 66.31429 242.175325 
L 67.642993 244.196934 
L 68.971697 238.658988 
L 70.3004 234.478407 
L 71.629103 232.153153 
L 72.957807 228.212559 
L 74.28651 222.776805 
L 75.615214 219.942613 
L 76.943917 223.042062 
L 78.272621 224.293577 
L 79.601324 228.9526 
L 80.930027 230.945201 
L 82.258731 230.129779 
L 83.587434 227.210937 
L 84.916138 226.946457 
L 86.244841 225.534617 
L 87.573545 223.435663 
L 88.902248 224.971017 
L 90.230951 227.668576 
L 91.559655 226.767587 
L 92.888358 224.692911 
L 94.217062 223.457286 
L 95.545765 223.349191 
L 96.874469 220.896233 
L 98.203172 217.722115 
L 99.531875 220.298489 
L 100.860579 219.992119 
L 102.189282 219.429016 
L 103.517986 221.093197 
L 104.846689 220.720634 
L 106.175393 219.17582 
L 107.504096 219.40331 
L 108.832799 221.90585 
L 110.161503 224.035796 
L 111.490206 228.741444 
L 112.81891 226.142971 
L 114.147613 226.077285 
L 116.80502 217.845866 
L 118.133723 214.409274 
L 119.462427 219.465049 
L 120.79113 217.283842 
L 122.119834 220.327933 
L 123.448537 221.3643 
L 124.777241 218.954018 
L 126.105944 216.197524 
L 127.434647 211.711447 
L 128.763351 213.467932 
L 130.092054 220.017918 
L 131.420758 220.419164 
L 132.749461 223.397514 
L 134.078165 223.257171 
L 135.406868 221.699035 
L 136.735571 218.094011 
L 138.064275 218.437501 
L 139.392978 217.050629 
L 140.721682 218.955242 
L 142.050385 218.149617 
L 143.379089 216.027507 
L 144.707792 216.47015 
L 146.036495 212.326064 
L 147.365199 210.727614 
L 148.693902 214.902661 
L 150.022606 212.027143 
L 151.351309 209.924395 
L 152.680013 210.30116 
L 154.008716 209.99638 
L 155.337419 207.702098 
L 156.666123 208.285305 
L 157.994826 214.190788 
L 159.32353 213.097108 
L 160.652233 212.785227 
L 161.980937 220.473872 
L 163.30964 218.536817 
L 164.638343 217.747701 
L 165.967047 216.334653 
L 167.29575 212.901227 
L 168.624454 208.535973 
L 169.953157 208.425732 
L 172.610564 210.698693 
L 173.939267 202.730543 
L 175.267971 204.953175 
L 176.596674 205.033994 
L 177.925378 205.917817 
L 179.254081 209.123921 
L 180.582785 205.058786 
L 181.911488 205.835174 
L 183.240191 205.011874 
L 184.568895 203.547041 
L 185.897598 199.821069 
L 187.226302 199.045909 
L 188.555005 192.818837 
L 189.883709 195.207379 
L 191.212412 195.963286 
L 192.541115 201.36958 
L 193.869819 195.805149 
L 195.198522 197.327485 
L 196.527226 203.07381 
L 197.855929 207.087449 
L 199.184633 203.400574 
L 200.513336 204.151481 
L 201.842039 205.180574 
L 203.170743 204.695531 
L 204.499446 205.886434 
L 205.82815 203.577349 
L 207.156853 201.646219 
L 208.485557 202.749175 
L 209.81426 200.668889 
L 211.142963 204.49231 
L 212.471667 207.337151 
L 213.80037 199.822714 
L 215.129074 199.839817 
L 217.786481 197.548473 
L 219.115184 196.15464 
L 220.443887 192.319202 
L 221.772591 200.528416 
L 223.101294 200.068973 
L 224.429998 199.109728 
L 225.758701 197.809857 
L 227.087405 197.226459 
L 228.416108 200.90142 
L 229.744811 200.625745 
L 231.073515 198.45408 
L 232.402218 198.038161 
L 235.059625 198.669182 
L 236.388329 197.050912 
L 237.717032 197.043711 
L 239.045735 190.915089 
L 240.374439 194.766779 
L 241.703142 189.017805 
L 243.031846 185.359754 
L 244.360549 192.539897 
L 245.689253 191.568279 
L 247.017956 192.687252 
L 248.346659 194.089034 
L 249.675363 192.199303 
L 251.004066 186.825259 
L 252.33277 188.415307 
L 253.661473 187.766872 
L 254.990177 185.183878 
L 256.31888 181.538496 
L 257.647583 178.932605 
L 258.976287 181.71678 
L 260.30499 181.069453 
L 261.633694 183.739946 
L 262.962397 181.087634 
L 264.291101 189.273143 
L 265.619804 187.204142 
L 266.948507 179.724948 
L 268.277211 180.75705 
L 269.605914 178.988693 
L 270.934618 175.333378 
L 272.263321 172.761065 
L 273.592024 169.557111 
L 274.920728 166.792054 
L 276.249431 167.452106 
L 277.578135 174.115978 
L 278.906838 176.755971 
L 280.235542 180.000589 
L 281.564245 183.854384 
L 282.892948 186.39815 
L 284.221652 185.141053 
L 286.879059 188.379915 
L 288.207762 183.352721 
L 289.536466 182.528215 
L 290.865169 189.115506 
L 292.193872 190.842429 
L 293.522576 190.723328 
L 294.851279 192.568794 
L 296.179983 191.42676 
L 297.508686 192.458194 
L 298.83739 193.851829 
L 300.166093 191.197226 
L 302.8235 182.910224 
L 304.152203 185.32372 
L 305.480907 185.531479 
L 306.80961 181.906615 
L 308.138314 179.730308 
L 309.467017 182.966086 
L 310.79572 177.620236 
L 312.124424 176.595244 
L 314.781831 177.450476 
L 316.110534 176.025476 
L 317.439238 172.517789 
L 318.767941 177.34798 
L 320.096644 183.355382 
L 321.425348 178.746818 
L 322.754051 178.926669 
L 324.082755 185.688495 
L 325.411458 178.674712 
L 326.740162 169.145771 
L 328.068865 169.927748 
L 329.397568 171.415171 
L 330.726272 171.117276 
L 332.054975 170.657993 
L 333.383679 166.938614 
L 334.712382 171.414384 
L 336.041086 164.971686 
L 337.369789 168.535686 
L 338.698492 165.855489 
L 340.027196 167.870707 
L 341.355899 161.749149 
L 342.684603 161.99285 
L 344.013306 162.355563 
L 345.34201 156.712089 
L 346.670713 153.151706 
L 347.999416 146.972829 
L 349.32812 144.775499 
L 350.656823 141.714206 
L 351.985527 146.881475 
L 353.31423 154.569049 
L 354.642934 157.175952 
L 355.971637 157.814673 
L 357.30034 157.366139 
L 358.629044 158.245894 
L 359.957747 152.4494 
L 361.286451 146.086633 
L 362.615154 142.388914 
L 363.943858 145.541145 
L 365.272561 147.676692 
L 366.601264 155.59014 
L 367.929968 158.744965 
L 369.258671 156.864391 
L 370.587375 155.267435 
L 371.916078 166.265153 
L 373.244782 164.935022 
L 374.573485 172.455424 
L 375.902188 169.566038 
L 377.230892 166.961393 
L 378.559595 161.396347 
L 379.888299 171.66076 
L 381.217002 166.754612 
L 382.545706 157.482926 
L 383.874409 159.941809 
L 385.203112 157.614046 
L 386.531816 156.712249 
L 387.860519 164.079341 
L 389.189223 159.266701 
L 390.517926 148.782242 
L 391.84663 148.49842 
L 393.175333 150.343397 
L 394.504036 146.78609 
L 395.83274 142.527987 
L 397.161443 140.936774 
L 398.490147 145.210722 
L 399.81885 141.799206 
L 401.147554 141.461306 
L 402.476257 134.984621 
L 403.80496 138.169483 
L 405.133664 136.724627 
L 406.462367 137.374505 
L 407.791071 139.662661 
L 409.119774 143.314794 
L 411.777181 147.996098 
L 413.105884 148.333158 
L 414.434588 139.770846 
L 415.763291 137.286063 
L 417.091995 142.56537 
L 418.420698 140.67255 
L 419.749402 140.042622 
L 421.078105 141.052716 
L 422.406808 140.710825 
L 423.735512 144.101195 
L 425.064215 146.710715 
L 426.392919 152.153638 
L 429.050326 138.34194 
L 430.379029 147.592404 
L 431.707732 137.029282 
L 433.036436 141.053926 
L 434.365139 144.112557 
L 435.693843 143.371281 
L 437.022546 142.985925 
L 438.35125 140.755171 
L 439.679953 132.496628 
L 441.008656 144.166156 
L 442.33736 145.172555 
L 443.666063 148.629091 
L 444.994767 144.129808 
L 446.32347 141.740307 
L 447.652174 143.9874 
L 448.980877 137.390296 
L 450.30958 138.365322 
L 451.638284 136.692075 
L 452.966987 139.461354 
L 454.295691 140.00982 
L 455.624394 146.945558 
L 456.953098 143.848712 
L 458.281801 148.167249 
L 459.610504 148.858014 
L 460.939208 158.31834 
L 462.267911 159.183326 
L 463.596615 157.997889 
L 464.925318 159.880987 
L 466.254022 162.789137 
L 467.582725 164.729329 
L 468.911428 169.158213 
L 470.240132 161.546737 
L 471.568835 162.881817 
L 471.568835 162.881817 
" clip-path="url(#p971a9e1ea8)" style="fill: none; stroke: #2196f3; stroke-width: 2; stroke-linecap: square"/>
   </g>
   <g id="patch_3">
    <path d="M 46.051563 306.357812 
L 46.051563 23.837812 
" style="fill: none; stroke: #000000; stroke-width: 0.8; stroke-linejoin: miter; stroke-linecap: square"/>
   </g>
   <g id="patch_4">
    <path d="M 491.831562 306.357812 
L 491.831562 23.837812 
" style="fill: none; stroke: #000000; stroke-width: 0.8; stroke-linejoin: miter; stroke-linecap: square"/>
   </g>
   <g id="patch_5">
    <path d="M 46.051563 306.357812 
L 491.831562 306.357812 
" style="fill: none; stroke: #000000; stroke-width: 0.8; stroke-linejoin: miter; stroke-linecap: square"/>
   </g>
   <g id="patch_6">
    <path d="M 46.051563 23.837812 
L 491.831562 23.837812 
" style="fill: none; stroke: #000000; stroke-width: 0.8; stroke-linejoin: miter; stroke-linecap: square"/>
   </g>
   <g id="text_17">
    <!-- DQN Episode Rewards -->
    <g transform="translate(191.146406 17.837812) scale(0.14 -0.14)">
     <defs>
      <path id="DejaVuSans-44" d="M 1259 4147 
L 1259 519 
L 2022 519 
Q 2988 519 3436 956 
Q 3884 1394 3884 2338 
Q 3884 3275 3436 3711 
Q 2988 4147 2022 4147 
L 1259 4147 
z
M 628 4666 
L 1925 4666 
Q 3281 4666 3915 4102 
Q 4550 3538 4550 2338 
Q 4550 1131 3912 565 
Q 3275 0 1925 0 
L 628 0 
L 628 4666 
z
" transform="scale(0.015625)"/>
      <path id="DejaVuSans-51" d="M 2522 4238 
Q 1834 4238 1429 3725 
Q 1025 3213 1025 2328 
Q 1025 1447 1429 934 
Q 1834 422 2522 422 
Q 3209 422 3611 934 
Q 4013 1447 4013 2328 
Q 4013 3213 3611 3725 
Q 3209 4238 2522 4238 
z
M 3406 84 
L 4238 -825 
L 3475 -825 
L 2784 -78 
Q 2681 -84 2626 -87 
Q 2572 -91 2522 -91 
Q 1538 -91 948 567 
Q 359 1225 359 2328 
Q 359 3434 948 4092 
Q 1538 4750 2522 4750 
Q 3503 4750 4090 4092 
Q 4678 3434 4678 2328 
Q 4678 1516 4351 937 
Q 4025 359 3406 84 
z
" transform="scale(0.015625)"/>
      <path id="DejaVuSans-4e" d="M 628 4666 
L 1478 4666 
L 3547 763 
L 3547 4666 
L 4159 4666 
L 4159 0 
L 3309 0 
L 1241 3903 
L 1241 0 
L 628 0 
L 628 4666 
z
" transform="scale(0.015625)"/>
     </defs>
     <use xlink:href="#DejaVuSans-44"/>
     <use xlink:href="#DejaVuSans-51" x="77.001953"/>
     <use xlink:href="#DejaVuSans-4e" x="155.712891"/>
     <use xlink:href="#DejaVuSans-20" x="230.517578"/>
     <use xlink:href="#DejaVuSans-45" x="262.304688"/>
     <use xlink:href="#DejaVuSans-70" x="325.488281"/>
     <use xlink:href="#DejaVuSans-69" x="388.964844"/>
     <use xlink:href="#DejaVuSans-73" x="416.748047"/>
     <use xlink:href="#DejaVuSans-6f" x="468.847656"/>
     <use xlink:href="#DejaVuSans-64" x="530.029297"/>
     <use xlink:href="#DejaVuSans-65" x="593.505859"/>
     <use xlink:href="#DejaVuSans-20" x="655.029297"/>
     <use xlink:href="#DejaVuSans-52" x="686.816406"/>
     <use xlink:href="#DejaVuSans-65" x="751.798828"/>
     <use xlink:href="#DejaVuSans-77" x="813.322266"/>
     <use xlink:href="#DejaVuSans-61" x="895.109375"/>
     <use xlink:href="#DejaVuSans-72" x="956.388672"/>
     <use xlink:href="#DejaVuSans-64" x="995.751953"/>
     <use xlink:href="#DejaVuSans-73" x="1059.228516"/>
    </g>
   </g>
   <g id="legend_1">
    <g id="patch_7">
     <path d="M 53.751563 64.929687 
L 130.636406 64.929687 
Q 132.836406 64.929687 132.836406 62.729687 
L 132.836406 31.537812 
Q 132.836406 29.337812 130.636406 29.337812 
L 53.751563 29.337812 
Q 51.551563 29.337812 51.551563 31.537812 
L 51.551563 62.729687 
Q 51.551563 64.929687 53.751563 64.929687 
z
" style="fill: #ffffff; opacity: 0.8; stroke: #cccccc; stroke-linejoin: miter"/>
    </g>
    <g id="line2d_31">
     <path d="M 55.951563 38.246094 
L 66.951562 38.246094 
L 77.951562 38.246094 
" style="fill: none; stroke: #2196f3; stroke-opacity: 0.3; stroke-width: 0.8; stroke-linecap: square"/>
    </g>
    <g id="text_18">
     <!-- Raw -->
     <g transform="translate(86.751563 42.096094) scale(0.11 -0.11)">
      <use xlink:href="#DejaVuSans-52"/>
      <use xlink:href="#DejaVuSans-61" x="67.232422"/>
      <use xlink:href="#DejaVuSans-77" x="128.511719"/>
     </g>
    </g>
    <g id="line2d_32">
     <path d="M 55.951563 54.392031 
L 66.951562 54.392031 
L 77.951562 54.392031 
" style="fill: none; stroke: #2196f3; stroke-width: 2; stroke-linecap: square"/>
    </g>
    <g id="text_19">
     <!-- EMA-20 -->
     <g transform="translate(86.751563 58.242031) scale(0.11 -0.11)">
      <defs>
       <path id="DejaVuSans-4d" d="M 628 4666 
L 1569 4666 
L 2759 1491 
L 3956 4666 
L 4897 4666 
L 4897 0 
L 4281 0 
L 4281 4097 
L 3078 897 
L 2444 897 
L 1241 4097 
L 1241 0 
L 628 0 
L 628 4666 
z
" transform="scale(0.015625)"/>
       <path id="DejaVuSans-41" d="M 2188 4044 
L 1331 1722 
L 3047 1722 
L 2188 4044 
z
M 1831 4666 
L 2547 4666 
L 4325 0 
L 3669 0 
L 3244 1197 
L 1141 1197 
L 716 0 
L 50 0 
L 1831 4666 
z
" transform="scale(0.015625)"/>
       <path id="DejaVuSans-2d" d="M 313 2009 
L 1997 2009 
L 1997 1497 
L 313 1497 
L 313 2009 
z
" transform="scale(0.015625)"/>
      </defs>
      <use xlink:href="#DejaVuSans-45"/>
      <use xlink:href="#DejaVuSans-4d" x="63.183594"/>
      <use xlink:href="#DejaVuSans-41" x="149.462891"/>
      <use xlink:href="#DejaVuSans-2d" x="215.621094"/>
      <use xlink:href="#DejaVuSans-32" x="251.705078"/>
      <use xlink:href="#DejaVuSans-30" x="315.328125"/>
     </g>
    </g>
   </g>
  </g>
  <g id="axes_2">
   <g id="patch_8">
    <path d="M 543.571562 306.357812 
L 989.351562 306.357812 
L 989.351562 23.837812 
L 543.571562 23.837812 
z
" style="fill: #ffffff"/>
   </g>
   <g id="PolyCollection_1">
    <defs>
     <path id="ma40b3f7dd0" d="M 563.83429 -95.731708 
L 563.83429 -95.731708 
L 565.162993 -59.111697 
L 566.491697 -55.237131 
L 567.8204 -71.954346 
L 569.149103 -81.790701 
L 570.477807 -90.312729 
L 571.80651 -96.858345 
L 573.135214 -102.419085 
L 574.463917 -92.532438 
L 575.792621 -90.318983 
L 577.121324 -78.016512 
L 578.450027 -75.103091 
L 579.778731 -77.162875 
L 581.107434 -80.51799 
L 582.436138 -81.791976 
L 583.764841 -83.961917 
L 585.093545 -86.340411 
L 586.422248 -85.409138 
L 587.750951 -82.672839 
L 589.079655 -84.043035 
L 590.408358 -85.876399 
L 591.737062 -87.344205 
L 593.065765 -88.134965 
L 594.394469 -89.752573 
L 595.723172 -91.277712 
L 597.051875 -89.886425 
L 598.380579 -90.749884 
L 599.709282 -91.694241 
L 601.037986 -91.180479 
L 602.366689 -91.933432 
L 603.695393 -93.023377 
L 605.024096 -93.490356 
L 606.352799 -92.275702 
L 607.681503 -91.287276 
L 609.010206 -87.384657 
L 610.33891 -88.402839 
L 611.667613 -88.758914 
L 612.996317 -89.584832 
L 614.32502 -90.359866 
L 615.653723 -91.219221 
L 616.982427 -88.452135 
L 618.31113 -89.383937 
L 619.639834 -88.310611 
L 620.968537 -88.330673 
L 622.297241 -89.19433 
L 623.625944 -90.036691 
L 624.954647 -90.580896 
L 626.283351 -90.565645 
L 627.612054 -86.978756 
L 628.940758 -87.256936 
L 630.269461 -86.720604 
L 631.598165 -88.899247 
L 632.926868 -88.804493 
L 634.255571 -88.769874 
L 635.584275 -88.480309 
L 636.912978 -88.414676 
L 638.241682 -87.689983 
L 639.570385 -87.564836 
L 640.899089 -89.389535 
L 642.227792 -89.975277 
L 643.556495 -93.299333 
L 644.885199 -95.175321 
L 646.213902 -93.486303 
L 647.542606 -93.494345 
L 648.871309 -94.112347 
L 650.200013 -94.068974 
L 651.528716 -94.010582 
L 652.857419 -95.34463 
L 654.186123 -97.268057 
L 655.514826 -94.143771 
L 656.84353 -94.179818 
L 658.172233 -94.223902 
L 659.500937 -89.171325 
L 660.82964 -89.14474 
L 662.158343 -88.914409 
L 663.487047 -90.385691 
L 664.81575 -90.784352 
L 666.144454 -90.977892 
L 667.473157 -92.028125 
L 668.801861 -91.934571 
L 670.130564 -91.469566 
L 671.459267 -90.67775 
L 672.787971 -91.642917 
L 674.116674 -93.185557 
L 675.445378 -96.663015 
L 676.774081 -95.235809 
L 678.102785 -96.097515 
L 679.431488 -95.584922 
L 680.760191 -95.457384 
L 682.088895 -95.422964 
L 683.417598 -98.907918 
L 684.746302 -98.976362 
L 686.075005 -100.474698 
L 687.403709 -101.07118 
L 688.732412 -100.915688 
L 690.061115 -98.329439 
L 691.389819 -97.86489 
L 692.718522 -98.60962 
L 694.047226 -100.704006 
L 695.375929 -99.575277 
L 696.704633 -102.234818 
L 698.033336 -102.647233 
L 699.362039 -102.376177 
L 700.690743 -102.114194 
L 702.019446 -102.299241 
L 703.34815 -102.676812 
L 704.676853 -104.480815 
L 706.005557 -104.383624 
L 707.33426 -104.59697 
L 708.662963 -103.536005 
L 709.991667 -101.852263 
L 711.32037 -101.241898 
L 712.649074 -103.916078 
L 713.977777 -103.873209 
L 715.306481 -103.924468 
L 716.635184 -104.689898 
L 717.963887 -105.245395 
L 719.292591 -100.288009 
L 720.621294 -100.829858 
L 721.949998 -104.997969 
L 723.278701 -105.386813 
L 724.607405 -105.903905 
L 725.936108 -110.821751 
L 727.264811 -110.881775 
L 728.593515 -111.658635 
L 729.922218 -111.909026 
L 731.250922 -111.447924 
L 732.579625 -110.945266 
L 733.908329 -111.562851 
L 735.237032 -112.424344 
L 736.565735 -113.308619 
L 737.894439 -112.104054 
L 739.223142 -113.233512 
L 740.551846 -113.908944 
L 741.880549 -110.945798 
L 743.209253 -113.287703 
L 744.537956 -112.596612 
L 745.866659 -112.831399 
L 747.195363 -113.276888 
L 748.524066 -113.313272 
L 749.85277 -112.571162 
L 751.181473 -112.782325 
L 752.510177 -113.130082 
L 753.83888 -114.369585 
L 755.167583 -115.127602 
L 756.496287 -117.806281 
L 757.82499 -117.843822 
L 759.153694 -117.96043 
L 760.482397 -122.17205 
L 761.811101 -120.293644 
L 763.139804 -120.299925 
L 764.468507 -120.530166 
L 765.797211 -121.496898 
L 767.125914 -122.334907 
L 768.454618 -123.963408 
L 769.783321 -124.324978 
L 771.112024 -124.708761 
L 772.440728 -126.333426 
L 773.769431 -126.501211 
L 775.098135 -126.747057 
L 776.426838 -128.58034 
L 777.755542 -127.187773 
L 779.084245 -126.178696 
L 780.412948 -125.272975 
L 781.741652 -125.596744 
L 783.070355 -124.936423 
L 784.399059 -123.818409 
L 785.727762 -130.504494 
L 787.056466 -131.133215 
L 788.385169 -127.458194 
L 789.713872 -126.629339 
L 791.042576 -126.698721 
L 792.371279 -128.247435 
L 793.699983 -128.817494 
L 795.028686 -128.004543 
L 796.35739 -127.461694 
L 797.686093 -128.462929 
L 799.014796 -129.586169 
L 800.3435 -130.04856 
L 801.672203 -129.541654 
L 803.000907 -129.012187 
L 804.32961 -131.867234 
L 805.658314 -131.901273 
L 806.987017 -130.151198 
L 808.31572 -135.288347 
L 809.644424 -135.644973 
L 810.973127 -136.513299 
L 812.301831 -137.57402 
L 813.630534 -137.792545 
L 814.959238 -137.821835 
L 816.287941 -136.678964 
L 817.616644 -133.465438 
L 818.945348 -133.485078 
L 820.274051 -133.008914 
L 821.602755 -128.711282 
L 822.931458 -129.74448 
L 824.260162 -128.568008 
L 825.588865 -129.80487 
L 826.917568 -129.141656 
L 828.246272 -134.910614 
L 829.574975 -134.936148 
L 830.903679 -135.321626 
L 832.232382 -134.205912 
L 833.561086 -133.846837 
L 834.889789 -132.377771 
L 836.218492 -132.39864 
L 837.547196 -131.604794 
L 838.875899 -131.068083 
L 840.204603 -131.271214 
L 841.533306 -134.620585 
L 842.86201 -135.702066 
L 844.190713 -137.717172 
L 845.519416 -139.835732 
L 846.84812 -142.170308 
L 848.176823 -142.827698 
L 849.505527 -143.143116 
L 850.83423 -141.662317 
L 852.162934 -140.642913 
L 853.491637 -140.956884 
L 854.82034 -146.210727 
L 856.149044 -147.986945 
L 857.477747 -149.201183 
L 858.806451 -151.459779 
L 860.135154 -152.703627 
L 861.463858 -154.009245 
L 862.792561 -155.907572 
L 864.121264 -152.298921 
L 865.449968 -150.889337 
L 866.778671 -150.972479 
L 868.107375 -153.582768 
L 869.436078 -147.374124 
L 870.764782 -147.270849 
L 872.093485 -142.707744 
L 873.422188 -145.470023 
L 874.750892 -145.293333 
L 876.079595 -146.100357 
L 877.408299 -140.135486 
L 878.737002 -141.50473 
L 880.065706 -141.769626 
L 881.394409 -140.46649 
L 882.723112 -143.999408 
L 884.051816 -148.648683 
L 885.380519 -144.22616 
L 886.709223 -145.727647 
L 888.037926 -150.827184 
L 889.36663 -150.339762 
L 890.695333 -149.431917 
L 892.024036 -150.90258 
L 893.35274 -152.818262 
L 894.681443 -153.906039 
L 896.010147 -153.072282 
L 897.33885 -153.301761 
L 898.667554 -156.581127 
L 899.996257 -156.362085 
L 901.32496 -158.051177 
L 902.653664 -158.375489 
L 903.982367 -160.057352 
L 905.311071 -158.941429 
L 906.639774 -158.369206 
L 907.968478 -158.257171 
L 909.297181 -156.888465 
L 910.625884 -156.262663 
L 911.954588 -155.746294 
L 913.283291 -155.849189 
L 914.611995 -153.485327 
L 915.940698 -155.931343 
L 917.269402 -160.349689 
L 918.598105 -161.585497 
L 919.926808 -162.388941 
L 921.255512 -161.485919 
L 922.584215 -161.283427 
L 923.912919 -158.136946 
L 925.241622 -158.049546 
L 926.570326 -157.829823 
L 927.899029 -154.174603 
L 929.227732 -154.479604 
L 930.556436 -157.596587 
L 931.885139 -158.340083 
L 933.213843 -158.403164 
L 934.542546 -158.422291 
L 935.87125 -167.143738 
L 937.199953 -167.683487 
L 938.528656 -166.673671 
L 939.85736 -166.265099 
L 941.186063 -164.705359 
L 942.514767 -164.756395 
L 943.84347 -173.723212 
L 945.172174 -172.356761 
L 946.500877 -172.425856 
L 947.82958 -173.995747 
L 949.158284 -174.311855 
L 950.486987 -173.622515 
L 951.815691 -178.966053 
L 953.144394 -174.623957 
L 954.473098 -175.19892 
L 955.801801 -173.243931 
L 957.130504 -173.754921 
L 958.459208 -166.74556 
L 959.787911 -165.305459 
L 961.116615 -164.836199 
L 962.445318 -165.241692 
L 963.774022 -162.786835 
L 965.102725 -161.162959 
L 966.431428 -157.892943 
L 967.760132 -159.087492 
L 969.088835 -157.625042 
L 969.088835 -294.284248 
L 969.088835 -294.284248 
L 967.760132 -295.826877 
L 966.431428 -292.494479 
L 965.102725 -297.100748 
L 963.774022 -298.044241 
L 962.445318 -300.221449 
L 961.116615 -300.167158 
L 959.787911 -300.893605 
L 958.459208 -303.187926 
L 957.130504 -303.907545 
L 955.801801 -303.706781 
L 954.473098 -304.232344 
L 953.144394 -308.537392 
L 951.815691 -309.87133 
L 950.486987 -310.135773 
L 949.158284 -310.453964 
L 947.82958 -309.929483 
L 946.500877 -309.460044 
L 945.172174 -309.833034 
L 943.84347 -311.049883 
L 942.514767 -311.434051 
L 941.186063 -311.076812 
L 939.85736 -311.760818 
L 938.528656 -312.073494 
L 937.199953 -311.699801 
L 935.87125 -306.622407 
L 934.542546 -306.701304 
L 933.213843 -306.676338 
L 931.885139 -306.586795 
L 930.556436 -306.441556 
L 929.227732 -306.615585 
L 927.899029 -299.415416 
L 926.570326 -299.189334 
L 925.241622 -297.054786 
L 923.912919 -296.559475 
L 922.584215 -299.500074 
L 921.255512 -299.577562 
L 919.926808 -300.001082 
L 918.598105 -299.294191 
L 917.269402 -298.741074 
L 915.940698 -297.811854 
L 914.611995 -296.068678 
L 913.283291 -298.28315 
L 911.954588 -297.801783 
L 910.625884 -295.579284 
L 909.297181 -296.794672 
L 907.968478 -299.224511 
L 906.639774 -299.275373 
L 905.311071 -299.486457 
L 903.982367 -301.675123 
L 902.653664 -300.872107 
L 901.32496 -300.20199 
L 899.996257 -299.949229 
L 898.667554 -297.997456 
L 897.33885 -296.950247 
L 896.010147 -295.909775 
L 894.681443 -296.19183 
L 893.35274 -294.851889 
L 892.024036 -291.995852 
L 890.695333 -289.786962 
L 889.36663 -293.981272 
L 888.037926 -295.423717 
L 886.709223 -289.047188 
L 885.380519 -286.713412 
L 884.051816 -287.956221 
L 882.723112 -287.330085 
L 881.394409 -285.847477 
L 880.065706 -287.065778 
L 878.737002 -282.009213 
L 877.408299 -279.857979 
L 876.079595 -278.942436 
L 874.750892 -276.414937 
L 873.422188 -277.117625 
L 872.093485 -275.787363 
L 870.764782 -276.074535 
L 869.436078 -276.247285 
L 868.107375 -274.797133 
L 866.778671 -273.511165 
L 865.449968 -273.289992 
L 864.121264 -274.274689 
L 862.792561 -274.369861 
L 861.463858 -274.031412 
L 860.135154 -273.806696 
L 858.806451 -270.859232 
L 857.477747 -266.002788 
L 856.149044 -261.945695 
L 854.82034 -261.398377 
L 853.491637 -261.016132 
L 852.162934 -260.711961 
L 850.83423 -262.34209 
L 849.505527 -262.22615 
L 848.176823 -262.18616 
L 846.84812 -259.381126 
L 845.519416 -256.761426 
L 844.190713 -251.322955 
L 842.86201 -248.107477 
L 841.533306 -243.544459 
L 840.204603 -242.799441 
L 838.875899 -242.464367 
L 837.547196 -239.816494 
L 836.218492 -241.760709 
L 834.889789 -241.328215 
L 833.561086 -243.391265 
L 832.232382 -239.692301 
L 830.903679 -239.912708 
L 829.574975 -241.609137 
L 828.246272 -241.562993 
L 826.917568 -241.686802 
L 825.588865 -242.718879 
L 824.260162 -242.140509 
L 822.931458 -235.4589 
L 821.602755 -230.997043 
L 820.274051 -232.173116 
L 818.945348 -233.625077 
L 817.616644 -232.176668 
L 816.287941 -232.325652 
L 814.959238 -232.309774 
L 813.630534 -232.534743 
L 812.301831 -232.081047 
L 810.973127 -231.673858 
L 809.644424 -231.257606 
L 808.31572 -230.729279 
L 806.987017 -228.210804 
L 805.658314 -230.067843 
L 804.32961 -231.511213 
L 803.000907 -229.570659 
L 801.672203 -232.174636 
L 800.3435 -232.312382 
L 799.014796 -230.639286 
L 797.686093 -228.648637 
L 796.35739 -227.604796 
L 795.028686 -227.805371 
L 793.699983 -228.389217 
L 792.371279 -227.962887 
L 791.042576 -228.041673 
L 789.713872 -227.991444 
L 788.385169 -228.408095 
L 787.056466 -228.260164 
L 785.727762 -227.687869 
L 784.399059 -226.203541 
L 783.070355 -227.820604 
L 781.741652 -228.26214 
L 780.412948 -227.816598 
L 779.084245 -228.211087 
L 777.755542 -228.371828 
L 776.426838 -231.689197 
L 775.098135 -231.662992 
L 773.769431 -231.714924 
L 772.440728 -231.472044 
L 771.112024 -228.940475 
L 769.783321 -226.798561 
L 768.454618 -225.255498 
L 767.125914 -222.505449 
L 765.797211 -221.17692 
L 764.468507 -220.749065 
L 763.139804 -215.113246 
L 761.811101 -215.072271 
L 760.482397 -214.441164 
L 759.153694 -212.834703 
L 757.82499 -212.7981 
L 756.496287 -214.663661 
L 755.167583 -214.794806 
L 753.83888 -212.753479 
L 752.510177 -209.934622 
L 751.181473 -211.824965 
L 749.85277 -211.46016 
L 748.524066 -212.95308 
L 747.195363 -209.910484 
L 745.866659 -209.04435 
L 744.537956 -208.947287 
L 743.209253 -210.364377 
L 741.880549 -209.433808 
L 740.551846 -209.125338 
L 739.223142 -206.645516 
L 737.894439 -202.534715 
L 736.565735 -207.294092 
L 735.237032 -203.086604 
L 733.908329 -202.628138 
L 732.579625 -201.776466 
L 731.250922 -203.231068 
L 729.922218 -203.997257 
L 728.593515 -203.74322 
L 727.264811 -202.666273 
L 725.936108 -202.604647 
L 724.607405 -204.223812 
L 723.278701 -203.703997 
L 721.949998 -203.106933 
L 720.621294 -202.684756 
L 719.292591 -202.19065 
L 717.963887 -202.527482 
L 716.635184 -200.154971 
L 715.306481 -199.150095 
L 713.977777 -199.013136 
L 712.649074 -199.148067 
L 711.32037 -198.70302 
L 709.991667 -194.256354 
L 708.662963 -196.08301 
L 707.33426 -196.173366 
L 706.005557 -195.531418 
L 704.676853 -195.590354 
L 703.34815 -194.321707 
L 702.019446 -193.428207 
L 700.690743 -193.355965 
L 699.362039 -194.022452 
L 698.033336 -194.212174 
L 696.704633 -194.0164 
L 695.375929 -191.912973 
L 694.047226 -191.983954 
L 692.718522 -192.673237 
L 691.389819 -192.3681 
L 690.061115 -190.408594 
L 688.732412 -191.407782 
L 687.403709 -191.657494 
L 686.075005 -191.49301 
L 684.746302 -186.383677 
L 683.417598 -186.173119 
L 682.088895 -183.765826 
L 680.760191 -184.181281 
L 679.431488 -185.10098 
L 678.102785 -186.331223 
L 676.774081 -183.819312 
L 675.445378 -184.57157 
L 674.116674 -184.668682 
L 672.787971 -184.012188 
L 671.459267 -183.856205 
L 670.130564 -177.660306 
L 668.801861 -178.18207 
L 667.473157 -178.253359 
L 666.144454 -177.615763 
L 664.81575 -175.121678 
L 663.487047 -173.416708 
L 662.158343 -172.494784 
L 660.82964 -173.56118 
L 659.500937 -173.679895 
L 658.172233 -172.697257 
L 656.84353 -172.632924 
L 655.514826 -172.538839 
L 654.186123 -172.392083 
L 652.857419 -172.059147 
L 651.528716 -170.326153 
L 650.200013 -170.47387 
L 648.871309 -170.531014 
L 647.542606 -169.177573 
L 646.213902 -168.34113 
L 644.885199 -168.491883 
L 643.556495 -167.261836 
L 642.227792 -164.854541 
L 640.899089 -164.553752 
L 639.570385 -163.141686 
L 638.241682 -164.015729 
L 636.912978 -167.059029 
L 635.584275 -167.742195 
L 634.255571 -168.117908 
L 632.926868 -167.459218 
L 631.598165 -168.556299 
L 630.269461 -168.363746 
L 628.940758 -168.371446 
L 627.612054 -168.912355 
L 626.283351 -169.053689 
L 624.954647 -169.757507 
L 623.625944 -167.257838 
L 622.297241 -166.249676 
L 620.968537 -165.571426 
L 619.639834 -166.314634 
L 618.31113 -167.226418 
L 616.982427 -166.567218 
L 615.653723 -167.19834 
L 614.32502 -165.34668 
L 612.996317 -163.050627 
L 611.667613 -160.937071 
L 610.33891 -161.583007 
L 609.010206 -160.947942 
L 607.681503 -161.346773 
L 606.352799 -162.393462 
L 605.024096 -163.467036 
L 603.695393 -164.1463 
L 602.366689 -163.836811 
L 601.037986 -164.34373 
L 599.709282 -165.579624 
L 598.380579 -165.987044 
L 597.051875 -166.602301 
L 595.723172 -168.109149 
L 594.394469 -165.960801 
L 593.065765 -164.831374 
L 591.737062 -165.83831 
L 590.408358 -166.099624 
L 589.079655 -165.643243 
L 587.750951 -166.472191 
L 586.422248 -168.706265 
L 585.093545 -171.020141 
L 583.764841 -170.60718 
L 582.436138 -171.257322 
L 581.107434 -173.308063 
L 579.778731 -172.07316 
L 578.450027 -174.232935 
L 577.121324 -178.581401 
L 575.792621 -181.664142 
L 574.463917 -186.49418 
L 573.135214 -191.237174 
L 571.80651 -191.324078 
L 570.477807 -180.147465 
L 569.149103 -175.085867 
L 567.8204 -178.328572 
L 566.491697 -169.47842 
L 565.162993 -102.014708 
L 563.83429 -95.731708 
z
" style="stroke: #2196f3; stroke-opacity: 0.2"/>
    </defs>
    <g clip-path="url(#ped03387aa4)">
     <use xlink:href="#ma40b3f7dd0" x="0" y="348.753125" style="fill: #2196f3; fill-opacity: 0.2; stroke: #2196f3; stroke-opacity: 0.2"/>
    </g>
   </g>
   <g id="matplotlib.axis_3">
    <g id="xtick_8">
     <g id="line2d_33">
      <path d="M 562.505586 306.357812 
L 562.505586 23.837812 
" clip-path="url(#ped03387aa4)" style="fill: none; stroke: #b0b0b0; stroke-opacity: 0.3; stroke-width: 0.8; stroke-linecap: square"/>
     </g>
     <g id="line2d_34">
      <g>
       <use xlink:href="#m2a19e6486e" x="562.505586" y="306.357812" style="stroke: #000000; stroke-width: 0.8"/>
      </g>
     </g>
     <g id="text_20">
      <!-- 0 -->
      <g transform="translate(558.688086 322.475937) scale(0.12 -0.12)">
       <use xlink:href="#DejaVuSans-30"/>
      </g>
     </g>
    </g>
    <g id="xtick_9">
     <g id="line2d_35">
      <path d="M 628.940758 306.357812 
L 628.940758 23.837812 
" clip-path="url(#ped03387aa4)" style="fill: none; stroke: #b0b0b0; stroke-opacity: 0.3; stroke-width: 0.8; stroke-linecap: square"/>
     </g>
     <g id="line2d_36">
      <g>
       <use xlink:href="#m2a19e6486e" x="628.940758" y="306.357812" style="stroke: #000000; stroke-width: 0.8"/>
      </g>
     </g>
     <g id="text_21">
      <!-- 50 -->
      <g transform="translate(621.305758 322.475937) scale(0.12 -0.12)">
       <use xlink:href="#DejaVuSans-35"/>
       <use xlink:href="#DejaVuSans-30" x="63.623047"/>
      </g>
     </g>
    </g>
    <g id="xtick_10">
     <g id="line2d_37">
      <path d="M 695.375929 306.357812 
L 695.375929 23.837812 
" clip-path="url(#ped03387aa4)" style="fill: none; stroke: #b0b0b0; stroke-opacity: 0.3; stroke-width: 0.8; stroke-linecap: square"/>
     </g>
     <g id="line2d_38">
      <g>
       <use xlink:href="#m2a19e6486e" x="695.375929" y="306.357812" style="stroke: #000000; stroke-width: 0.8"/>
      </g>
     </g>
     <g id="text_22">
      <!-- 100 -->
      <g transform="translate(683.923429 322.475937) scale(0.12 -0.12)">
       <use xlink:href="#DejaVuSans-31"/>
       <use xlink:href="#DejaVuSans-30" x="63.623047"/>
       <use xlink:href="#DejaVuSans-30" x="127.246094"/>
      </g>
     </g>
    </g>
    <g id="xtick_11">
     <g id="line2d_39">
      <path d="M 761.811101 306.357812 
L 761.811101 23.837812 
" clip-path="url(#ped03387aa4)" style="fill: none; stroke: #b0b0b0; stroke-opacity: 0.3; stroke-width: 0.8; stroke-linecap: square"/>
     </g>
     <g id="line2d_40">
      <g>
       <use xlink:href="#m2a19e6486e" x="761.811101" y="306.357812" style="stroke: #000000; stroke-width: 0.8"/>
      </g>
     </g>
     <g id="text_23">
      <!-- 150 -->
      <g transform="translate(750.358601 322.475937) scale(0.12 -0.12)">
       <use xlink:href="#DejaVuSans-31"/>
       <use xlink:href="#DejaVuSans-35" x="63.623047"/>
       <use xlink:href="#DejaVuSans-30" x="127.246094"/>
      </g>
     </g>
    </g>
    <g id="xtick_12">
     <g id="line2d_41">
      <path d="M 828.246272 306.357812 
L 828.246272 23.837812 
" clip-path="url(#ped03387aa4)" style="fill: none; stroke: #b0b0b0; stroke-opacity: 0.3; stroke-width: 0.8; stroke-linecap: square"/>
     </g>
     <g id="line2d_42">
      <g>
       <use xlink:href="#m2a19e6486e" x="828.246272" y="306.357812" style="stroke: #000000; stroke-width: 0.8"/>
      </g>
     </g>
     <g id="text_24">
      <!-- 200 -->
      <g transform="translate(816.793772 322.475937) scale(0.12 -0.12)">
       <use xlink:href="#DejaVuSans-32"/>
       <use xlink:href="#DejaVuSans-30" x="63.623047"/>
       <use xlink:href="#DejaVuSans-30" x="127.246094"/>
      </g>
     </g>
    </g>
    <g id="xtick_13">
     <g id="line2d_43">
      <path d="M 894.681443 306.357812 
L 894.681443 23.837812 
" clip-path="url(#ped03387aa4)" style="fill: none; stroke: #b0b0b0; stroke-opacity: 0.3; stroke-width: 0.8; stroke-linecap: square"/>
     </g>
     <g id="line2d_44">
      <g>
       <use xlink:href="#m2a19e6486e" x="894.681443" y="306.357812" style="stroke: #000000; stroke-width: 0.8"/>
      </g>
     </g>
     <g id="text_25">
      <!-- 250 -->
      <g transform="translate(883.228943 322.475937) scale(0.12 -0.12)">
       <use xlink:href="#DejaVuSans-32"/>
       <use xlink:href="#DejaVuSans-35" x="63.623047"/>
       <use xlink:href="#DejaVuSans-30" x="127.246094"/>
      </g>
     </g>
    </g>
    <g id="xtick_14">
     <g id="line2d_45">
      <path d="M 961.116615 306.357812 
L 961.116615 23.837812 
" clip-path="url(#ped03387aa4)" style="fill: none; stroke: #b0b0b0; stroke-opacity: 0.3; stroke-width: 0.8; stroke-linecap: square"/>
     </g>
     <g id="line2d_46">
      <g>
       <use xlink:href="#m2a19e6486e" x="961.116615" y="306.357812" style="stroke: #000000; stroke-width: 0.8"/>
      </g>
     </g>
     <g id="text_26">
      <!-- 300 -->
      <g transform="translate(949.664115 322.475937) scale(0.12 -0.12)">
       <use xlink:href="#DejaVuSans-33"/>
       <use xlink:href="#DejaVuSans-30" x="63.623047"/>
       <use xlink:href="#DejaVuSans-30" x="127.246094"/>
      </g>
     </g>
    </g>
    <g id="text_27">
     <!-- Episode -->
     <g transform="translate(740.932812 338.849531) scale(0.13 -0.13)">
      <use xlink:href="#DejaVuSans-45"/>
      <use xlink:href="#DejaVuSans-70" x="63.183594"/>
      <use xlink:href="#DejaVuSans-69" x="126.660156"/>
      <use xlink:href="#DejaVuSans-73" x="154.443359"/>
      <use xlink:href="#DejaVuSans-6f" x="206.542969"/>
      <use xlink:href="#DejaVuSans-64" x="267.724609"/>
      <use xlink:href="#DejaVuSans-65" x="331.201172"/>
     </g>
    </g>
   </g>
   <g id="matplotlib.axis_4">
    <g id="ytick_8">
     <g id="line2d_47">
      <path d="M 543.571562 259.500504 
L 989.351562 259.500504 
" clip-path="url(#ped03387aa4)" style="fill: none; stroke: #b0b0b0; stroke-opacity: 0.3; stroke-width: 0.8; stroke-linecap: square"/>
     </g>
     <g id="line2d_48">
      <g>
       <use xlink:href="#mf8885e3fea" x="543.571562" y="259.500504" style="stroke: #000000; stroke-width: 0.8"/>
      </g>
     </g>
     <g id="text_28">
      <!-- 65 -->
      <g transform="translate(521.301562 264.059566) scale(0.12 -0.12)">
       <use xlink:href="#DejaVuSans-36"/>
       <use xlink:href="#DejaVuSans-35" x="63.623047"/>
      </g>
     </g>
    </g>
    <g id="ytick_9">
     <g id="line2d_49">
      <path d="M 543.571562 196.883813 
L 989.351562 196.883813 
" clip-path="url(#ped03387aa4)" style="fill: none; stroke: #b0b0b0; stroke-opacity: 0.3; stroke-width: 0.8; stroke-linecap: square"/>
     </g>
     <g id="line2d_50">
      <g>
       <use xlink:href="#mf8885e3fea" x="543.571562" y="196.883813" style="stroke: #000000; stroke-width: 0.8"/>
      </g>
     </g>
     <g id="text_29">
      <!-- 70 -->
      <g transform="translate(521.301562 201.442876) scale(0.12 -0.12)">
       <use xlink:href="#DejaVuSans-37"/>
       <use xlink:href="#DejaVuSans-30" x="63.623047"/>
      </g>
     </g>
    </g>
    <g id="ytick_10">
     <g id="line2d_51">
      <path d="M 543.571562 134.267122 
L 989.351562 134.267122 
" clip-path="url(#ped03387aa4)" style="fill: none; stroke: #b0b0b0; stroke-opacity: 0.3; stroke-width: 0.8; stroke-linecap: square"/>
     </g>
     <g id="line2d_52">
      <g>
       <use xlink:href="#mf8885e3fea" x="543.571562" y="134.267122" style="stroke: #000000; stroke-width: 0.8"/>
      </g>
     </g>
     <g id="text_30">
      <!-- 75 -->
      <g transform="translate(521.301562 138.826185) scale(0.12 -0.12)">
       <use xlink:href="#DejaVuSans-37"/>
       <use xlink:href="#DejaVuSans-35" x="63.623047"/>
      </g>
     </g>
    </g>
    <g id="ytick_11">
     <g id="line2d_53">
      <path d="M 543.571562 71.650432 
L 989.351562 71.650432 
" clip-path="url(#ped03387aa4)" style="fill: none; stroke: #b0b0b0; stroke-opacity: 0.3; stroke-width: 0.8; stroke-linecap: square"/>
     </g>
     <g id="line2d_54">
      <g>
       <use xlink:href="#mf8885e3fea" x="543.571562" y="71.650432" style="stroke: #000000; stroke-width: 0.8"/>
      </g>
     </g>
     <g id="text_31">
      <!-- 80 -->
      <g transform="translate(521.301562 76.209494) scale(0.12 -0.12)">
       <use xlink:href="#DejaVuSans-38"/>
       <use xlink:href="#DejaVuSans-30" x="63.623047"/>
      </g>
     </g>
    </g>
    <g id="text_32">
     <!-- Mean Reward -->
     <g transform="translate(514.597969 209.081484) rotate(-90) scale(0.13 -0.13)">
      <defs>
       <path id="DejaVuSans-6e" d="M 3513 2113 
L 3513 0 
L 2938 0 
L 2938 2094 
Q 2938 2591 2744 2837 
Q 2550 3084 2163 3084 
Q 1697 3084 1428 2787 
Q 1159 2491 1159 1978 
L 1159 0 
L 581 0 
L 581 3500 
L 1159 3500 
L 1159 2956 
Q 1366 3272 1645 3428 
Q 1925 3584 2291 3584 
Q 2894 3584 3203 3211 
Q 3513 2838 3513 2113 
z
" transform="scale(0.015625)"/>
      </defs>
      <use xlink:href="#DejaVuSans-4d"/>
      <use xlink:href="#DejaVuSans-65" x="86.279297"/>
      <use xlink:href="#DejaVuSans-61" x="147.802734"/>
      <use xlink:href="#DejaVuSans-6e" x="209.082031"/>
      <use xlink:href="#DejaVuSans-20" x="272.460938"/>
      <use xlink:href="#DejaVuSans-52" x="304.248047"/>
      <use xlink:href="#DejaVuSans-65" x="369.230469"/>
      <use xlink:href="#DejaVuSans-77" x="430.753906"/>
      <use xlink:href="#DejaVuSans-61" x="512.541016"/>
      <use xlink:href="#DejaVuSans-72" x="573.820312"/>
      <use xlink:href="#DejaVuSans-64" x="613.183594"/>
     </g>
    </g>
   </g>
   <g id="line2d_55">
    <path d="M 563.83429 253.021417 
L 565.162993 268.189922 
L 566.491697 236.39535 
L 567.8204 223.611666 
L 569.149103 220.314841 
L 570.477807 213.523028 
L 571.80651 204.661914 
L 573.135214 201.924995 
L 574.463917 209.239816 
L 575.792621 212.761562 
L 577.121324 220.454169 
L 578.450027 224.085112 
L 579.778731 224.135107 
L 581.107434 221.840099 
L 582.436138 222.228476 
L 583.764841 221.468576 
L 585.093545 220.072849 
L 586.422248 221.695424 
L 587.750951 224.18061 
L 589.079655 223.909986 
L 590.408358 222.765114 
L 591.737062 222.161868 
L 593.065765 222.269956 
L 594.394469 220.896438 
L 595.723172 219.059694 
L 597.051875 220.508762 
L 598.380579 220.384661 
L 599.709282 220.116192 
L 601.037986 220.991021 
L 602.366689 220.868003 
L 603.695393 220.168287 
L 605.024096 220.274429 
L 607.681503 222.4361 
L 609.010206 224.586825 
L 610.33891 223.760202 
L 611.667613 223.905132 
L 615.653723 219.544345 
L 616.982427 221.243448 
L 618.31113 220.447947 
L 619.639834 221.440502 
L 620.968537 221.802075 
L 622.297241 221.031122 
L 623.625944 220.105861 
L 624.954647 218.583924 
L 626.283351 218.943458 
L 627.612054 220.80757 
L 628.940758 220.938934 
L 630.269461 221.21095 
L 631.598165 220.025352 
L 632.926868 220.621269 
L 634.255571 220.309234 
L 636.912978 221.016272 
L 638.241682 222.900269 
L 639.570385 223.399864 
L 640.899089 221.781481 
L 642.227792 221.338216 
L 643.556495 218.472541 
L 644.885199 216.919523 
L 646.213902 217.839408 
L 647.542606 217.417166 
L 648.871309 216.431445 
L 651.528716 216.584757 
L 652.857419 215.051236 
L 654.186123 213.923055 
L 655.514826 215.41182 
L 658.172233 215.292546 
L 659.500937 217.327515 
L 660.82964 217.400165 
L 662.158343 218.048529 
L 666.144454 214.456298 
L 667.473157 213.612383 
L 668.801861 213.694804 
L 670.130564 214.188189 
L 671.459267 211.486147 
L 672.787971 210.925573 
L 674.116674 209.826006 
L 675.445378 208.135833 
L 676.774081 209.225564 
L 678.102785 207.538756 
L 679.431488 208.410174 
L 680.760191 208.933793 
L 682.088895 209.15873 
L 683.417598 206.212607 
L 684.746302 206.073105 
L 686.075005 202.769271 
L 687.403709 202.388788 
L 688.732412 202.59139 
L 690.061115 204.384109 
L 691.389819 203.63663 
L 692.718522 203.111697 
L 694.047226 202.409145 
L 695.375929 203.009 
L 696.704633 200.627516 
L 698.033336 200.323421 
L 699.362039 200.55381 
L 700.690743 201.018046 
L 702.019446 200.889401 
L 703.34815 200.253866 
L 704.676853 198.71754 
L 706.005557 198.795604 
L 707.33426 198.367957 
L 708.662963 198.943617 
L 709.991667 200.698816 
L 711.32037 198.780666 
L 712.649074 197.221053 
L 713.977777 197.309953 
L 715.306481 197.215843 
L 716.635184 196.330691 
L 717.963887 194.866686 
L 719.292591 197.513796 
L 720.621294 196.995818 
L 721.949998 194.700674 
L 724.607405 193.689267 
L 725.936108 192.039926 
L 727.264811 191.979101 
L 728.593515 191.052198 
L 729.922218 190.799983 
L 731.250922 191.413629 
L 732.579625 192.392259 
L 735.237032 190.997651 
L 736.565735 188.451769 
L 737.894439 191.43374 
L 739.223142 188.813611 
L 740.551846 187.235984 
L 741.880549 188.563322 
L 743.209253 186.927085 
L 744.537956 187.981175 
L 745.866659 187.81525 
L 747.195363 187.159439 
L 748.524066 185.619949 
L 749.85277 186.737464 
L 751.181473 186.44948 
L 752.510177 187.220773 
L 753.83888 185.191593 
L 756.496287 182.518154 
L 757.82499 183.432164 
L 759.153694 183.355559 
L 760.482397 180.446518 
L 761.811101 181.070168 
L 763.139804 181.046539 
L 764.468507 178.11351 
L 765.797211 177.416216 
L 767.125914 176.332947 
L 768.454618 174.143672 
L 769.783321 173.191355 
L 771.112024 171.928507 
L 772.440728 169.85039 
L 775.098135 169.548101 
L 776.426838 168.618357 
L 777.755542 170.973324 
L 780.412948 172.208339 
L 781.741652 171.823683 
L 783.070355 172.374611 
L 784.399059 173.74215 
L 785.727762 169.656944 
L 787.056466 169.056436 
L 788.385169 170.81998 
L 789.713872 171.442734 
L 791.042576 171.382928 
L 792.371279 170.647964 
L 793.699983 170.14977 
L 795.028686 170.848168 
L 796.35739 171.21988 
L 797.686093 170.197342 
L 799.014796 168.640398 
L 800.3435 167.572654 
L 801.672203 167.89498 
L 803.000907 169.461702 
L 804.32961 167.063901 
L 805.658314 167.768567 
L 806.987017 169.572124 
L 808.31572 165.744312 
L 809.644424 165.301836 
L 812.301831 163.925592 
L 813.630534 163.589481 
L 814.959238 163.68732 
L 816.287941 164.250817 
L 817.616644 165.932072 
L 818.945348 165.198047 
L 820.274051 166.16211 
L 821.602755 168.898962 
L 824.260162 163.398867 
L 825.588865 162.49125 
L 826.917568 163.338896 
L 828.246272 160.516321 
L 829.574975 160.480483 
L 832.232382 161.804018 
L 833.561086 160.134074 
L 834.889789 161.900132 
L 836.218492 161.673451 
L 837.547196 163.042481 
L 838.875899 161.9869 
L 840.204603 161.717798 
L 841.533306 159.670603 
L 844.190713 154.233061 
L 845.519416 150.454546 
L 846.84812 147.977408 
L 848.176823 146.246196 
L 849.505527 146.068492 
L 850.83423 146.750921 
L 852.162934 148.075688 
L 853.491637 147.766617 
L 854.82034 144.948573 
L 856.149044 143.786805 
L 857.477747 141.15114 
L 858.806451 137.59362 
L 860.135154 135.497963 
L 861.463858 134.732796 
L 862.792561 133.614409 
L 864.121264 135.46632 
L 865.449968 136.663461 
L 866.778671 136.511303 
L 868.107375 134.563175 
L 869.436078 136.942421 
L 870.764782 137.080433 
L 872.093485 139.505572 
L 873.422188 137.459301 
L 874.750892 137.89899 
L 876.079595 136.231728 
L 877.408299 138.756393 
L 878.737002 136.996154 
L 880.065706 134.335423 
L 881.394409 135.596142 
L 884.051816 130.450673 
L 885.380519 133.283339 
L 886.709223 131.365707 
L 888.037926 125.627674 
L 889.36663 126.592608 
L 890.695333 129.143686 
L 892.024036 127.303909 
L 893.35274 124.918049 
L 894.681443 123.704191 
L 896.010147 124.262097 
L 897.33885 123.627121 
L 898.667554 121.463834 
L 901.32496 119.626541 
L 902.653664 119.129327 
L 903.982367 117.886887 
L 905.311071 119.539182 
L 906.639774 119.930836 
L 907.968478 120.012284 
L 909.297181 121.911556 
L 910.625884 122.832152 
L 911.954588 121.979086 
L 913.283291 121.686956 
L 914.611995 123.976123 
L 915.940698 121.881527 
L 917.269402 119.207744 
L 918.598105 118.313281 
L 919.926808 117.558113 
L 921.255512 118.221384 
L 922.584215 118.361375 
L 923.912919 121.404914 
L 925.241622 121.200959 
L 926.570326 120.243546 
L 927.899029 121.958116 
L 929.227732 118.205531 
L 930.556436 116.734053 
L 931.885139 116.289686 
L 934.542546 116.191328 
L 935.87125 111.870053 
L 937.199953 109.061481 
L 939.85736 109.740166 
L 941.186063 110.86204 
L 942.514767 110.657902 
L 943.84347 106.366578 
L 945.172174 107.658228 
L 946.500877 107.810175 
L 947.82958 106.79051 
L 949.158284 106.370216 
L 950.486987 106.873981 
L 951.815691 104.334434 
L 953.144394 107.17245 
L 954.473098 109.037493 
L 955.801801 110.277769 
L 957.130504 109.921892 
L 958.459208 113.786382 
L 959.787911 115.653593 
L 961.116615 116.251446 
L 962.445318 116.021555 
L 963.774022 118.337587 
L 965.102725 119.621272 
L 966.431428 123.559414 
L 967.760132 121.29594 
L 969.088835 122.79848 
L 969.088835 122.79848 
" clip-path="url(#ped03387aa4)" style="fill: none; stroke: #2196f3; stroke-width: 2; stroke-linecap: square"/>
   </g>
   <g id="patch_9">
    <path d="M 543.571562 306.357813 
L 543.571562 23.837812 
" style="fill: none; stroke: #000000; stroke-width: 0.8; stroke-linejoin: miter; stroke-linecap: square"/>
   </g>
   <g id="patch_10">
    <path d="M 989.351562 306.357813 
L 989.351562 23.837812 
" style="fill: none; stroke: #000000; stroke-width: 0.8; stroke-linejoin: miter; stroke-linecap: square"/>
   </g>
   <g id="patch_11">
    <path d="M 543.571562 306.357812 
L 989.351562 306.357812 
" style="fill: none; stroke: #000000; stroke-width: 0.8; stroke-linejoin: miter; stroke-linecap: square"/>
   </g>
   <g id="patch_12">
    <path d="M 543.571562 23.837812 
L 989.351562 23.837812 
" style="fill: none; stroke: #000000; stroke-width: 0.8; stroke-linejoin: miter; stroke-linecap: square"/>
   </g>
   <g id="text_33">
    <!-- DQN Training Stability (Rolling Statistics) -->
    <g transform="translate(624.160312 17.837812) scale(0.14 -0.14)">
     <defs>
      <path id="DejaVuSans-67" d="M 2906 1791 
Q 2906 2416 2648 2759 
Q 2391 3103 1925 3103 
Q 1463 3103 1205 2759 
Q 947 2416 947 1791 
Q 947 1169 1205 825 
Q 1463 481 1925 481 
Q 2391 481 2648 825 
Q 2906 1169 2906 1791 
z
M 3481 434 
Q 3481 -459 3084 -895 
Q 2688 -1331 1869 -1331 
Q 1566 -1331 1297 -1286 
Q 1028 -1241 775 -1147 
L 775 -588 
Q 1028 -725 1275 -790 
Q 1522 -856 1778 -856 
Q 2344 -856 2625 -561 
Q 2906 -266 2906 331 
L 2906 616 
Q 2728 306 2450 153 
Q 2172 0 1784 0 
Q 1141 0 747 490 
Q 353 981 353 1791 
Q 353 2603 747 3093 
Q 1141 3584 1784 3584 
Q 2172 3584 2450 3431 
Q 2728 3278 2906 2969 
L 2906 3500 
L 3481 3500 
L 3481 434 
z
" transform="scale(0.015625)"/>
      <path id="DejaVuSans-53" d="M 3425 4513 
L 3425 3897 
Q 3066 4069 2747 4153 
Q 2428 4238 2131 4238 
Q 1616 4238 1336 4038 
Q 1056 3838 1056 3469 
Q 1056 3159 1242 3001 
Q 1428 2844 1947 2747 
L 2328 2669 
Q 3034 2534 3370 2195 
Q 3706 1856 3706 1288 
Q 3706 609 3251 259 
Q 2797 -91 1919 -91 
Q 1588 -91 1214 -16 
Q 841 59 441 206 
L 441 856 
Q 825 641 1194 531 
Q 1563 422 1919 422 
Q 2459 422 2753 634 
Q 3047 847 3047 1241 
Q 3047 1584 2836 1778 
Q 2625 1972 2144 2069 
L 1759 2144 
Q 1053 2284 737 2584 
Q 422 2884 422 3419 
Q 422 4038 858 4394 
Q 1294 4750 2059 4750 
Q 2388 4750 2728 4690 
Q 3069 4631 3425 4513 
z
" transform="scale(0.015625)"/>
      <path id="DejaVuSans-62" d="M 3116 1747 
Q 3116 2381 2855 2742 
Q 2594 3103 2138 3103 
Q 1681 3103 1420 2742 
Q 1159 2381 1159 1747 
Q 1159 1113 1420 752 
Q 1681 391 2138 391 
Q 2594 391 2855 752 
Q 3116 1113 3116 1747 
z
M 1159 2969 
Q 1341 3281 1617 3432 
Q 1894 3584 2278 3584 
Q 2916 3584 3314 3078 
Q 3713 2572 3713 1747 
Q 3713 922 3314 415 
Q 2916 -91 2278 -91 
Q 1894 -91 1617 61 
Q 1341 213 1159 525 
L 1159 0 
L 581 0 
L 581 4863 
L 1159 4863 
L 1159 2969 
z
" transform="scale(0.015625)"/>
      <path id="DejaVuSans-79" d="M 2059 -325 
Q 1816 -950 1584 -1140 
Q 1353 -1331 966 -1331 
L 506 -1331 
L 506 -850 
L 844 -850 
Q 1081 -850 1212 -737 
Q 1344 -625 1503 -206 
L 1606 56 
L 191 3500 
L 800 3500 
L 1894 763 
L 2988 3500 
L 3597 3500 
L 2059 -325 
z
" transform="scale(0.015625)"/>
      <path id="DejaVuSans-28" d="M 1984 4856 
Q 1566 4138 1362 3434 
Q 1159 2731 1159 2009 
Q 1159 1288 1364 580 
Q 1569 -128 1984 -844 
L 1484 -844 
Q 1016 -109 783 600 
Q 550 1309 550 2009 
Q 550 2706 781 3412 
Q 1013 4119 1484 4856 
L 1984 4856 
z
" transform="scale(0.015625)"/>
      <path id="DejaVuSans-63" d="M 3122 3366 
L 3122 2828 
Q 2878 2963 2633 3030 
Q 2388 3097 2138 3097 
Q 1578 3097 1268 2742 
Q 959 2388 959 1747 
Q 959 1106 1268 751 
Q 1578 397 2138 397 
Q 2388 397 2633 464 
Q 2878 531 3122 666 
L 3122 134 
Q 2881 22 2623 -34 
Q 2366 -91 2075 -91 
Q 1284 -91 818 406 
Q 353 903 353 1747 
Q 353 2603 823 3093 
Q 1294 3584 2113 3584 
Q 2378 3584 2631 3529 
Q 2884 3475 3122 3366 
z
" transform="scale(0.015625)"/>
      <path id="DejaVuSans-29" d="M 513 4856 
L 1013 4856 
Q 1481 4119 1714 3412 
Q 1947 2706 1947 2009 
Q 1947 1309 1714 600 
Q 1481 -109 1013 -844 
L 513 -844 
Q 928 -128 1133 580 
Q 1338 1288 1338 2009 
Q 1338 2731 1133 3434 
Q 928 4138 513 4856 
z
" transform="scale(0.015625)"/>
     </defs>
     <use xlink:href="#DejaVuSans-44"/>
     <use xlink:href="#DejaVuSans-51" x="77.001953"/>
     <use xlink:href="#DejaVuSans-4e" x="155.712891"/>
     <use xlink:href="#DejaVuSans-20" x="230.517578"/>
     <use xlink:href="#DejaVuSans-54" x="262.304688"/>
     <use xlink:href="#DejaVuSans-72" x="308.638672"/>
     <use xlink:href="#DejaVuSans-61" x="349.751953"/>
     <use xlink:href="#DejaVuSans-69" x="411.03125"/>
     <use xlink:href="#DejaVuSans-6e" x="438.814453"/>
     <use xlink:href="#DejaVuSans-69" x="502.193359"/>
     <use xlink:href="#DejaVuSans-6e" x="529.976562"/>
     <use xlink:href="#DejaVuSans-67" x="593.355469"/>
     <use xlink:href="#DejaVuSans-20" x="656.832031"/>
     <use xlink:href="#DejaVuSans-53" x="688.619141"/>
     <use xlink:href="#DejaVuSans-74" x="752.095703"/>
     <use xlink:href="#DejaVuSans-61" x="791.304688"/>
     <use xlink:href="#DejaVuSans-62" x="852.583984"/>
     <use xlink:href="#DejaVuSans-69" x="916.060547"/>
     <use xlink:href="#DejaVuSans-6c" x="943.84375"/>
     <use xlink:href="#DejaVuSans-69" x="971.626953"/>
     <use xlink:href="#DejaVuSans-74" x="999.410156"/>
     <use xlink:href="#DejaVuSans-79" x="1038.619141"/>
     <use xlink:href="#DejaVuSans-20" x="1097.798828"/>
     <use xlink:href="#DejaVuSans-28" x="1129.585938"/>
     <use xlink:href="#DejaVuSans-52" x="1168.599609"/>
     <use xlink:href="#DejaVuSans-6f" x="1233.582031"/>
     <use xlink:href="#DejaVuSans-6c" x="1294.763672"/>
     <use xlink:href="#DejaVuSans-6c" x="1322.546875"/>
     <use xlink:href="#DejaVuSans-69" x="1350.330078"/>
     <use xlink:href="#DejaVuSans-6e" x="1378.113281"/>
     <use xlink:href="#DejaVuSans-67" x="1441.492188"/>
     <use xlink:href="#DejaVuSans-20" x="1504.96875"/>
     <use xlink:href="#DejaVuSans-53" x="1536.755859"/>
     <use xlink:href="#DejaVuSans-74" x="1600.232422"/>
     <use xlink:href="#DejaVuSans-61" x="1639.441406"/>
     <use xlink:href="#DejaVuSans-74" x="1700.720703"/>
     <use xlink:href="#DejaVuSans-69" x="1739.929688"/>
     <use xlink:href="#DejaVuSans-73" x="1767.712891"/>
     <use xlink:href="#DejaVuSans-74" x="1819.8125"/>
     <use xlink:href="#DejaVuSans-69" x="1859.021484"/>
     <use xlink:href="#DejaVuSans-63" x="1886.804688"/>
     <use xlink:href="#DejaVuSans-73" x="1941.785156"/>
     <use xlink:href="#DejaVuSans-29" x="1993.884766"/>
    </g>
   </g>
   <g id="legend_2">
    <g id="patch_13">
     <path d="M 803.785 48.78375 
L 981.651562 48.78375 
Q 983.851562 48.78375 983.851562 46.58375 
L 983.851562 31.537812 
Q 983.851562 29.337812 981.651562 29.337812 
L 803.785 29.337812 
Q 801.585 29.337812 801.585 31.537812 
L 801.585 46.58375 
Q 801.585 48.78375 803.785 48.78375 
z
" style="fill: #ffffff; opacity: 0.8; stroke: #cccccc; stroke-linejoin: miter"/>
    </g>
    <g id="line2d_56">
     <path d="M 805.985 38.246094 
L 816.985 38.246094 
L 827.985 38.246094 
" style="fill: none; stroke: #2196f3; stroke-width: 2; stroke-linecap: square"/>
    </g>
    <g id="text_34">
     <!-- Rolling mean ±1σ (w=50) -->
     <g transform="translate(836.785 42.096094) scale(0.11 -0.11)">
      <defs>
       <path id="DejaVuSans-6d" d="M 3328 2828 
Q 3544 3216 3844 3400 
Q 4144 3584 4550 3584 
Q 5097 3584 5394 3201 
Q 5691 2819 5691 2113 
L 5691 0 
L 5113 0 
L 5113 2094 
Q 5113 2597 4934 2840 
Q 4756 3084 4391 3084 
Q 3944 3084 3684 2787 
Q 3425 2491 3425 1978 
L 3425 0 
L 2847 0 
L 2847 2094 
Q 2847 2600 2669 2842 
Q 2491 3084 2119 3084 
Q 1678 3084 1418 2786 
Q 1159 2488 1159 1978 
L 1159 0 
L 581 0 
L 581 3500 
L 1159 3500 
L 1159 2956 
Q 1356 3278 1631 3431 
Q 1906 3584 2284 3584 
Q 2666 3584 2933 3390 
Q 3200 3197 3328 2828 
z
" transform="scale(0.015625)"/>
       <path id="DejaVuSans-b1" d="M 2944 4013 
L 2944 2803 
L 4684 2803 
L 4684 2272 
L 2944 2272 
L 2944 1063 
L 2419 1063 
L 2419 2272 
L 678 2272 
L 678 2803 
L 2419 2803 
L 2419 4013 
L 2944 4013 
z
M 678 531 
L 4684 531 
L 4684 0 
L 678 0 
L 678 531 
z
" transform="scale(0.015625)"/>
       <path id="DejaVuSans-3c3" d="M 1959 3044 
Q 1484 3044 1228 2700 
Q 959 2341 959 1747 
Q 959 1119 1226 758 
Q 1494 397 1959 397 
Q 2419 397 2687 759 
Q 2956 1122 2956 1747 
Q 2956 2319 2688 2700 
Q 2441 3044 1959 3044 
z
M 1959 3500 
L 3869 3500 
L 3869 2925 
L 3225 2925 
Q 3566 2438 3566 1747 
Q 3566 888 3138 400 
Q 2709 -91 1959 -91 
Q 1206 -91 781 400 
Q 353 888 353 1747 
Q 353 2613 781 3097 
Q 1134 3500 1959 3500 
z
" transform="scale(0.015625)"/>
       <path id="DejaVuSans-3d" d="M 678 2906 
L 4684 2906 
L 4684 2381 
L 678 2381 
L 678 2906 
z
M 678 1631 
L 4684 1631 
L 4684 1100 
L 678 1100 
L 678 1631 
z
" transform="scale(0.015625)"/>
      </defs>
      <use xlink:href="#DejaVuSans-52"/>
      <use xlink:href="#DejaVuSans-6f" x="64.982422"/>
      <use xlink:href="#DejaVuSans-6c" x="126.164062"/>
      <use xlink:href="#DejaVuSans-6c" x="153.947266"/>
      <use xlink:href="#DejaVuSans-69" x="181.730469"/>
      <use xlink:href="#DejaVuSans-6e" x="209.513672"/>
      <use xlink:href="#DejaVuSans-67" x="272.892578"/>
      <use xlink:href="#DejaVuSans-20" x="336.369141"/>
      <use xlink:href="#DejaVuSans-6d" x="368.15625"/>
      <use xlink:href="#DejaVuSans-65" x="465.568359"/>
      <use xlink:href="#DejaVuSans-61" x="527.091797"/>
      <use xlink:href="#DejaVuSans-6e" x="588.371094"/>
      <use xlink:href="#DejaVuSans-20" x="651.75"/>
      <use xlink:href="#DejaVuSans-b1" x="683.537109"/>
      <use xlink:href="#DejaVuSans-31" x="767.326172"/>
      <use xlink:href="#DejaVuSans-3c3" x="830.949219"/>
      <use xlink:href="#DejaVuSans-20" x="894.328125"/>
      <use xlink:href="#DejaVuSans-28" x="926.115234"/>
      <use xlink:href="#DejaVuSans-77" x="965.128906"/>
      <use xlink:href="#DejaVuSans-3d" x="1046.916016"/>
      <use xlink:href="#DejaVuSans-35" x="1130.705078"/>
      <use xlink:href="#DejaVuSans-30" x="1194.328125"/>
      <use xlink:href="#DejaVuSans-29" x="1257.951172"/>
     </g>
    </g>
   </g>
  </g>
 </g>
 <defs>
  <clipPath id="p971a9e1ea8">
   <rect x="46.051563" y="23.837812" width="445.78" height="282.52"/>
  </clipPath>
  <clipPath id="ped03387aa4">
   <rect x="543.571562" y="23.837812" width="445.78" height="282.52"/>
  </clipPath>
 </defs>
</svg>
