<?xml version="1.0" encoding="utf-8" standalone="no"?>
<!DOCTYPE svg PUBLIC "-//W3C//DTD SVG 1.1//EN"
  "http://www.w3.org/Graphics/SVG/1.1/DTD/svg11.dtd">
<svg xmlns:xlink="http://www.w3.org/1999/xlink" width="852.491562pt" height="420.753125pt" viewBox="0 0 852.491562 420.753125" xmlns="http://www.w3.org/2000/svg" version="1.1">
 <metadata>
  <rdf:RDF xmlns:dc="http://purl.org/dc/elements/1.1/" xmlns:cc="http://creativecommons.org/ns#" xmlns:rdf="http://www.w3.org/1999/02/22-rdf-syntax-ns#">
   <cc:Work>
    <dc:type rdf:resource="http://purl.org/dc/dcmitype/StillImage"/>
    <dc:date>2026-03-05T11:53:09.010149</dc:date>
    <dc:format>image/svg+xml</dc:format>
    <dc:creator>
     <cc:Agent>
      <dc:title>Matplotlib v3.7.1, https://matplotlib.org/</dc:title>
     </cc:Agent>
    </dc:creator>
   </cc:Work>
  </rdf:RDF>
 </metadata>
 <defs>
  <style type="text/css">*{stroke-linejoin: round; stroke-linecap: butt}</style>
 </defs>
 <g id="figure_1">
  <g id="patch_1">
   <path d="M 0 420.753125 
L 852.491562 420.753125 
L 852.491562 0 
L 0 0 
z
" style="fill: #ffffff"/>
  </g>
  <g id="axes_1">
   <g id="patch_2">
    <path d="M 46.051563 378.357813 
L 845.291562 378.357813 
L 845.291562 23.837812 
L 46.051563 23.837812 
z
" style="fill: #ffffff"/>
   </g>
   <g id="matplotlib.axis_1">
    <g id="xtick_1">
     <g id="line2d_1">
      <path d="M 80.921654 378.357813 
L 80.921654 23.837812 
" clip-path="url(#p4407e193c2)" style="fill: none; stroke: #b0b0b0; stroke-opacity: 0.3; stroke-width: 0.8; stroke-linecap: square"/>
     </g>
     <g id="line2d_2">
      <defs>
       <path id="m85a3cee15f" d="M 0 0 
L 0 3.5 
" style="stroke: #000000; stroke-width: 0.8"/>
      </defs>
      <g>
       <use xlink:href="#m85a3cee15f" x="80.921654" y="378.357813" style="stroke: #000000; stroke-width: 0.8"/>
      </g>
     </g>
     <g id="text_1">
      <!-- 0 -->
      <g transform="translate(77.104154 394.475937) scale(0.12 -0.12)">
       <defs>
        <path id="DejaVuSans-30" d="M 2034 4250 
Q 1547 4250 1301 3770 
Q 1056 3291 1056 2328 
Q 1056 1369 1301 889 
Q 1547 409 2034 409 
Q 2525 409 2770 889 
Q 3016 1369 3016 2328 
Q 3016 3291 2770 3770 
Q 2525 4250 2034 4250 
z
M 2034 4750 
Q 2819 4750 3233 4129 
Q 3647 3509 3647 2328 
Q 3647 1150 3233 529 
Q 2819 -91 2034 -91 
Q 1250 -91 836 529 
Q 422 1150 422 2328 
Q 422 3509 836 4129 
Q 1250 4750 2034 4750 
z
" transform="scale(0.015625)"/>
       </defs>
       <use xlink:href="#DejaVuSans-30"/>
      </g>
     </g>
    </g>
    <g id="xtick_2">
     <g id="line2d_3">
      <path d="M 226.821617 378.357813 
L 226.821617 23.837812 
" clip-path="url(#p4407e193c2)" style="fill: none; stroke: #b0b0b0; stroke-opacity: 0.3; stroke-width: 0.8; stroke-linecap: square"/>
     </g>
     <g id="line2d_4">
      <g>
       <use xlink:href="#m85a3cee15f" x="226.821617" y="378.357813" style="stroke: #000000; stroke-width: 0.8"/>
      </g>
     </g>
     <g id="text_2">
      <!-- 100 -->
      <g transform="translate(215.369117 394.475937) scale(0.12 -0.12)">
       <defs>
        <path id="DejaVuSans-31" d="M 794 531 
L 1825 531 
L 1825 4091 
L 703 3866 
L 703 4441 
L 1819 4666 
L 2450 4666 
L 2450 531 
L 3481 531 
L 3481 0 
L 794 0 
L 794 531 
z
" transform="scale(0.015625)"/>
       </defs>
       <use xlink:href="#DejaVuSans-31"/>
       <use xlink:href="#DejaVuSans-30" x="63.623047"/>
       <use xlink:href="#DejaVuSans-30" x="127.246094"/>
      </g>
     </g>
    </g>
    <g id="xtick_3">
     <g id="line2d_5">
      <path d="M 372.721581 378.357813 
L 372.721581 23.837812 
" clip-path="url(#p4407e193c2)" style="fill: none; stroke: #b0b0b0; stroke-opacity: 0.3; stroke-width: 0.8; stroke-linecap: square"/>
     </g>
     <g id="line2d_6">
      <g>
       <use xlink:href="#m85a3cee15f" x="372.721581" y="378.357813" style="stroke: #000000; stroke-width: 0.8"/>
      </g>
     </g>
     <g id="text_3">
      <!-- 200 -->
      <g transform="translate(361.269081 394.475937) scale(0.12 -0.12)">
       <defs>
        <path id="DejaVuSans-32" d="M 1228 531 
L 3431 531 
L 3431 0 
L 469 0 
L 469 531 
Q 828 903 1448 1529 
Q 2069 2156 2228 2338 
Q 2531 2678 2651 2914 
Q 2772 3150 2772 3378 
Q 2772 3750 2511 3984 
Q 2250 4219 1831 4219 
Q 1534 4219 1204 4116 
Q 875 4013 500 3803 
L 500 4441 
Q 881 4594 1212 4672 
Q 1544 4750 1819 4750 
Q 2544 4750 2975 4387 
Q 3406 4025 3406 3419 
Q 3406 3131 3298 2873 
Q 3191 2616 2906 2266 
Q 2828 2175 2409 1742 
Q 1991 1309 1228 531 
z
" transform="scale(0.015625)"/>
       </defs>
       <use xlink:href="#DejaVuSans-32"/>
       <use xlink:href="#DejaVuSans-30" x="63.623047"/>
       <use xlink:href="#DejaVuSans-30" x="127.246094"/>
      </g>
     </g>
    </g>
    <g id="xtick_4">
     <g id="line2d_7">
      <path d="M 518.621544 378.357813 
L 518.621544 23.837812 
" clip-path="url(#p4407e193c2)" style="fill: none; stroke: #b0b0b0; stroke-opacity: 0.3; stroke-width: 0.8; stroke-linecap: square"/>
     </g>
     <g id="line2d_8">
      <g>
       <use xlink:href="#m85a3cee15f" x="518.621544" y="378.357813" style="stroke: #000000; stroke-width: 0.8"/>
      </g>
     </g>
     <g id="text_4">
      <!-- 300 -->
      <g transform="translate(507.169044 394.475937) scale(0.12 -0.12)">
       <defs>
        <path id="DejaVuSans-33" d="M 2597 2516 
Q 3050 2419 3304 2112 
Q 3559 1806 3559 1356 
Q 3559 666 3084 287 
Q 2609 -91 1734 -91 
Q 1441 -91 1130 -33 
Q 819 25 488 141 
L 488 750 
Q 750 597 1062 519 
Q 1375 441 1716 441 
Q 2309 441 2620 675 
Q 2931 909 2931 1356 
Q 2931 1769 2642 2001 
Q 2353 2234 1838 2234 
L 1294 2234 
L 1294 2753 
L 1863 2753 
Q 2328 2753 2575 2939 
Q 2822 3125 2822 3475 
Q 2822 3834 2567 4026 
Q 2313 4219 1838 4219 
Q 1578 4219 1281 4162 
Q 984 4106 628 3988 
L 628 4550 
Q 988 4650 1302 4700 
Q 1616 4750 1894 4750 
Q 2613 4750 3031 4423 
Q 3450 4097 3450 3541 
Q 3450 3153 3228 2886 
Q 3006 2619 2597 2516 
z
" transform="scale(0.015625)"/>
       </defs>
       <use xlink:href="#DejaVuSans-33"/>
       <use xlink:href="#DejaVuSans-30" x="63.623047"/>
       <use xlink:href="#DejaVuSans-30" x="127.246094"/>
      </g>
     </g>
    </g>
    <g id="xtick_5">
     <g id="line2d_9">
      <path d="M 664.521508 378.357813 
L 664.521508 23.837812 
" clip-path="url(#p4407e193c2)" style="fill: none; stroke: #b0b0b0; stroke-opacity: 0.3; stroke-width: 0.8; stroke-linecap: square"/>
     </g>
     <g id="line2d_10">
      <g>
       <use xlink:href="#m85a3cee15f" x="664.521508" y="378.357813" style="stroke: #000000; stroke-width: 0.8"/>
      </g>
     </g>
     <g id="text_5">
      <!-- 400 -->
      <g transform="translate(653.069008 394.475937) scale(0.12 -0.12)">
       <defs>
        <path id="DejaVuSans-34" d="M 2419 4116 
L 825 1625 
L 2419 1625 
L 2419 4116 
z
M 2253 4666 
L 3047 4666 
L 3047 1625 
L 3713 1625 
L 3713 1100 
L 3047 1100 
L 3047 0 
L 2419 0 
L 2419 1100 
L 313 1100 
L 313 1709 
L 2253 4666 
z
" transform="scale(0.015625)"/>
       </defs>
       <use xlink:href="#DejaVuSans-34"/>
       <use xlink:href="#DejaVuSans-30" x="63.623047"/>
       <use xlink:href="#DejaVuSans-30" x="127.246094"/>
      </g>
     </g>
    </g>
    <g id="xtick_6">
     <g id="line2d_11">
      <path d="M 810.421471 378.357813 
L 810.421471 23.837812 
" clip-path="url(#p4407e193c2)" style="fill: none; stroke: #b0b0b0; stroke-opacity: 0.3; stroke-width: 0.8; stroke-linecap: square"/>
     </g>
     <g id="line2d_12">
      <g>
       <use xlink:href="#m85a3cee15f" x="810.421471" y="378.357813" style="stroke: #000000; stroke-width: 0.8"/>
      </g>
     </g>
     <g id="text_6">
      <!-- 500 -->
      <g transform="translate(798.968971 394.475937) scale(0.12 -0.12)">
       <defs>
        <path id="DejaVuSans-35" d="M 691 4666 
L 3169 4666 
L 3169 4134 
L 1269 4134 
L 1269 2991 
Q 1406 3038 1543 3061 
Q 1681 3084 1819 3084 
Q 2600 3084 3056 2656 
Q 3513 2228 3513 1497 
Q 3513 744 3044 326 
Q 2575 -91 1722 -91 
Q 1428 -91 1123 -41 
Q 819 9 494 109 
L 494 744 
Q 775 591 1075 516 
Q 1375 441 1709 441 
Q 2250 441 2565 725 
Q 2881 1009 2881 1497 
Q 2881 1984 2565 2268 
Q 2250 2553 1709 2553 
Q 1456 2553 1204 2497 
Q 953 2441 691 2322 
L 691 4666 
z
" transform="scale(0.015625)"/>
       </defs>
       <use xlink:href="#DejaVuSans-35"/>
       <use xlink:href="#DejaVuSans-30" x="63.623047"/>
       <use xlink:href="#DejaVuSans-30" x="127.246094"/>
      </g>
     </g>
    </g>
    <g id="text_7">
     <!-- Episode -->
     <g transform="translate(420.142812 410.849531) scale(0.13 -0.13)">
      <defs>
       <path id="DejaVuSans-45" d="M 628 4666 
L 3578 4666 
L 3578 4134 
L 1259 4134 
L 1259 2753 
L 3481 2753 
L 3481 2222 
L 1259 2222 
L 1259 531 
L 3634 531 
L 3634 0 
L 628 0 
L 628 4666 
z
" transform="scale(0.015625)"/>
       <path id="DejaVuSans-70" d="M 1159 525 
L 1159 -1331 
L 581 -1331 
L 581 3500 
L 1159 3500 
L 1159 2969 
Q 1341 3281 1617 3432 
Q 1894 3584 2278 3584 
Q 2916 3584 3314 3078 
Q 3713 2572 3713 1747 
Q 3713 922 3314 415 
Q 2916 -91 2278 -91 
Q 1894 -91 1617 61 
Q 1341 213 1159 525 
z
M 3116 1747 
Q 3116 2381 2855 2742 
Q 2594 3103 2138 3103 
Q 1681 3103 1420 2742 
Q 1159 2381 1159 1747 
Q 1159 1113 1420 752 
Q 1681 391 2138 391 
Q 2594 391 2855 752 
Q 3116 1113 3116 1747 
z
" transform="scale(0.015625)"/>
       <path id="DejaVuSans-69" d="M 603 3500 
L 1178 3500 
L 1178 0 
L 603 0 
L 603 3500 
z
M 603 4863 
L 1178 4863 
L 1178 4134 
L 603 4134 
L 603 4863 
z
" transform="scale(0.015625)"/>
       <path id="DejaVuSans-73" d="M 2834 3397 
L 2834 2853 
Q 2591 2978 2328 3040 
Q 2066 3103 1784 3103 
Q 1356 3103 1142 2972 
Q 928 2841 928 2578 
Q 928 2378 1081 2264 
Q 1234 2150 1697 2047 
L 1894 2003 
Q 2506 1872 2764 1633 
Q 3022 1394 3022 966 
Q 3022 478 2636 193 
Q 2250 -91 1575 -91 
Q 1294 -91 989 -36 
Q 684 19 347 128 
L 347 722 
Q 666 556 975 473 
Q 1284 391 1588 391 
Q 1994 391 2212 530 
Q 2431 669 2431 922 
Q 2431 1156 2273 1281 
Q 2116 1406 1581 1522 
L 1381 1569 
Q 847 1681 609 1914 
Q 372 2147 372 2553 
Q 372 3047 722 3315 
Q 1072 3584 1716 3584 
Q 2034 3584 2315 3537 
Q 2597 3491 2834 3397 
z
" transform="scale(0.015625)"/>
       <path id="DejaVuSans-6f" d="M 1959 3097 
Q 1497 3097 1228 2736 
Q 959 2375 959 1747 
Q 959 1119 1226 758 
Q 1494 397 1959 397 
Q 2419 397 2687 759 
Q 2956 1122 2956 1747 
Q 2956 2369 2687 2733 
Q 2419 3097 1959 3097 
z
M 1959 3584 
Q 2709 3584 3137 3096 
Q 3566 2609 3566 1747 
Q 3566 888 3137 398 
Q 2709 -91 1959 -91 
Q 1206 -91 779 398 
Q 353 888 353 1747 
Q 353 2609 779 3096 
Q 1206 3584 1959 3584 
z
" transform="scale(0.015625)"/>
       <path id="DejaVuSans-64" d="M 2906 2969 
L 2906 4863 
L 3481 4863 
L 3481 0 
L 2906 0 
L 2906 525 
Q 2725 213 2448 61 
Q 2172 -91 1784 -91 
Q 1150 -91 751 415 
Q 353 922 353 1747 
Q 353 2572 751 3078 
Q 1150 3584 1784 3584 
Q 2172 3584 2448 3432 
Q 2725 3281 2906 2969 
z
M 947 1747 
Q 947 1113 1208 752 
Q 1469 391 1925 391 
Q 2381 391 2643 752 
Q 2906 1113 2906 1747 
Q 2906 2381 2643 2742 
Q 2381 3103 1925 3103 
Q 1469 3103 1208 2742 
Q 947 2381 947 1747 
z
" transform="scale(0.015625)"/>
       <path id="DejaVuSans-65" d="M 3597 1894 
L 3597 1613 
L 953 1613 
Q 991 1019 1311 708 
Q 1631 397 2203 397 
Q 2534 397 2845 478 
Q 3156 559 3463 722 
L 3463 178 
Q 3153 47 2828 -22 
Q 2503 -91 2169 -91 
Q 1331 -91 842 396 
Q 353 884 353 1716 
Q 353 2575 817 3079 
Q 1281 3584 2069 3584 
Q 2775 3584 3186 3129 
Q 3597 2675 3597 1894 
z
M 3022 2063 
Q 3016 2534 2758 2815 
Q 2500 3097 2075 3097 
Q 1594 3097 1305 2825 
Q 1016 2553 972 2059 
L 3022 2063 
z
" transform="scale(0.015625)"/>
      </defs>
      <use xlink:href="#DejaVuSans-45"/>
      <use xlink:href="#DejaVuSans-70" x="63.183594"/>
      <use xlink:href="#DejaVuSans-69" x="126.660156"/>
      <use xlink:href="#DejaVuSans-73" x="154.443359"/>
      <use xlink:href="#DejaVuSans-6f" x="206.542969"/>
      <use xlink:href="#DejaVuSans-64" x="267.724609"/>
      <use xlink:href="#DejaVuSans-65" x="331.201172"/>
     </g>
    </g>
   </g>
   <g id="matplotlib.axis_2">
    <g id="ytick_1">
     <g id="line2d_13">
      <path d="M 46.051563 346.541599 
L 845.291562 346.541599 
" clip-path="url(#p4407e193c2)" style="fill: none; stroke: #b0b0b0; stroke-opacity: 0.3; stroke-width: 0.8; stroke-linecap: square"/>
     </g>
     <g id="line2d_14">
      <defs>
       <path id="mb73bc86a62" d="M 0 0 
L -3.5 0 
" style="stroke: #000000; stroke-width: 0.8"/>
      </defs>
      <g>
       <use xlink:href="#mb73bc86a62" x="46.051563" y="346.541599" style="stroke: #000000; stroke-width: 0.8"/>
      </g>
     </g>
     <g id="text_8">
      <!-- 66 -->
      <g transform="translate(23.781563 351.100662) scale(0.12 -0.12)">
       <defs>
        <path id="DejaVuSans-36" d="M 2113 2584 
Q 1688 2584 1439 2293 
Q 1191 2003 1191 1497 
Q 1191 994 1439 701 
Q 1688 409 2113 409 
Q 2538 409 2786 701 
Q 3034 994 3034 1497 
Q 3034 2003 2786 2293 
Q 2538 2584 2113 2584 
z
M 3366 4563 
L 3366 3988 
Q 3128 4100 2886 4159 
Q 2644 4219 2406 4219 
Q 1781 4219 1451 3797 
Q 1122 3375 1075 2522 
Q 1259 2794 1537 2939 
Q 1816 3084 2150 3084 
Q 2853 3084 3261 2657 
Q 3669 2231 3669 1497 
Q 3669 778 3244 343 
Q 2819 -91 2113 -91 
Q 1303 -91 875 529 
Q 447 1150 447 2328 
Q 447 3434 972 4092 
Q 1497 4750 2381 4750 
Q 2619 4750 2861 4703 
Q 3103 4656 3366 4563 
z
" transform="scale(0.015625)"/>
       </defs>
       <use xlink:href="#DejaVuSans-36"/>
       <use xlink:href="#DejaVuSans-36" x="63.623047"/>
      </g>
     </g>
    </g>
    <g id="ytick_2">
     <g id="line2d_15">
      <path d="M 46.051563 302.519098 
L 845.291562 302.519098 
" clip-path="url(#p4407e193c2)" style="fill: none; stroke: #b0b0b0; stroke-opacity: 0.3; stroke-width: 0.8; stroke-linecap: square"/>
     </g>
     <g id="line2d_16">
      <g>
       <use xlink:href="#mb73bc86a62" x="46.051563" y="302.519098" style="stroke: #000000; stroke-width: 0.8"/>
      </g>
     </g>
     <g id="text_9">
      <!-- 68 -->
      <g transform="translate(23.781563 307.078161) scale(0.12 -0.12)">
       <defs>
        <path id="DejaVuSans-38" d="M 2034 2216 
Q 1584 2216 1326 1975 
Q 1069 1734 1069 1313 
Q 1069 891 1326 650 
Q 1584 409 2034 409 
Q 2484 409 2743 651 
Q 3003 894 3003 1313 
Q 3003 1734 2745 1975 
Q 2488 2216 2034 2216 
z
M 1403 2484 
Q 997 2584 770 2862 
Q 544 3141 544 3541 
Q 544 4100 942 4425 
Q 1341 4750 2034 4750 
Q 2731 4750 3128 4425 
Q 3525 4100 3525 3541 
Q 3525 3141 3298 2862 
Q 3072 2584 2669 2484 
Q 3125 2378 3379 2068 
Q 3634 1759 3634 1313 
Q 3634 634 3220 271 
Q 2806 -91 2034 -91 
Q 1263 -91 848 271 
Q 434 634 434 1313 
Q 434 1759 690 2068 
Q 947 2378 1403 2484 
z
M 1172 3481 
Q 1172 3119 1398 2916 
Q 1625 2713 2034 2713 
Q 2441 2713 2670 2916 
Q 2900 3119 2900 3481 
Q 2900 3844 2670 4047 
Q 2441 4250 2034 4250 
Q 1625 4250 1398 4047 
Q 1172 3844 1172 3481 
z
" transform="scale(0.015625)"/>
       </defs>
       <use xlink:href="#DejaVuSans-36"/>
       <use xlink:href="#DejaVuSans-38" x="63.623047"/>
      </g>
     </g>
    </g>
    <g id="ytick_3">
     <g id="line2d_17">
      <path d="M 46.051563 258.496597 
L 845.291562 258.496597 
" clip-path="url(#p4407e193c2)" style="fill: none; stroke: #b0b0b0; stroke-opacity: 0.3; stroke-width: 0.8; stroke-linecap: square"/>
     </g>
     <g id="line2d_18">
      <g>
       <use xlink:href="#mb73bc86a62" x="46.051563" y="258.496597" style="stroke: #000000; stroke-width: 0.8"/>
      </g>
     </g>
     <g id="text_10">
      <!-- 70 -->
      <g transform="translate(23.781563 263.05566) scale(0.12 -0.12)">
       <defs>
        <path id="DejaVuSans-37" d="M 525 4666 
L 3525 4666 
L 3525 4397 
L 1831 0 
L 1172 0 
L 2766 4134 
L 525 4134 
L 525 4666 
z
" transform="scale(0.015625)"/>
       </defs>
       <use xlink:href="#DejaVuSans-37"/>
       <use xlink:href="#DejaVuSans-30" x="63.623047"/>
      </g>
     </g>
    </g>
    <g id="ytick_4">
     <g id="line2d_19">
      <path d="M 46.051563 214.474097 
L 845.291562 214.474097 
" clip-path="url(#p4407e193c2)" style="fill: none; stroke: #b0b0b0; stroke-opacity: 0.3; stroke-width: 0.8; stroke-linecap: square"/>
     </g>
     <g id="line2d_20">
      <g>
       <use xlink:href="#mb73bc86a62" x="46.051563" y="214.474097" style="stroke: #000000; stroke-width: 0.8"/>
      </g>
     </g>
     <g id="text_11">
      <!-- 72 -->
      <g transform="translate(23.781563 219.033159) scale(0.12 -0.12)">
       <use xlink:href="#DejaVuSans-37"/>
       <use xlink:href="#DejaVuSans-32" x="63.623047"/>
      </g>
     </g>
    </g>
    <g id="ytick_5">
     <g id="line2d_21">
      <path d="M 46.051563 170.451596 
L 845.291562 170.451596 
" clip-path="url(#p4407e193c2)" style="fill: none; stroke: #b0b0b0; stroke-opacity: 0.3; stroke-width: 0.8; stroke-linecap: square"/>
     </g>
     <g id="line2d_22">
      <g>
       <use xlink:href="#mb73bc86a62" x="46.051563" y="170.451596" style="stroke: #000000; stroke-width: 0.8"/>
      </g>
     </g>
     <g id="text_12">
      <!-- 74 -->
      <g transform="translate(23.781563 175.010658) scale(0.12 -0.12)">
       <use xlink:href="#DejaVuSans-37"/>
       <use xlink:href="#DejaVuSans-34" x="63.623047"/>
      </g>
     </g>
    </g>
    <g id="ytick_6">
     <g id="line2d_23">
      <path d="M 46.051563 126.429095 
L 845.291562 126.429095 
" clip-path="url(#p4407e193c2)" style="fill: none; stroke: #b0b0b0; stroke-opacity: 0.3; stroke-width: 0.8; stroke-linecap: square"/>
     </g>
     <g id="line2d_24">
      <g>
       <use xlink:href="#mb73bc86a62" x="46.051563" y="126.429095" style="stroke: #000000; stroke-width: 0.8"/>
      </g>
     </g>
     <g id="text_13">
      <!-- 76 -->
      <g transform="translate(23.781563 130.988157) scale(0.12 -0.12)">
       <use xlink:href="#DejaVuSans-37"/>
       <use xlink:href="#DejaVuSans-36" x="63.623047"/>
      </g>
     </g>
    </g>
    <g id="ytick_7">
     <g id="line2d_25">
      <path d="M 46.051563 82.406594 
L 845.291562 82.406594 
" clip-path="url(#p4407e193c2)" style="fill: none; stroke: #b0b0b0; stroke-opacity: 0.3; stroke-width: 0.8; stroke-linecap: square"/>
     </g>
     <g id="line2d_26">
      <g>
       <use xlink:href="#mb73bc86a62" x="46.051563" y="82.406594" style="stroke: #000000; stroke-width: 0.8"/>
      </g>
     </g>
     <g id="text_14">
      <!-- 78 -->
      <g transform="translate(23.781563 86.965657) scale(0.12 -0.12)">
       <use xlink:href="#DejaVuSans-37"/>
       <use xlink:href="#DejaVuSans-38" x="63.623047"/>
      </g>
     </g>
    </g>
    <g id="ytick_8">
     <g id="line2d_27">
      <path d="M 46.051563 38.384093 
L 845.291562 38.384093 
" clip-path="url(#p4407e193c2)" style="fill: none; stroke: #b0b0b0; stroke-opacity: 0.3; stroke-width: 0.8; stroke-linecap: square"/>
     </g>
     <g id="line2d_28">
      <g>
       <use xlink:href="#mb73bc86a62" x="46.051563" y="38.384093" style="stroke: #000000; stroke-width: 0.8"/>
      </g>
     </g>
     <g id="text_15">
      <!-- 80 -->
      <g transform="translate(23.781563 42.943156) scale(0.12 -0.12)">
       <use xlink:href="#DejaVuSans-38"/>
       <use xlink:href="#DejaVuSans-30" x="63.623047"/>
      </g>
     </g>
    </g>
    <g id="text_16">
     <!-- Total Reward -->
     <g transform="translate(17.077969 242.550547) rotate(-90) scale(0.13 -0.13)">
      <defs>
       <path id="DejaVuSans-54" d="M -19 4666 
L 3928 4666 
L 3928 4134 
L 2272 4134 
L 2272 0 
L 1638 0 
L 1638 4134 
L -19 4134 
L -19 4666 
z
" transform="scale(0.015625)"/>
       <path id="DejaVuSans-74" d="M 1172 4494 
L 1172 3500 
L 2356 3500 
L 2356 3053 
L 1172 3053 
L 1172 1153 
Q 1172 725 1289 603 
Q 1406 481 1766 481 
L 2356 481 
L 2356 0 
L 1766 0 
Q 1100 0 847 248 
Q 594 497 594 1153 
L 594 3053 
L 172 3053 
L 172 3500 
L 594 3500 
L 594 4494 
L 1172 4494 
z
" transform="scale(0.015625)"/>
       <path id="DejaVuSans-61" d="M 2194 1759 
Q 1497 1759 1228 1600 
Q 959 1441 959 1056 
Q 959 750 1161 570 
Q 1363 391 1709 391 
Q 2188 391 2477 730 
Q 2766 1069 2766 1631 
L 2766 1759 
L 2194 1759 
z
M 3341 1997 
L 3341 0 
L 2766 0 
L 2766 531 
Q 2569 213 2275 61 
Q 1981 -91 1556 -91 
Q 1019 -91 701 211 
Q 384 513 384 1019 
Q 384 1609 779 1909 
Q 1175 2209 1959 2209 
L 2766 2209 
L 2766 2266 
Q 2766 2663 2505 2880 
Q 2244 3097 1772 3097 
Q 1472 3097 1187 3025 
Q 903 2953 641 2809 
L 641 3341 
Q 956 3463 1253 3523 
Q 1550 3584 1831 3584 
Q 2591 3584 2966 3190 
Q 3341 2797 3341 1997 
z
" transform="scale(0.015625)"/>
       <path id="DejaVuSans-6c" d="M 603 4863 
L 1178 4863 
L 1178 0 
L 603 0 
L 603 4863 
z
" transform="scale(0.015625)"/>
       <path id="DejaVuSans-20" transform="scale(0.015625)"/>
       <path id="DejaVuSans-52" d="M 2841 2188 
Q 3044 2119 3236 1894 
Q 3428 1669 3622 1275 
L 4263 0 
L 3584 0 
L 2988 1197 
Q 2756 1666 2539 1819 
Q 2322 1972 1947 1972 
L 1259 1972 
L 1259 0 
L 628 0 
L 628 4666 
L 2053 4666 
Q 2853 4666 3247 4331 
Q 3641 3997 3641 3322 
Q 3641 2881 3436 2590 
Q 3231 2300 2841 2188 
z
M 1259 4147 
L 1259 2491 
L 2053 2491 
Q 2509 2491 2742 2702 
Q 2975 2913 2975 3322 
Q 2975 3731 2742 3939 
Q 2509 4147 2053 4147 
L 1259 4147 
z
" transform="scale(0.015625)"/>
       <path id="DejaVuSans-77" d="M 269 3500 
L 844 3500 
L 1563 769 
L 2278 3500 
L 2956 3500 
L 3675 769 
L 4391 3500 
L 4966 3500 
L 4050 0 
L 3372 0 
L 2619 2869 
L 1863 0 
L 1184 0 
L 269 3500 
z
" transform="scale(0.015625)"/>
       <path id="DejaVuSans-72" d="M 2631 2963 
Q 2534 3019 2420 3045 
Q 2306 3072 2169 3072 
Q 1681 3072 1420 2755 
Q 1159 2438 1159 1844 
L 1159 0 
L 581 0 
L 581 3500 
L 1159 3500 
L 1159 2956 
Q 1341 3275 1631 3429 
Q 1922 3584 2338 3584 
Q 2397 3584 2469 3576 
Q 2541 3569 2628 3553 
L 2631 2963 
z
" transform="scale(0.015625)"/>
      </defs>
      <use xlink:href="#DejaVuSans-54"/>
      <use xlink:href="#DejaVuSans-6f" x="44.083984"/>
      <use xlink:href="#DejaVuSans-74" x="105.265625"/>
      <use xlink:href="#DejaVuSans-61" x="144.474609"/>
      <use xlink:href="#DejaVuSans-6c" x="205.753906"/>
      <use xlink:href="#DejaVuSans-20" x="233.537109"/>
      <use xlink:href="#DejaVuSans-52" x="265.324219"/>
      <use xlink:href="#DejaVuSans-65" x="330.306641"/>
      <use xlink:href="#DejaVuSans-77" x="391.830078"/>
      <use xlink:href="#DejaVuSans-61" x="473.617188"/>
      <use xlink:href="#DejaVuSans-72" x="534.896484"/>
      <use xlink:href="#DejaVuSans-64" x="574.259766"/>
     </g>
    </g>
   </g>
   <g id="line2d_29">
    <path d="M 82.380653 357.165087 
L 83.839653 362.243267 
L 85.298653 348.332227 
L 86.757652 337.83082 
L 88.216652 331.9899 
L 89.675652 322.091329 
L 91.134651 308.436991 
L 92.593651 301.317646 
L 94.05265 309.103303 
L 95.51165 312.247046 
L 96.97065 323.950276 
L 98.429649 328.955587 
L 99.888649 326.907289 
L 101.347649 319.575307 
L 102.806648 318.910946 
L 104.265648 315.364477 
L 105.724648 310.09201 
L 107.183647 313.948741 
L 108.642647 320.724871 
L 110.101646 318.461635 
L 111.560646 313.250154 
L 113.019646 310.146326 
L 114.478645 309.874796 
L 115.937645 303.71309 
L 117.396645 295.739868 
L 118.855644 302.211589 
L 120.314644 301.442003 
L 121.773644 300.027516 
L 123.232643 304.207855 
L 124.691643 303.271996 
L 126.150642 299.391501 
L 127.609642 299.962944 
L 129.068642 306.249196 
L 130.527641 311.599515 
L 131.986641 323.419862 
L 133.445641 316.892631 
L 134.90464 316.727629 
L 137.82264 296.050723 
L 139.281639 287.418181 
L 140.740639 300.11803 
L 142.199638 294.638949 
L 143.658638 302.285552 
L 145.117638 304.888852 
L 146.576637 298.834345 
L 148.035637 291.910172 
L 149.494637 280.641377 
L 150.953636 285.053578 
L 152.412636 301.506808 
L 153.871636 302.514717 
L 155.330635 309.996182 
L 156.789635 309.643646 
L 158.248634 305.729688 
L 159.707634 296.674052 
L 161.166634 297.536883 
L 162.625633 294.05313 
L 164.084633 298.83742 
L 165.543633 296.813732 
L 167.002632 291.4831 
L 168.461632 292.594997 
L 169.920632 282.185262 
L 171.379631 278.170037 
L 172.838631 288.657542 
L 174.29763 281.434388 
L 175.75663 276.152393 
L 177.21563 277.098807 
L 178.674629 276.333214 
L 180.133629 270.570095 
L 181.592629 272.035082 
L 183.051628 286.869355 
L 184.510628 284.122087 
L 185.969627 283.338657 
L 187.428627 302.652141 
L 188.887627 297.786358 
L 190.346626 295.80414 
L 191.805626 292.254633 
L 193.264626 283.630043 
L 194.723625 272.664748 
L 196.182625 272.387828 
L 199.100624 278.097389 
L 200.559624 258.081801 
L 202.018623 263.664942 
L 203.477623 263.867953 
L 204.936623 266.088073 
L 206.395622 274.141643 
L 207.854622 263.93023 
L 209.313622 265.880477 
L 210.772621 263.812389 
L 212.231621 260.132803 
L 213.690621 250.773351 
L 215.14962 248.82619 
L 216.60862 233.184101 
L 218.067619 239.183997 
L 219.526619 241.082796 
L 220.985619 254.663131 
L 222.444618 240.685565 
L 223.903618 244.509595 
L 225.362618 258.944072 
L 226.821617 269.026127 
L 228.280617 259.764887 
L 229.739617 261.651127 
L 231.198616 264.236155 
L 232.657616 263.017753 
L 234.116615 266.009239 
L 235.575615 260.208935 
L 237.034615 255.358035 
L 238.493614 258.128604 
L 239.952614 252.903031 
L 241.411614 262.507271 
L 242.870613 269.653368 
L 244.329613 250.777483 
L 245.788613 250.820445 
L 248.706612 245.064707 
L 250.165611 241.563468 
L 251.624611 231.929044 
L 253.083611 252.550172 
L 254.54261 251.396074 
L 256.00161 248.986498 
L 257.46061 245.721289 
L 258.919609 244.255824 
L 260.378609 253.487139 
L 261.837609 252.794658 
L 263.296608 247.339544 
L 264.755608 246.294778 
L 266.214607 247.18329 
L 267.673607 247.879869 
L 269.132607 243.814858 
L 270.591606 243.796771 
L 272.050606 228.401984 
L 273.509606 238.077232 
L 274.968605 223.636102 
L 276.427605 214.447265 
L 277.886604 232.483417 
L 279.345604 230.042764 
L 280.804604 232.853567 
L 282.263603 236.374771 
L 283.722603 231.627863 
L 285.181603 218.128539 
L 286.640602 222.122659 
L 288.099602 220.493821 
L 289.558602 214.005473 
L 291.017601 204.84846 
L 292.476601 198.302593 
L 293.9356 205.296299 
L 295.3946 203.670247 
L 296.8536 210.378389 
L 298.312599 203.715916 
L 299.771599 224.277499 
L 301.230599 219.080273 
L 302.689598 200.292919 
L 304.148598 202.885506 
L 305.607598 198.443484 
L 307.066597 189.261518 
L 308.525597 182.799999 
L 309.984596 174.75183 
L 311.443596 167.806146 
L 312.902596 169.464164 
L 314.361595 186.203471 
L 315.820595 192.834999 
L 317.279595 200.985313 
L 318.738594 210.665851 
L 320.197594 217.055662 
L 321.656594 213.897899 
L 324.574593 222.033754 
L 326.033592 209.4057 
L 327.492592 207.334582 
L 328.951592 223.881521 
L 330.410591 228.219466 
L 331.869591 227.920288 
L 333.328591 232.556006 
L 334.78759 229.687274 
L 336.24659 232.278186 
L 337.70559 235.778924 
L 339.164589 229.110697 
L 342.082588 208.29417 
L 343.541588 214.356748 
L 345.000588 214.878629 
L 346.459587 205.773154 
L 347.918587 200.306382 
L 349.377587 208.434491 
L 350.836586 195.005989 
L 352.295586 192.431261 
L 355.213585 194.579561 
L 356.672585 191.000033 
L 358.131584 182.188903 
L 359.590584 194.322095 
L 361.049584 209.412383 
L 362.508583 197.835906 
L 363.967583 198.287681 
L 365.426583 215.273045 
L 366.885582 197.654778 
L 368.344582 173.718563 
L 369.803581 175.68285 
L 371.262581 179.419181 
L 372.721581 178.670884 
L 374.18058 177.517188 
L 375.63958 168.174299 
L 377.09858 179.417205 
L 378.557579 163.233474 
L 380.016579 172.186061 
L 381.475579 165.453543 
L 382.934578 170.515669 
L 384.393578 155.138627 
L 385.852577 155.750792 
L 387.311577 156.661908 
L 388.770577 142.485788 
L 390.229576 133.542286 
L 391.688576 118.021261 
L 393.147576 112.50168 
L 394.606575 104.811869 
L 396.065575 117.791786 
L 397.524575 137.102579 
L 398.983574 143.650988 
L 400.442574 145.255421 
L 401.901573 144.128727 
L 403.360573 146.338628 
L 404.819573 131.778131 
L 406.278572 115.795184 
L 407.737572 106.506702 
L 409.196572 114.424944 
L 410.655571 119.789329 
L 412.114571 139.667508 
L 413.573571 147.59227 
L 415.03257 142.868362 
L 416.49157 138.856891 
L 417.950569 166.482599 
L 419.409569 163.141376 
L 420.868569 182.032245 
L 422.327568 174.774253 
L 423.786568 168.231517 
L 425.245568 154.252405 
L 426.704567 180.036089 
L 428.163567 167.712095 
L 429.622567 144.422092 
L 431.081566 150.59868 
L 432.540566 144.751459 
L 433.999565 142.486191 
L 435.458565 160.99195 
L 436.917565 148.902844 
L 438.376564 122.566416 
L 439.835564 121.853469 
L 441.294564 126.487958 
L 442.753563 117.552182 
L 444.212563 106.856045 
L 445.671562 102.859 
L 447.130562 113.59494 
L 448.589562 105.025385 
L 450.048561 104.176597 
L 451.507561 87.907493 
L 452.966561 95.907706 
L 454.42556 92.2783 
L 455.88456 93.910762 
L 457.34356 99.658492 
L 458.802559 108.832464 
L 461.720558 120.591661 
L 463.179558 121.43834 
L 464.638558 99.930247 
L 466.097557 93.6886 
L 467.556557 106.94995 
L 469.015557 102.195283 
L 470.474556 100.612934 
L 471.933556 103.15024 
L 473.392556 102.291428 
L 474.851555 110.807864 
L 476.310555 117.362845 
L 477.769554 131.035192 
L 480.687554 96.340908 
L 482.146553 119.577602 
L 483.605553 93.043579 
L 485.064553 103.153279 
L 486.523552 110.836404 
L 487.982552 108.974356 
L 489.441552 108.006363 
L 490.900551 102.402823 
L 492.359551 81.657781 
L 493.81855 110.971043 
L 495.27755 113.499066 
L 496.73655 122.181708 
L 498.195549 110.879739 
L 499.654549 104.877433 
L 501.113549 110.522016 
L 502.572548 93.950428 
L 504.031548 96.399641 
L 505.490548 92.196531 
L 506.949547 99.152819 
L 508.408547 100.530539 
L 509.867546 117.952759 
L 511.326546 110.173639 
L 512.785546 121.021586 
L 514.244545 122.756752 
L 515.703545 146.520608 
L 517.162545 148.693408 
L 518.621544 145.715651 
L 520.080544 150.445899 
L 521.539544 157.751022 
L 522.998543 162.624688 
L 524.457543 173.749819 
L 525.916542 154.630176 
L 527.375542 157.983831 
L 527.375542 157.983831 
" clip-path="url(#p4407e193c2)" style="fill: none; stroke: #2196f3; stroke-width: 2; stroke-linecap: square"/>
   </g>
   <g id="line2d_30">
    <path d="M 82.380653 44.612463 
L 83.839653 41.454972 
L 85.298653 39.952358 
L 86.757652 53.668068 
L 88.216652 58.297082 
L 89.675652 52.913625 
L 91.134651 51.713916 
L 92.593651 57.277875 
L 94.05265 49.977392 
L 95.51165 51.428836 
L 96.97065 43.88152 
L 98.429649 64.753826 
L 99.888649 74.535201 
L 101.347649 73.004356 
L 102.806648 82.422182 
L 104.265648 82.815713 
L 105.724648 87.729949 
L 107.183647 89.649741 
L 108.642647 85.799651 
L 111.560646 96.849478 
L 113.019646 94.74428 
L 114.478645 109.059598 
L 115.937645 115.012163 
L 117.396645 142.879749 
L 118.855644 161.803513 
L 120.314644 172.111385 
L 121.773644 173.010848 
L 123.232643 186.484561 
L 124.691643 183.911404 
L 126.150642 199.780738 
L 127.609642 209.509337 
L 129.068642 211.831689 
L 130.527641 216.080342 
L 131.986641 220.759406 
L 133.445641 226.869677 
L 134.90464 245.677594 
L 136.36364 251.80805 
L 137.82264 256.617245 
L 139.281639 255.68365 
L 140.740639 243.572614 
L 142.199638 243.726559 
L 143.658638 260.162058 
L 145.117638 271.668429 
L 146.576637 273.438832 
L 148.035637 284.661976 
L 149.494637 282.907523 
L 150.953636 292.430547 
L 152.412636 294.144943 
L 153.871636 302.197786 
L 155.330635 286.780634 
L 156.789635 289.158046 
L 158.248634 288.799686 
L 159.707634 317.645287 
L 161.166634 317.038436 
L 162.625633 308.4912 
L 164.084633 318.271999 
L 165.543633 314.865944 
L 167.002632 314.090913 
L 168.461632 320.341918 
L 169.920632 323.154136 
L 171.379631 323.989868 
L 172.838631 328.06968 
L 175.75663 309.649641 
L 177.21563 322.937909 
L 178.674629 325.8559 
L 180.133629 319.581024 
L 181.592629 327.563926 
L 183.051628 311.173189 
L 184.510628 303.41057 
L 185.969627 300.348596 
L 187.428627 292.895798 
L 188.887627 292.447574 
L 190.346626 307.385648 
L 191.805626 303.219789 
L 193.264626 316.314374 
L 194.723625 320.8139 
L 196.182625 322.061209 
L 197.641625 308.307481 
L 199.100624 307.91291 
L 200.559624 297.290627 
L 202.018623 306.74352 
L 203.477623 302.756436 
L 204.936623 307.86093 
L 206.395622 296.992111 
L 207.854622 301.903094 
L 209.313622 305.03184 
L 210.772621 294.330284 
L 212.231621 294.440497 
L 213.690621 285.882381 
L 215.14962 292.74913 
L 216.60862 277.361039 
L 218.067619 273.887063 
L 219.526619 286.038921 
L 220.985619 292.062985 
L 222.444618 302.267109 
L 223.903618 302.049955 
L 225.362618 302.590878 
L 226.821617 297.073427 
L 228.280617 304.94599 
L 229.739617 299.744687 
L 231.198616 295.030758 
L 232.657616 288.021469 
L 234.116615 283.374532 
L 235.575615 291.037608 
L 237.034615 291.377422 
L 238.493614 284.73677 
L 239.952614 279.046123 
L 241.411614 271.98286 
L 242.870613 266.877938 
L 244.329613 273.504932 
L 245.788613 279.567982 
L 247.247612 286.214286 
L 248.706612 285.946724 
L 250.165611 291.788205 
L 251.624611 292.212045 
L 253.083611 293.652165 
L 256.00161 300.637431 
L 257.46061 296.412347 
L 258.919609 306.164634 
L 260.378609 318.61484 
L 261.837609 311.730252 
L 263.296608 319.255044 
L 264.755608 313.383186 
L 266.214607 313.340883 
L 267.673607 327.858523 
L 269.132607 337.807413 
L 270.591606 330.284828 
L 272.050606 329.479618 
L 273.509606 328.903665 
L 274.968605 322.810296 
L 276.427605 325.690458 
L 279.345604 313.659116 
L 280.804604 315.585231 
L 282.263603 319.582351 
L 283.722603 325.402914 
L 285.181603 314.27162 
L 286.640602 304.452102 
L 288.099602 313.668331 
L 289.558602 323.758057 
L 291.017601 303.671879 
L 292.476601 296.313306 
L 293.9356 305.695833 
L 295.3946 309.428202 
L 296.8536 304.595186 
L 298.312599 317.010545 
L 299.771599 305.117136 
L 302.689598 291.610793 
L 304.148598 302.288613 
L 305.607598 305.591232 
L 307.066597 306.668823 
L 308.525597 308.136683 
L 309.984596 306.142229 
L 311.443596 305.46608 
L 312.902596 308.132281 
L 314.361595 302.216497 
L 315.820595 300.499059 
L 317.279595 291.533309 
L 318.738594 299.823766 
L 320.197594 302.749301 
L 321.656594 292.715107 
L 323.115593 300.253397 
L 324.574593 304.939084 
L 326.033592 299.095147 
L 327.492592 296.534049 
L 328.951592 298.233724 
L 330.410591 301.880708 
L 331.869591 296.802322 
L 333.328591 302.3575 
L 334.78759 307.273269 
L 336.24659 293.088278 
L 337.70559 291.444818 
L 339.164589 293.417689 
L 340.623589 285.198252 
L 343.541588 279.863214 
L 345.000588 282.389333 
L 346.459587 284.296878 
L 347.918587 292.494596 
L 349.377587 293.93757 
L 350.836586 298.805574 
L 352.295586 299.645784 
L 353.754586 303.124328 
L 356.672585 314.666486 
L 358.131584 314.975001 
L 359.590584 312.644437 
L 361.049584 320.218105 
L 362.508583 323.383037 
L 363.967583 311.854274 
L 365.426583 324.26984 
L 366.885582 331.203171 
L 368.344582 320.109654 
L 369.803581 322.443087 
L 371.262581 333.938368 
L 372.721581 321.77717 
L 374.18058 303.835679 
L 375.63958 315.939746 
L 377.09858 304.449 
L 378.557579 296.726642 
L 380.016579 307.204846 
L 381.475579 331.312845 
L 382.934578 330.204375 
L 384.393578 336.965562 
L 385.852577 326.159945 
L 387.311577 321.98293 
L 388.770577 327.00973 
L 390.229576 330.622308 
L 391.688576 337.893912 
L 393.147576 336.805436 
L 394.606575 327.988823 
L 396.065575 330.944485 
L 397.524575 318.332438 
L 398.983574 329.123913 
L 400.442574 329.190088 
L 401.901573 331.640508 
L 403.360573 320.670315 
L 404.819573 324.535173 
L 406.278572 319.786574 
L 407.737572 326.361225 
L 409.196572 328.308284 
L 410.655571 325.155437 
L 412.114571 332.394794 
L 413.573571 329.236548 
L 415.03257 323.165978 
L 416.49157 315.50522 
L 417.950569 312.551141 
L 419.409569 307.402343 
L 420.868569 304.573323 
L 422.327568 309.647905 
L 423.786568 317.858663 
L 425.245568 315.88637 
L 426.704567 330.68726 
L 428.163567 328.33752 
L 429.622567 332.357276 
L 431.081566 335.08828 
L 432.540566 344.063103 
L 433.999565 344.696047 
L 435.458565 333.19795 
L 436.917565 327.754261 
L 438.376564 324.536037 
L 439.835564 329.702768 
L 441.294564 342.593087 
L 442.753563 328.236614 
L 444.212563 332.08685 
L 445.671562 325.368562 
L 447.130562 317.022401 
L 448.589562 322.295812 
L 450.048561 320.60318 
L 451.507561 313.696202 
L 452.966561 312.578327 
L 454.42556 312.703131 
L 455.88456 319.718129 
L 457.34356 322.358574 
L 458.802559 325.562621 
L 460.261559 317.607496 
L 461.720558 319.771195 
L 463.179558 318.365666 
L 464.638558 320.226195 
L 466.097557 312.21683 
L 467.556557 315.860464 
L 469.015557 318.414574 
L 470.474556 310.838173 
L 471.933556 311.143261 
L 473.392556 321.676908 
L 474.851555 323.091952 
L 476.310555 311.084625 
L 477.769554 301.68869 
L 479.228554 299.961909 
L 480.687554 299.066501 
L 482.146553 285.417416 
L 483.605553 270.640394 
L 485.064553 278.629344 
L 486.523552 276.366472 
L 487.982552 272.460258 
L 489.441552 273.058457 
L 490.900551 286.01953 
L 492.359551 285.177522 
L 493.81855 274.793037 
L 495.27755 277.654699 
L 496.73655 275.616645 
L 498.195549 265.167922 
L 499.654549 268.263924 
L 501.113549 277.597373 
L 502.572548 277.113856 
L 504.031548 288.992901 
L 505.490548 292.655902 
L 506.949547 277.349226 
L 508.408547 276.235806 
L 509.867546 277.684969 
L 511.326546 264.882058 
L 514.244545 271.160306 
L 515.703545 280.1068 
L 517.162545 281.376864 
L 518.621544 284.122984 
L 520.080544 290.274914 
L 521.539544 285.004673 
L 522.998543 294.430487 
L 524.457543 294.581176 
L 525.916542 303.255494 
L 527.375542 310.930929 
L 528.834542 311.343685 
L 530.293541 298.801139 
L 531.752541 299.840566 
L 533.211541 291.207998 
L 534.67054 289.026262 
L 536.12954 293.686384 
L 537.588539 290.986064 
L 539.047539 293.265809 
L 540.506539 292.012142 
L 541.965538 297.764887 
L 543.424538 310.990219 
L 544.883538 313.905634 
L 546.342537 315.42472 
L 547.801537 321.888774 
L 549.260537 313.726994 
L 550.719536 306.323038 
L 552.178536 315.692781 
L 553.637535 297.27287 
L 555.096535 294.227601 
L 556.555535 292.077206 
L 558.014534 285.36975 
L 560.932534 288.180781 
L 563.850533 301.316557 
L 565.309533 301.225871 
L 566.768532 289.324572 
L 568.227532 290.747066 
L 569.686531 288.382794 
L 571.145531 288.891555 
L 572.604531 295.23151 
L 574.06353 297.100734 
L 575.52253 293.854715 
L 576.98153 289.069294 
L 578.440529 292.447361 
L 579.899529 310.708903 
L 581.358529 311.709739 
L 582.817528 307.60301 
L 584.276528 319.208761 
L 585.735527 344.52696 
L 587.194527 349.735649 
L 588.653527 346.164907 
L 590.112526 330.548572 
L 591.571526 321.664297 
L 593.030526 317.760437 
L 594.489525 317.742442 
L 595.948525 330.934656 
L 597.407525 329.447345 
L 598.866524 319.236905 
L 600.325524 321.246048 
L 601.784523 336.445689 
L 603.243523 321.947236 
L 604.702523 309.665644 
L 606.161522 309.499962 
L 607.620522 302.904767 
L 609.079522 305.227794 
L 610.538521 313.702239 
L 611.997521 325.740224 
L 613.456521 339.728417 
L 614.91552 341.145128 
L 616.37452 341.79577 
L 617.833519 327.470282 
L 619.292519 329.11408 
L 620.751519 336.311489 
L 622.210518 355.38807 
L 623.669518 355.449755 
L 625.128518 345.922168 
L 626.587517 337.159312 
L 628.046517 337.670853 
L 629.505516 329.539215 
L 630.964516 328.657276 
L 632.423516 337.046265 
L 633.882515 326.798825 
L 635.341515 319.944464 
L 636.800515 333.851626 
L 638.259514 330.369484 
L 639.718514 329.928388 
L 641.177514 327.849761 
L 642.636513 332.276154 
L 644.095513 337.673417 
L 645.554512 337.560405 
L 647.013512 337.801012 
L 648.472512 323.322406 
L 649.931511 315.454188 
L 651.390511 314.394552 
L 652.849511 317.117592 
L 654.30851 308.738746 
L 655.76751 319.787256 
L 657.22651 327.352262 
L 658.685509 313.083584 
L 660.144509 313.547299 
L 661.603508 320.889903 
L 663.062508 328.958861 
L 664.521508 327.099103 
L 665.980507 333.701248 
L 667.439507 335.184337 
L 668.898507 332.161203 
L 670.357506 327.031094 
L 671.816506 316.092974 
L 673.275506 310.225276 
L 674.734505 303.649061 
L 676.193505 301.828383 
L 677.652504 308.428828 
L 679.111504 313.384257 
L 680.570504 311.769982 
L 682.029503 316.621824 
L 683.488503 312.391823 
L 684.947503 314.600568 
L 686.406502 309.037046 
L 687.865502 315.228792 
L 689.324502 307.584048 
L 690.783501 307.365664 
L 692.242501 311.205209 
L 693.7015 301.970931 
L 695.1605 306.952345 
L 696.6195 299.139696 
L 698.078499 296.615054 
L 699.537499 292.452677 
L 700.996499 278.933796 
L 702.455498 283.189422 
L 703.914498 275.680097 
L 705.373498 283.676478 
L 706.832497 293.97833 
L 708.291497 298.362924 
L 711.209496 305.31982 
L 712.668496 306.914627 
L 714.127495 313.696407 
L 715.586495 316.009006 
L 717.045495 309.559126 
L 718.504494 314.027547 
L 719.963494 311.141948 
L 721.422493 315.280494 
L 722.881493 320.352158 
L 724.340493 323.296944 
L 725.799492 320.536466 
L 727.258492 324.152133 
L 728.717492 321.213629 
L 730.176491 324.356638 
L 731.635491 312.814162 
L 733.094491 311.059469 
L 734.55349 326.6056 
L 736.01249 318.216099 
L 737.471489 322.374912 
L 740.389489 302.06454 
L 741.848488 300.296158 
L 743.307488 282.724877 
L 744.766488 274.399311 
L 746.225487 275.768952 
L 747.684487 271.963161 
L 749.143487 284.086807 
L 750.602486 288.618404 
L 752.061486 286.077257 
L 753.520485 299.049274 
L 754.979485 305.746364 
L 756.438485 309.665327 
L 757.897484 308.18961 
L 759.356484 316.366689 
L 760.815484 307.405613 
L 762.274483 307.634925 
L 763.733483 314.735136 
L 765.192483 324.817965 
L 766.651482 327.242957 
L 768.110482 334.428934 
L 769.569481 332.089878 
L 771.028481 333.213328 
L 772.487481 335.689562 
L 773.94648 329.749516 
L 775.40548 327.107576 
L 776.86448 309.85116 
L 778.323479 305.290127 
L 779.782479 301.984638 
L 781.241479 299.599765 
L 782.700478 300.706265 
L 784.159478 294.552704 
L 785.618477 316.243607 
L 787.077477 310.087832 
L 788.536477 313.788053 
L 789.995476 320.212 
L 791.454476 340.817476 
L 792.913476 350.075019 
L 794.372475 346.30524 
L 795.831475 337.955621 
L 797.290475 334.876249 
L 798.749474 329.265171 
L 800.208474 324.522216 
L 801.667473 326.218848 
L 803.126473 318.505652 
L 804.585473 316.048986 
L 806.044472 311.968615 
L 807.503472 311.676065 
L 808.962472 331.008485 
L 808.962472 331.008485 
" clip-path="url(#p4407e193c2)" style="fill: none; stroke: #4caf50; stroke-width: 2; stroke-linecap: square"/>
   </g>
   <g id="patch_3">
    <path d="M 46.051563 378.357812 
L 46.051563 23.837812 
" style="fill: none; stroke: #000000; stroke-width: 0.8; stroke-linejoin: miter; stroke-linecap: square"/>
   </g>
   <g id="patch_4">
    <path d="M 845.291562 378.357812 
L 845.291562 23.837812 
" style="fill: none; stroke: #000000; stroke-width: 0.8; stroke-linejoin: miter; stroke-linecap: square"/>
   </g>
   <g id="patch_5">
    <path d="M 46.051563 378.357813 
L 845.291562 378.357813 
" style="fill: none; stroke: #000000; stroke-width: 0.8; stroke-linejoin: miter; stroke-linecap: square"/>
   </g>
   <g id="patch_6">
    <path d="M 46.051563 23.837812 
L 845.291562 23.837812 
" style="fill: none; stroke: #000000; stroke-width: 0.8; stroke-linejoin: miter; stroke-linecap: square"/>
   </g>
   <g id="text_17">
    <!-- DQN vs PPO: Training Reward Comparison -->
    <g transform="translate(298.836719 17.837812) scale(0.14 -0.14)">
     <defs>
      <path id="DejaVuSans-44" d="M 1259 4147 
L 1259 519 
L 2022 519 
Q 2988 519 3436 956 
Q 3884 1394 3884 2338 
Q 3884 3275 3436 3711 
Q 2988 4147 2022 4147 
L 1259 4147 
z
M 628 4666 
L 1925 4666 
Q 3281 4666 3915 4102 
Q 4550 3538 4550 2338 
Q 4550 1131 3912 565 
Q 3275 0 1925 0 
L 628 0 
L 628 4666 
z
" transform="scale(0.015625)"/>
      <path id="DejaVuSans-51" d="M 2522 4238 
Q 1834 4238 1429 3725 
Q 1025 3213 1025 2328 
Q 1025 1447 1429 934 
Q 1834 422 2522 422 
Q 3209 422 3611 934 
Q 4013 1447 4013 2328 
Q 4013 3213 3611 3725 
Q 3209 4238 2522 4238 
z
M 3406 84 
L 4238 -825 
L 3475 -825 
L 2784 -78 
Q 2681 -84 2626 -87 
Q 2572 -91 2522 -91 
Q 1538 -91 948 567 
Q 359 1225 359 2328 
Q 359 3434 948 4092 
Q 1538 4750 2522 4750 
Q 3503 4750 4090 4092 
Q 4678 3434 4678 2328 
Q 4678 1516 4351 937 
Q 4025 359 3406 84 
z
" transform="scale(0.015625)"/>
      <path id="DejaVuSans-4e" d="M 628 4666 
L 1478 4666 
L 3547 763 
L 3547 4666 
L 4159 4666 
L 4159 0 
L 3309 0 
L 1241 3903 
L 1241 0 
L 628 0 
L 628 4666 
z
" transform="scale(0.015625)"/>
      <path id="DejaVuSans-76" d="M 191 3500 
L 800 3500 
L 1894 563 
L 2988 3500 
L 3597 3500 
L 2284 0 
L 1503 0 
L 191 3500 
z
" transform="scale(0.015625)"/>
      <path id="DejaVuSans-50" d="M 1259 4147 
L 1259 2394 
L 2053 2394 
Q 2494 2394 2734 2622 
Q 2975 2850 2975 3272 
Q 2975 3691 2734 3919 
Q 2494 4147 2053 4147 
L 1259 4147 
z
M 628 4666 
L 2053 4666 
Q 2838 4666 3239 4311 
Q 3641 3956 3641 3272 
Q 3641 2581 3239 2228 
Q 2838 1875 2053 1875 
L 1259 1875 
L 1259 0 
L 628 0 
L 628 4666 
z
" transform="scale(0.015625)"/>
      <path id="DejaVuSans-4f" d="M 2522 4238 
Q 1834 4238 1429 3725 
Q 1025 3213 1025 2328 
Q 1025 1447 1429 934 
Q 1834 422 2522 422 
Q 3209 422 3611 934 
Q 4013 1447 4013 2328 
Q 4013 3213 3611 3725 
Q 3209 4238 2522 4238 
z
M 2522 4750 
Q 3503 4750 4090 4092 
Q 4678 3434 4678 2328 
Q 4678 1225 4090 567 
Q 3503 -91 2522 -91 
Q 1538 -91 948 565 
Q 359 1222 359 2328 
Q 359 3434 948 4092 
Q 1538 4750 2522 4750 
z
" transform="scale(0.015625)"/>
      <path id="DejaVuSans-3a" d="M 750 794 
L 1409 794 
L 1409 0 
L 750 0 
L 750 794 
z
M 750 3309 
L 1409 3309 
L 1409 2516 
L 750 2516 
L 750 3309 
z
" transform="scale(0.015625)"/>
      <path id="DejaVuSans-6e" d="M 3513 2113 
L 3513 0 
L 2938 0 
L 2938 2094 
Q 2938 2591 2744 2837 
Q 2550 3084 2163 3084 
Q 1697 3084 1428 2787 
Q 1159 2491 1159 1978 
L 1159 0 
L 581 0 
L 581 3500 
L 1159 3500 
L 1159 2956 
Q 1366 3272 1645 3428 
Q 1925 3584 2291 3584 
Q 2894 3584 3203 3211 
Q 3513 2838 3513 2113 
z
" transform="scale(0.015625)"/>
      <path id="DejaVuSans-67" d="M 2906 1791 
Q 2906 2416 2648 2759 
Q 2391 3103 1925 3103 
Q 1463 3103 1205 2759 
Q 947 2416 947 1791 
Q 947 1169 1205 825 
Q 1463 481 1925 481 
Q 2391 481 2648 825 
Q 2906 1169 2906 1791 
z
M 3481 434 
Q 3481 -459 3084 -895 
Q 2688 -1331 1869 -1331 
Q 1566 -1331 1297 -1286 
Q 1028 -1241 775 -1147 
L 775 -588 
Q 1028 -725 1275 -790 
Q 1522 -856 1778 -856 
Q 2344 -856 2625 -561 
Q 2906 -266 2906 331 
L 2906 616 
Q 2728 306 2450 153 
Q 2172 0 1784 0 
Q 1141 0 747 490 
Q 353 981 353 1791 
Q 353 2603 747 3093 
Q 1141 3584 1784 3584 
Q 2172 3584 2450 3431 
Q 2728 3278 2906 2969 
L 2906 3500 
L 3481 3500 
L 3481 434 
z
" transform="scale(0.015625)"/>
      <path id="DejaVuSans-43" d="M 4122 4306 
L 4122 3641 
Q 3803 3938 3442 4084 
Q 3081 4231 2675 4231 
Q 1875 4231 1450 3742 
Q 1025 3253 1025 2328 
Q 1025 1406 1450 917 
Q 1875 428 2675 428 
Q 3081 428 3442 575 
Q 3803 722 4122 1019 
L 4122 359 
Q 3791 134 3420 21 
Q 3050 -91 2638 -91 
Q 1578 -91 968 557 
Q 359 1206 359 2328 
Q 359 3453 968 4101 
Q 1578 4750 2638 4750 
Q 3056 4750 3426 4639 
Q 3797 4528 4122 4306 
z
" transform="scale(0.015625)"/>
      <path id="DejaVuSans-6d" d="M 3328 2828 
Q 3544 3216 3844 3400 
Q 4144 3584 4550 3584 
Q 5097 3584 5394 3201 
Q 5691 2819 5691 2113 
L 5691 0 
L 5113 0 
L 5113 2094 
Q 5113 2597 4934 2840 
Q 4756 3084 4391 3084 
Q 3944 3084 3684 2787 
Q 3425 2491 3425 1978 
L 3425 0 
L 2847 0 
L 2847 2094 
Q 2847 2600 2669 2842 
Q 2491 3084 2119 3084 
Q 1678 3084 1418 2786 
Q 1159 2488 1159 1978 
L 1159 0 
L 581 0 
L 581 3500 
L 1159 3500 
L 1159 2956 
Q 1356 3278 1631 3431 
Q 1906 3584 2284 3584 
Q 2666 3584 2933 3390 
Q 3200 3197 3328 2828 
z
" transform="scale(0.015625)"/>
     </defs>
     <use xlink:href="#DejaVuSans-44"/>
     <use xlink:href="#DejaVuSans-51" x="77.001953"/>
     <use xlink:href="#DejaVuSans-4e" x="155.712891"/>
     <use xlink:href="#DejaVuSans-20" x="230.517578"/>
     <use xlink:href="#DejaVuSans-76" x="262.304688"/>
     <use xlink:href="#DejaVuSans-73" x="321.484375"/>
     <use xlink:href="#DejaVuSans-20" x="373.583984"/>
     <use xlink:href="#DejaVuSans-50" x="405.371094"/>
     <use xlink:href="#DejaVuSans-50" x="465.673828"/>
     <use xlink:href="#DejaVuSans-4f" x="525.976562"/>
     <use xlink:href="#DejaVuSans-3a" x="602.9375"/>
     <use xlink:href="#DejaVuSans-20" x="636.628906"/>
     <use xlink:href="#DejaVuSans-54" x="668.416016"/>
     <use xlink:href="#DejaVuSans-72" x="714.75"/>
     <use xlink:href="#DejaVuSans-61" x="755.863281"/>
     <use xlink:href="#DejaVuSans-69" x="817.142578"/>
     <use xlink:href="#DejaVuSans-6e" x="844.925781"/>
     <use xlink:href="#DejaVuSans-69" x="908.304688"/>
     <use xlink:href="#DejaVuSans-6e" x="936.087891"/>
     <use xlink:href="#DejaVuSans-67" x="999.466797"/>
     <use xlink:href="#DejaVuSans-20" x="1062.943359"/>
     <use xlink:href="#DejaVuSans-52" x="1094.730469"/>
     <use xlink:href="#DejaVuSans-65" x="1159.712891"/>
     <use xlink:href="#DejaVuSans-77" x="1221.236328"/>
     <use xlink:href="#DejaVuSans-61" x="1303.023438"/>
     <use xlink:href="#DejaVuSans-72" x="1364.302734"/>
     <use xlink:href="#DejaVuSans-64" x="1403.666016"/>
     <use xlink:href="#DejaVuSans-20" x="1467.142578"/>
     <use xlink:href="#DejaVuSans-43" x="1498.929688"/>
     <use xlink:href="#DejaVuSans-6f" x="1568.753906"/>
     <use xlink:href="#DejaVuSans-6d" x="1629.935547"/>
     <use xlink:href="#DejaVuSans-70" x="1727.347656"/>
     <use xlink:href="#DejaVuSans-61" x="1790.824219"/>
     <use xlink:href="#DejaVuSans-72" x="1852.103516"/>
     <use xlink:href="#DejaVuSans-69" x="1893.216797"/>
     <use xlink:href="#DejaVuSans-73" x="1921"/>
     <use xlink:href="#DejaVuSans-6f" x="1973.099609"/>
     <use xlink:href="#DejaVuSans-6e" x="2034.28125"/>
    </g>
   </g>
   <g id="legend_1">
    <g id="patch_7">
     <path d="M 723.268906 64.929687 
L 837.591562 64.929687 
Q 839.791562 64.929687 839.791562 62.729687 
L 839.791562 31.537812 
Q 839.791562 29.337812 837.591562 29.337812 
L 723.268906 29.337812 
Q 721.068906 29.337812 721.068906 31.537812 
L 721.068906 62.729687 
Q 721.068906 64.929687 723.268906 64.929687 
z
" style="fill: #ffffff; opacity: 0.8; stroke: #cccccc; stroke-linejoin: miter"/>
    </g>
    <g id="line2d_31">
     <path d="M 725.468906 38.246094 
L 736.468906 38.246094 
L 747.468906 38.246094 
" style="fill: none; stroke: #2196f3; stroke-width: 2; stroke-linecap: square"/>
    </g>
    <g id="text_18">
     <!-- DQN (EMA-20) -->
     <g transform="translate(756.268906 42.096094) scale(0.11 -0.11)">
      <defs>
       <path id="DejaVuSans-28" d="M 1984 4856 
Q 1566 4138 1362 3434 
Q 1159 2731 1159 2009 
Q 1159 1288 1364 580 
Q 1569 -128 1984 -844 
L 1484 -844 
Q 1016 -109 783 600 
Q 550 1309 550 2009 
Q 550 2706 781 3412 
Q 1013 4119 1484 4856 
L 1984 4856 
z
" transform="scale(0.015625)"/>
       <path id="DejaVuSans-4d" d="M 628 4666 
L 1569 4666 
L 2759 1491 
L 3956 4666 
L 4897 4666 
L 4897 0 
L 4281 0 
L 4281 4097 
L 3078 897 
L 2444 897 
L 1241 4097 
L 1241 0 
L 628 0 
L 628 4666 
z
" transform="scale(0.015625)"/>
       <path id="DejaVuSans-41" d="M 2188 4044 
L 1331 1722 
L 3047 1722 
L 2188 4044 
z
M 1831 4666 
L 2547 4666 
L 4325 0 
L 3669 0 
L 3244 1197 
L 1141 1197 
L 716 0 
L 50 0 
L 1831 4666 
z
" transform="scale(0.015625)"/>
       <path id="DejaVuSans-2d" d="M 313 2009 
L 1997 2009 
L 1997 1497 
L 313 1497 
L 313 2009 
z
" transform="scale(0.015625)"/>
       <path id="DejaVuSans-29" d="M 513 4856 
L 1013 4856 
Q 1481 4119 1714 3412 
Q 1947 2706 1947 2009 
Q 1947 1309 1714 600 
Q 1481 -109 1013 -844 
L 513 -844 
Q 928 -128 1133 580 
Q 1338 1288 1338 2009 
Q 1338 2731 1133 3434 
Q 928 4138 513 4856 
z
" transform="scale(0.015625)"/>
      </defs>
      <use xlink:href="#DejaVuSans-44"/>
      <use xlink:href="#DejaVuSans-51" x="77.001953"/>
      <use xlink:href="#DejaVuSans-4e" x="155.712891"/>
      <use xlink:href="#DejaVuSans-20" x="230.517578"/>
      <use xlink:href="#DejaVuSans-28" x="262.304688"/>
      <use xlink:href="#DejaVuSans-45" x="301.318359"/>
      <use xlink:href="#DejaVuSans-4d" x="364.501953"/>
      <use xlink:href="#DejaVuSans-41" x="450.78125"/>
      <use xlink:href="#DejaVuSans-2d" x="516.939453"/>
      <use xlink:href="#DejaVuSans-32" x="553.023438"/>
      <use xlink:href="#DejaVuSans-30" x="616.646484"/>
      <use xlink:href="#DejaVuSans-29" x="680.269531"/>
     </g>
    </g>
    <g id="line2d_32">
     <path d="M 725.468906 54.392031 
L 736.468906 54.392031 
L 747.468906 54.392031 
" style="fill: none; stroke: #4caf50; stroke-width: 2; stroke-linecap: square"/>
    </g>
    <g id="text_19">
     <!-- PPO (EMA-20) -->
     <g transform="translate(756.268906 58.242031) scale(0.11 -0.11)">
      <use xlink:href="#DejaVuSans-50"/>
      <use xlink:href="#DejaVuSans-50" x="60.302734"/>
      <use xlink:href="#DejaVuSans-4f" x="120.605469"/>
      <use xlink:href="#DejaVuSans-20" x="199.316406"/>
      <use xlink:href="#DejaVuSans-28" x="231.103516"/>
      <use xlink:href="#DejaVuSans-45" x="270.117188"/>
      <use xlink:href="#DejaVuSans-4d" x="333.300781"/>
      <use xlink:href="#DejaVuSans-41" x="419.580078"/>
      <use xlink:href="#DejaVuSans-2d" x="485.738281"/>
      <use xlink:href="#DejaVuSans-32" x="521.822266"/>
      <use xlink:href="#DejaVuSans-30" x="585.445312"/>
      <use xlink:href="#DejaVuSans-29" x="649.068359"/>
     </g>
    </g>
   </g>
  </g>
 </g>
 <defs>
  <clipPath id="p4407e193c2">
   <rect x="46.051563" y="23.837812" width="799.24" height="354.52"/>
  </clipPath>
 </defs>
</svg>
