<?xml version="1.0" encoding="utf-8" standalone="no"?>
<!DOCTYPE svg PUBLIC "-//W3C//DTD SVG 1.1//EN"
  "http://www.w3.org/Graphics/SVG/1.1/DTD/svg11.dtd">
<svg xmlns:xlink="http://www.w3.org/1999/xlink" width="830.93875pt" height="451.409687pt" viewBox="0 0 830.93875 451.409687" xmlns="http://www.w3.org/2000/svg" version="1.1">
 <metadata>
  <rdf:RDF xmlns:dc="http://purl.org/dc/elements/1.1/" xmlns:cc="http://creativecommons.org/ns#" xmlns:rdf="http://www.w3.org/1999/02/22-rdf-syntax-ns#">
   <cc:Work>
    <dc:type rdf:resource="http://purl.org/dc/dcmitype/StillImage"/>
    <dc:date>2026-02-18T14:14:26.392738</dc:date>
    <dc:format>image/svg+xml</dc:format>
    <dc:creator>
     <cc:Agent>
      <dc:title>Matplotlib v3.7.1, https://matplotlib.org/</dc:title>
     </cc:Agent>
    </dc:creator>
   </cc:Work>
  </rdf:RDF>
 </metadata>
 <defs>
  <style type="text/css">*{stroke-linejoin: round; stroke-linecap: butt}</style>
 </defs>
 <g id="figure_1">
  <g id="patch_1">
   <path d="M 0 451.409687 
L 830.93875 451.409687 
L 830.93875 0 
L 0 0 
z
" style="fill: #ffffff"/>
  </g>
  <g id="axes_1">
   <g id="patch_2">
    <path d="M 42.53875 411.917812 
L 823.73875 411.917812 
L 823.73875 23.837812 
L 42.53875 23.837812 
z
" style="fill: #ffffff"/>
   </g>
   <g id="matplotlib.axis_1">
    <g id="xtick_1">
     <g id="line2d_1">
      <path d="M 76.621773 411.917812 
L 76.621773 23.837812 
" clip-path="url(#pd0fd0886d6)" style="fill: none; stroke: #b0b0b0; stroke-opacity: 0.3; stroke-width: 0.8; stroke-linecap: square"/>
     </g>
     <g id="line2d_2">
      <defs>
       <path id="m602d8de95f" d="M 0 0 
L 0 3.5 
" style="stroke: #000000; stroke-width: 0.8"/>
      </defs>
      <g>
       <use xlink:href="#m602d8de95f" x="76.621773" y="411.917812" style="stroke: #000000; stroke-width: 0.8"/>
      </g>
     </g>
     <g id="text_1">
      <!-- 0 -->
      <g transform="translate(73.440523 426.51625) scale(0.1 -0.1)">
       <defs>
        <path id="DejaVuSans-30" d="M 2034 4250 
Q 1547 4250 1301 3770 
Q 1056 3291 1056 2328 
Q 1056 1369 1301 889 
Q 1547 409 2034 409 
Q 2525 409 2770 889 
Q 3016 1369 3016 2328 
Q 3016 3291 2770 3770 
Q 2525 4250 2034 4250 
z
M 2034 4750 
Q 2819 4750 3233 4129 
Q 3647 3509 3647 2328 
Q 3647 1150 3233 529 
Q 2819 -91 2034 -91 
Q 1250 -91 836 529 
Q 422 1150 422 2328 
Q 422 3509 836 4129 
Q 1250 4750 2034 4750 
z
" transform="scale(0.015625)"/>
       </defs>
       <use xlink:href="#DejaVuSans-30"/>
      </g>
     </g>
    </g>
    <g id="xtick_2">
     <g id="line2d_3">
      <path d="M 219.228564 411.917812 
L 219.228564 23.837812 
" clip-path="url(#pd0fd0886d6)" style="fill: none; stroke: #b0b0b0; stroke-opacity: 0.3; stroke-width: 0.8; stroke-linecap: square"/>
     </g>
     <g id="line2d_4">
      <g>
       <use xlink:href="#m602d8de95f" x="219.228564" y="411.917812" style="stroke: #000000; stroke-width: 0.8"/>
      </g>
     </g>
     <g id="text_2">
      <!-- 100 -->
      <g transform="translate(209.684814 426.51625) scale(0.1 -0.1)">
       <defs>
        <path id="DejaVuSans-31" d="M 794 531 
L 1825 531 
L 1825 4091 
L 703 3866 
L 703 4441 
L 1819 4666 
L 2450 4666 
L 2450 531 
L 3481 531 
L 3481 0 
L 794 0 
L 794 531 
z
" transform="scale(0.015625)"/>
       </defs>
       <use xlink:href="#DejaVuSans-31"/>
       <use xlink:href="#DejaVuSans-30" x="63.623047"/>
       <use xlink:href="#DejaVuSans-30" x="127.246094"/>
      </g>
     </g>
    </g>
    <g id="xtick_3">
     <g id="line2d_5">
      <path d="M 361.835355 411.917812 
L 361.835355 23.837812 
" clip-path="url(#pd0fd0886d6)" style="fill: none; stroke: #b0b0b0; stroke-opacity: 0.3; stroke-width: 0.8; stroke-linecap: square"/>
     </g>
     <g id="line2d_6">
      <g>
       <use xlink:href="#m602d8de95f" x="361.835355" y="411.917812" style="stroke: #000000; stroke-width: 0.8"/>
      </g>
     </g>
     <g id="text_3">
      <!-- 200 -->
      <g transform="translate(352.291605 426.51625) scale(0.1 -0.1)">
       <defs>
        <path id="DejaVuSans-32" d="M 1228 531 
L 3431 531 
L 3431 0 
L 469 0 
L 469 531 
Q 828 903 1448 1529 
Q 2069 2156 2228 2338 
Q 2531 2678 2651 2914 
Q 2772 3150 2772 3378 
Q 2772 3750 2511 3984 
Q 2250 4219 1831 4219 
Q 1534 4219 1204 4116 
Q 875 4013 500 3803 
L 500 4441 
Q 881 4594 1212 4672 
Q 1544 4750 1819 4750 
Q 2544 4750 2975 4387 
Q 3406 4025 3406 3419 
Q 3406 3131 3298 2873 
Q 3191 2616 2906 2266 
Q 2828 2175 2409 1742 
Q 1991 1309 1228 531 
z
" transform="scale(0.015625)"/>
       </defs>
       <use xlink:href="#DejaVuSans-32"/>
       <use xlink:href="#DejaVuSans-30" x="63.623047"/>
       <use xlink:href="#DejaVuSans-30" x="127.246094"/>
      </g>
     </g>
    </g>
    <g id="xtick_4">
     <g id="line2d_7">
      <path d="M 504.442145 411.917812 
L 504.442145 23.837812 
" clip-path="url(#pd0fd0886d6)" style="fill: none; stroke: #b0b0b0; stroke-opacity: 0.3; stroke-width: 0.8; stroke-linecap: square"/>
     </g>
     <g id="line2d_8">
      <g>
       <use xlink:href="#m602d8de95f" x="504.442145" y="411.917812" style="stroke: #000000; stroke-width: 0.8"/>
      </g>
     </g>
     <g id="text_4">
      <!-- 300 -->
      <g transform="translate(494.898395 426.51625) scale(0.1 -0.1)">
       <defs>
        <path id="DejaVuSans-33" d="M 2597 2516 
Q 3050 2419 3304 2112 
Q 3559 1806 3559 1356 
Q 3559 666 3084 287 
Q 2609 -91 1734 -91 
Q 1441 -91 1130 -33 
Q 819 25 488 141 
L 488 750 
Q 750 597 1062 519 
Q 1375 441 1716 441 
Q 2309 441 2620 675 
Q 2931 909 2931 1356 
Q 2931 1769 2642 2001 
Q 2353 2234 1838 2234 
L 1294 2234 
L 1294 2753 
L 1863 2753 
Q 2328 2753 2575 2939 
Q 2822 3125 2822 3475 
Q 2822 3834 2567 4026 
Q 2313 4219 1838 4219 
Q 1578 4219 1281 4162 
Q 984 4106 628 3988 
L 628 4550 
Q 988 4650 1302 4700 
Q 1616 4750 1894 4750 
Q 2613 4750 3031 4423 
Q 3450 4097 3450 3541 
Q 3450 3153 3228 2886 
Q 3006 2619 2597 2516 
z
" transform="scale(0.015625)"/>
       </defs>
       <use xlink:href="#DejaVuSans-33"/>
       <use xlink:href="#DejaVuSans-30" x="63.623047"/>
       <use xlink:href="#DejaVuSans-30" x="127.246094"/>
      </g>
     </g>
    </g>
    <g id="xtick_5">
     <g id="line2d_9">
      <path d="M 647.048936 411.917812 
L 647.048936 23.837812 
" clip-path="url(#pd0fd0886d6)" style="fill: none; stroke: #b0b0b0; stroke-opacity: 0.3; stroke-width: 0.8; stroke-linecap: square"/>
     </g>
     <g id="line2d_10">
      <g>
       <use xlink:href="#m602d8de95f" x="647.048936" y="411.917812" style="stroke: #000000; stroke-width: 0.8"/>
      </g>
     </g>
     <g id="text_5">
      <!-- 400 -->
      <g transform="translate(637.505186 426.51625) scale(0.1 -0.1)">
       <defs>
        <path id="DejaVuSans-34" d="M 2419 4116 
L 825 1625 
L 2419 1625 
L 2419 4116 
z
M 2253 4666 
L 3047 4666 
L 3047 1625 
L 3713 1625 
L 3713 1100 
L 3047 1100 
L 3047 0 
L 2419 0 
L 2419 1100 
L 313 1100 
L 313 1709 
L 2253 4666 
z
" transform="scale(0.015625)"/>
       </defs>
       <use xlink:href="#DejaVuSans-34"/>
       <use xlink:href="#DejaVuSans-30" x="63.623047"/>
       <use xlink:href="#DejaVuSans-30" x="127.246094"/>
      </g>
     </g>
    </g>
    <g id="xtick_6">
     <g id="line2d_11">
      <path d="M 789.655727 411.917812 
L 789.655727 23.837812 
" clip-path="url(#pd0fd0886d6)" style="fill: none; stroke: #b0b0b0; stroke-opacity: 0.3; stroke-width: 0.8; stroke-linecap: square"/>
     </g>
     <g id="line2d_12">
      <g>
       <use xlink:href="#m602d8de95f" x="789.655727" y="411.917812" style="stroke: #000000; stroke-width: 0.8"/>
      </g>
     </g>
     <g id="text_6">
      <!-- 500 -->
      <g transform="translate(780.111977 426.51625) scale(0.1 -0.1)">
       <defs>
        <path id="DejaVuSans-35" d="M 691 4666 
L 3169 4666 
L 3169 4134 
L 1269 4134 
L 1269 2991 
Q 1406 3038 1543 3061 
Q 1681 3084 1819 3084 
Q 2600 3084 3056 2656 
Q 3513 2228 3513 1497 
Q 3513 744 3044 326 
Q 2575 -91 1722 -91 
Q 1428 -91 1123 -41 
Q 819 9 494 109 
L 494 744 
Q 775 591 1075 516 
Q 1375 441 1709 441 
Q 2250 441 2565 725 
Q 2881 1009 2881 1497 
Q 2881 1984 2565 2268 
Q 2250 2553 1709 2553 
Q 1456 2553 1204 2497 
Q 953 2441 691 2322 
L 691 4666 
z
" transform="scale(0.015625)"/>
       </defs>
       <use xlink:href="#DejaVuSans-35"/>
       <use xlink:href="#DejaVuSans-30" x="63.623047"/>
       <use xlink:href="#DejaVuSans-30" x="127.246094"/>
      </g>
     </g>
    </g>
    <g id="text_7">
     <!-- Episode -->
     <g transform="translate(409.57375 441.714062) scale(0.12 -0.12)">
      <defs>
       <path id="DejaVuSans-45" d="M 628 4666 
L 3578 4666 
L 3578 4134 
L 1259 4134 
L 1259 2753 
L 3481 2753 
L 3481 2222 
L 1259 2222 
L 1259 531 
L 3634 531 
L 3634 0 
L 628 0 
L 628 4666 
z
" transform="scale(0.015625)"/>
       <path id="DejaVuSans-70" d="M 1159 525 
L 1159 -1331 
L 581 -1331 
L 581 3500 
L 1159 3500 
L 1159 2969 
Q 1341 3281 1617 3432 
Q 1894 3584 2278 3584 
Q 2916 3584 3314 3078 
Q 3713 2572 3713 1747 
Q 3713 922 3314 415 
Q 2916 -91 2278 -91 
Q 1894 -91 1617 61 
Q 1341 213 1159 525 
z
M 3116 1747 
Q 3116 2381 2855 2742 
Q 2594 3103 2138 3103 
Q 1681 3103 1420 2742 
Q 1159 2381 1159 1747 
Q 1159 1113 1420 752 
Q 1681 391 2138 391 
Q 2594 391 2855 752 
Q 3116 1113 3116 1747 
z
" transform="scale(0.015625)"/>
       <path id="DejaVuSans-69" d="M 603 3500 
L 1178 3500 
L 1178 0 
L 603 0 
L 603 3500 
z
M 603 4863 
L 1178 4863 
L 1178 4134 
L 603 4134 
L 603 4863 
z
" transform="scale(0.015625)"/>
       <path id="DejaVuSans-73" d="M 2834 3397 
L 2834 2853 
Q 2591 2978 2328 3040 
Q 2066 3103 1784 3103 
Q 1356 3103 1142 2972 
Q 928 2841 928 2578 
Q 928 2378 1081 2264 
Q 1234 2150 1697 2047 
L 1894 2003 
Q 2506 1872 2764 1633 
Q 3022 1394 3022 966 
Q 3022 478 2636 193 
Q 2250 -91 1575 -91 
Q 1294 -91 989 -36 
Q 684 19 347 128 
L 347 722 
Q 666 556 975 473 
Q 1284 391 1588 391 
Q 1994 391 2212 530 
Q 2431 669 2431 922 
Q 2431 1156 2273 1281 
Q 2116 1406 1581 1522 
L 1381 1569 
Q 847 1681 609 1914 
Q 372 2147 372 2553 
Q 372 3047 722 3315 
Q 1072 3584 1716 3584 
Q 2034 3584 2315 3537 
Q 2597 3491 2834 3397 
z
" transform="scale(0.015625)"/>
       <path id="DejaVuSans-6f" d="M 1959 3097 
Q 1497 3097 1228 2736 
Q 959 2375 959 1747 
Q 959 1119 1226 758 
Q 1494 397 1959 397 
Q 2419 397 2687 759 
Q 2956 1122 2956 1747 
Q 2956 2369 2687 2733 
Q 2419 3097 1959 3097 
z
M 1959 3584 
Q 2709 3584 3137 3096 
Q 3566 2609 3566 1747 
Q 3566 888 3137 398 
Q 2709 -91 1959 -91 
Q 1206 -91 779 398 
Q 353 888 353 1747 
Q 353 2609 779 3096 
Q 1206 3584 1959 3584 
z
" transform="scale(0.015625)"/>
       <path id="DejaVuSans-64" d="M 2906 2969 
L 2906 4863 
L 3481 4863 
L 3481 0 
L 2906 0 
L 2906 525 
Q 2725 213 2448 61 
Q 2172 -91 1784 -91 
Q 1150 -91 751 415 
Q 353 922 353 1747 
Q 353 2572 751 3078 
Q 1150 3584 1784 3584 
Q 2172 3584 2448 3432 
Q 2725 3281 2906 2969 
z
M 947 1747 
Q 947 1113 1208 752 
Q 1469 391 1925 391 
Q 2381 391 2643 752 
Q 2906 1113 2906 1747 
Q 2906 2381 2643 2742 
Q 2381 3103 1925 3103 
Q 1469 3103 1208 2742 
Q 947 2381 947 1747 
z
" transform="scale(0.015625)"/>
       <path id="DejaVuSans-65" d="M 3597 1894 
L 3597 1613 
L 953 1613 
Q 991 1019 1311 708 
Q 1631 397 2203 397 
Q 2534 397 2845 478 
Q 3156 559 3463 722 
L 3463 178 
Q 3153 47 2828 -22 
Q 2503 -91 2169 -91 
Q 1331 -91 842 396 
Q 353 884 353 1716 
Q 353 2575 817 3079 
Q 1281 3584 2069 3584 
Q 2775 3584 3186 3129 
Q 3597 2675 3597 1894 
z
M 3022 2063 
Q 3016 2534 2758 2815 
Q 2500 3097 2075 3097 
Q 1594 3097 1305 2825 
Q 1016 2553 972 2059 
L 3022 2063 
z
" transform="scale(0.015625)"/>
      </defs>
      <use xlink:href="#DejaVuSans-45"/>
      <use xlink:href="#DejaVuSans-70" x="63.183594"/>
      <use xlink:href="#DejaVuSans-69" x="126.660156"/>
      <use xlink:href="#DejaVuSans-73" x="154.443359"/>
      <use xlink:href="#DejaVuSans-6f" x="206.542969"/>
      <use xlink:href="#DejaVuSans-64" x="267.724609"/>
      <use xlink:href="#DejaVuSans-65" x="331.201172"/>
     </g>
    </g>
   </g>
   <g id="matplotlib.axis_2">
    <g id="ytick_1">
     <g id="line2d_13">
      <path d="M 42.53875 392.861767 
L 823.73875 392.861767 
" clip-path="url(#pd0fd0886d6)" style="fill: none; stroke: #b0b0b0; stroke-opacity: 0.3; stroke-width: 0.8; stroke-linecap: square"/>
     </g>
     <g id="line2d_14">
      <defs>
       <path id="mb63db275a1" d="M 0 0 
L -3.5 0 
" style="stroke: #000000; stroke-width: 0.8"/>
      </defs>
      <g>
       <use xlink:href="#mb63db275a1" x="42.53875" y="392.861767" style="stroke: #000000; stroke-width: 0.8"/>
      </g>
     </g>
     <g id="text_8">
      <!-- 55 -->
      <g transform="translate(22.81375 396.660986) scale(0.1 -0.1)">
       <use xlink:href="#DejaVuSans-35"/>
       <use xlink:href="#DejaVuSans-35" x="63.623047"/>
      </g>
     </g>
    </g>
    <g id="ytick_2">
     <g id="line2d_15">
      <path d="M 42.53875 341.140141 
L 823.73875 341.140141 
" clip-path="url(#pd0fd0886d6)" style="fill: none; stroke: #b0b0b0; stroke-opacity: 0.3; stroke-width: 0.8; stroke-linecap: square"/>
     </g>
     <g id="line2d_16">
      <g>
       <use xlink:href="#mb63db275a1" x="42.53875" y="341.140141" style="stroke: #000000; stroke-width: 0.8"/>
      </g>
     </g>
     <g id="text_9">
      <!-- 60 -->
      <g transform="translate(22.81375 344.93936) scale(0.1 -0.1)">
       <defs>
        <path id="DejaVuSans-36" d="M 2113 2584 
Q 1688 2584 1439 2293 
Q 1191 2003 1191 1497 
Q 1191 994 1439 701 
Q 1688 409 2113 409 
Q 2538 409 2786 701 
Q 3034 994 3034 1497 
Q 3034 2003 2786 2293 
Q 2538 2584 2113 2584 
z
M 3366 4563 
L 3366 3988 
Q 3128 4100 2886 4159 
Q 2644 4219 2406 4219 
Q 1781 4219 1451 3797 
Q 1122 3375 1075 2522 
Q 1259 2794 1537 2939 
Q 1816 3084 2150 3084 
Q 2853 3084 3261 2657 
Q 3669 2231 3669 1497 
Q 3669 778 3244 343 
Q 2819 -91 2113 -91 
Q 1303 -91 875 529 
Q 447 1150 447 2328 
Q 447 3434 972 4092 
Q 1497 4750 2381 4750 
Q 2619 4750 2861 4703 
Q 3103 4656 3366 4563 
z
" transform="scale(0.015625)"/>
       </defs>
       <use xlink:href="#DejaVuSans-36"/>
       <use xlink:href="#DejaVuSans-30" x="63.623047"/>
      </g>
     </g>
    </g>
    <g id="ytick_3">
     <g id="line2d_17">
      <path d="M 42.53875 289.418515 
L 823.73875 289.418515 
" clip-path="url(#pd0fd0886d6)" style="fill: none; stroke: #b0b0b0; stroke-opacity: 0.3; stroke-width: 0.8; stroke-linecap: square"/>
     </g>
     <g id="line2d_18">
      <g>
       <use xlink:href="#mb63db275a1" x="42.53875" y="289.418515" style="stroke: #000000; stroke-width: 0.8"/>
      </g>
     </g>
     <g id="text_10">
      <!-- 65 -->
      <g transform="translate(22.81375 293.217733) scale(0.1 -0.1)">
       <use xlink:href="#DejaVuSans-36"/>
       <use xlink:href="#DejaVuSans-35" x="63.623047"/>
      </g>
     </g>
    </g>
    <g id="ytick_4">
     <g id="line2d_19">
      <path d="M 42.53875 237.696888 
L 823.73875 237.696888 
" clip-path="url(#pd0fd0886d6)" style="fill: none; stroke: #b0b0b0; stroke-opacity: 0.3; stroke-width: 0.8; stroke-linecap: square"/>
     </g>
     <g id="line2d_20">
      <g>
       <use xlink:href="#mb63db275a1" x="42.53875" y="237.696888" style="stroke: #000000; stroke-width: 0.8"/>
      </g>
     </g>
     <g id="text_11">
      <!-- 70 -->
      <g transform="translate(22.81375 241.496107) scale(0.1 -0.1)">
       <defs>
        <path id="DejaVuSans-37" d="M 525 4666 
L 3525 4666 
L 3525 4397 
L 1831 0 
L 1172 0 
L 2766 4134 
L 525 4134 
L 525 4666 
z
" transform="scale(0.015625)"/>
       </defs>
       <use xlink:href="#DejaVuSans-37"/>
       <use xlink:href="#DejaVuSans-30" x="63.623047"/>
      </g>
     </g>
    </g>
    <g id="ytick_5">
     <g id="line2d_21">
      <path d="M 42.53875 185.975262 
L 823.73875 185.975262 
" clip-path="url(#pd0fd0886d6)" style="fill: none; stroke: #b0b0b0; stroke-opacity: 0.3; stroke-width: 0.8; stroke-linecap: square"/>
     </g>
     <g id="line2d_22">
      <g>
       <use xlink:href="#mb63db275a1" x="42.53875" y="185.975262" style="stroke: #000000; stroke-width: 0.8"/>
      </g>
     </g>
     <g id="text_12">
      <!-- 75 -->
      <g transform="translate(22.81375 189.77448) scale(0.1 -0.1)">
       <use xlink:href="#DejaVuSans-37"/>
       <use xlink:href="#DejaVuSans-35" x="63.623047"/>
      </g>
     </g>
    </g>
    <g id="ytick_6">
     <g id="line2d_23">
      <path d="M 42.53875 134.253635 
L 823.73875 134.253635 
" clip-path="url(#pd0fd0886d6)" style="fill: none; stroke: #b0b0b0; stroke-opacity: 0.3; stroke-width: 0.8; stroke-linecap: square"/>
     </g>
     <g id="line2d_24">
      <g>
       <use xlink:href="#mb63db275a1" x="42.53875" y="134.253635" style="stroke: #000000; stroke-width: 0.8"/>
      </g>
     </g>
     <g id="text_13">
      <!-- 80 -->
      <g transform="translate(22.81375 138.052854) scale(0.1 -0.1)">
       <defs>
        <path id="DejaVuSans-38" d="M 2034 2216 
Q 1584 2216 1326 1975 
Q 1069 1734 1069 1313 
Q 1069 891 1326 650 
Q 1584 409 2034 409 
Q 2484 409 2743 651 
Q 3003 894 3003 1313 
Q 3003 1734 2745 1975 
Q 2488 2216 2034 2216 
z
M 1403 2484 
Q 997 2584 770 2862 
Q 544 3141 544 3541 
Q 544 4100 942 4425 
Q 1341 4750 2034 4750 
Q 2731 4750 3128 4425 
Q 3525 4100 3525 3541 
Q 3525 3141 3298 2862 
Q 3072 2584 2669 2484 
Q 3125 2378 3379 2068 
Q 3634 1759 3634 1313 
Q 3634 634 3220 271 
Q 2806 -91 2034 -91 
Q 1263 -91 848 271 
Q 434 634 434 1313 
Q 434 1759 690 2068 
Q 947 2378 1403 2484 
z
M 1172 3481 
Q 1172 3119 1398 2916 
Q 1625 2713 2034 2713 
Q 2441 2713 2670 2916 
Q 2900 3119 2900 3481 
Q 2900 3844 2670 4047 
Q 2441 4250 2034 4250 
Q 1625 4250 1398 4047 
Q 1172 3844 1172 3481 
z
" transform="scale(0.015625)"/>
       </defs>
       <use xlink:href="#DejaVuSans-38"/>
       <use xlink:href="#DejaVuSans-30" x="63.623047"/>
      </g>
     </g>
    </g>
    <g id="ytick_7">
     <g id="line2d_25">
      <path d="M 42.53875 82.532009 
L 823.73875 82.532009 
" clip-path="url(#pd0fd0886d6)" style="fill: none; stroke: #b0b0b0; stroke-opacity: 0.3; stroke-width: 0.8; stroke-linecap: square"/>
     </g>
     <g id="line2d_26">
      <g>
       <use xlink:href="#mb63db275a1" x="42.53875" y="82.532009" style="stroke: #000000; stroke-width: 0.8"/>
      </g>
     </g>
     <g id="text_14">
      <!-- 85 -->
      <g transform="translate(22.81375 86.331227) scale(0.1 -0.1)">
       <use xlink:href="#DejaVuSans-38"/>
       <use xlink:href="#DejaVuSans-35" x="63.623047"/>
      </g>
     </g>
    </g>
    <g id="ytick_8">
     <g id="line2d_27">
      <path d="M 42.53875 30.810382 
L 823.73875 30.810382 
" clip-path="url(#pd0fd0886d6)" style="fill: none; stroke: #b0b0b0; stroke-opacity: 0.3; stroke-width: 0.8; stroke-linecap: square"/>
     </g>
     <g id="line2d_28">
      <g>
       <use xlink:href="#mb63db275a1" x="42.53875" y="30.810382" style="stroke: #000000; stroke-width: 0.8"/>
      </g>
     </g>
     <g id="text_15">
      <!-- 90 -->
      <g transform="translate(22.81375 34.609601) scale(0.1 -0.1)">
       <defs>
        <path id="DejaVuSans-39" d="M 703 97 
L 703 672 
Q 941 559 1184 500 
Q 1428 441 1663 441 
Q 2288 441 2617 861 
Q 2947 1281 2994 2138 
Q 2813 1869 2534 1725 
Q 2256 1581 1919 1581 
Q 1219 1581 811 2004 
Q 403 2428 403 3163 
Q 403 3881 828 4315 
Q 1253 4750 1959 4750 
Q 2769 4750 3195 4129 
Q 3622 3509 3622 2328 
Q 3622 1225 3098 567 
Q 2575 -91 1691 -91 
Q 1453 -91 1209 -44 
Q 966 3 703 97 
z
M 1959 2075 
Q 2384 2075 2632 2365 
Q 2881 2656 2881 3163 
Q 2881 3666 2632 3958 
Q 2384 4250 1959 4250 
Q 1534 4250 1286 3958 
Q 1038 3666 1038 3163 
Q 1038 2656 1286 2365 
Q 1534 2075 1959 2075 
z
" transform="scale(0.015625)"/>
       </defs>
       <use xlink:href="#DejaVuSans-39"/>
       <use xlink:href="#DejaVuSans-30" x="63.623047"/>
      </g>
     </g>
    </g>
    <g id="text_16">
     <!-- Total Reward -->
     <g transform="translate(16.318125 256.141875) rotate(-90) scale(0.12 -0.12)">
      <defs>
       <path id="DejaVuSans-54" d="M -19 4666 
L 3928 4666 
L 3928 4134 
L 2272 4134 
L 2272 0 
L 1638 0 
L 1638 4134 
L -19 4134 
L -19 4666 
z
" transform="scale(0.015625)"/>
       <path id="DejaVuSans-74" d="M 1172 4494 
L 1172 3500 
L 2356 3500 
L 2356 3053 
L 1172 3053 
L 1172 1153 
Q 1172 725 1289 603 
Q 1406 481 1766 481 
L 2356 481 
L 2356 0 
L 1766 0 
Q 1100 0 847 248 
Q 594 497 594 1153 
L 594 3053 
L 172 3053 
L 172 3500 
L 594 3500 
L 594 4494 
L 1172 4494 
z
" transform="scale(0.015625)"/>
       <path id="DejaVuSans-61" d="M 2194 1759 
Q 1497 1759 1228 1600 
Q 959 1441 959 1056 
Q 959 750 1161 570 
Q 1363 391 1709 391 
Q 2188 391 2477 730 
Q 2766 1069 2766 1631 
L 2766 1759 
L 2194 1759 
z
M 3341 1997 
L 3341 0 
L 2766 0 
L 2766 531 
Q 2569 213 2275 61 
Q 1981 -91 1556 -91 
Q 1019 -91 701 211 
Q 384 513 384 1019 
Q 384 1609 779 1909 
Q 1175 2209 1959 2209 
L 2766 2209 
L 2766 2266 
Q 2766 2663 2505 2880 
Q 2244 3097 1772 3097 
Q 1472 3097 1187 3025 
Q 903 2953 641 2809 
L 641 3341 
Q 956 3463 1253 3523 
Q 1550 3584 1831 3584 
Q 2591 3584 2966 3190 
Q 3341 2797 3341 1997 
z
" transform="scale(0.015625)"/>
       <path id="DejaVuSans-6c" d="M 603 4863 
L 1178 4863 
L 1178 0 
L 603 0 
L 603 4863 
z
" transform="scale(0.015625)"/>
       <path id="DejaVuSans-20" transform="scale(0.015625)"/>
       <path id="DejaVuSans-52" d="M 2841 2188 
Q 3044 2119 3236 1894 
Q 3428 1669 3622 1275 
L 4263 0 
L 3584 0 
L 2988 1197 
Q 2756 1666 2539 1819 
Q 2322 1972 1947 1972 
L 1259 1972 
L 1259 0 
L 628 0 
L 628 4666 
L 2053 4666 
Q 2853 4666 3247 4331 
Q 3641 3997 3641 3322 
Q 3641 2881 3436 2590 
Q 3231 2300 2841 2188 
z
M 1259 4147 
L 1259 2491 
L 2053 2491 
Q 2509 2491 2742 2702 
Q 2975 2913 2975 3322 
Q 2975 3731 2742 3939 
Q 2509 4147 2053 4147 
L 1259 4147 
z
" transform="scale(0.015625)"/>
       <path id="DejaVuSans-77" d="M 269 3500 
L 844 3500 
L 1563 769 
L 2278 3500 
L 2956 3500 
L 3675 769 
L 4391 3500 
L 4966 3500 
L 4050 0 
L 3372 0 
L 2619 2869 
L 1863 0 
L 1184 0 
L 269 3500 
z
" transform="scale(0.015625)"/>
       <path id="DejaVuSans-72" d="M 2631 2963 
Q 2534 3019 2420 3045 
Q 2306 3072 2169 3072 
Q 1681 3072 1420 2755 
Q 1159 2438 1159 1844 
L 1159 0 
L 581 0 
L 581 3500 
L 1159 3500 
L 1159 2956 
Q 1341 3275 1631 3429 
Q 1922 3584 2338 3584 
Q 2397 3584 2469 3576 
Q 2541 3569 2628 3553 
L 2631 2963 
z
" transform="scale(0.015625)"/>
      </defs>
      <use xlink:href="#DejaVuSans-54"/>
      <use xlink:href="#DejaVuSans-6f" x="44.083984"/>
      <use xlink:href="#DejaVuSans-74" x="105.265625"/>
      <use xlink:href="#DejaVuSans-61" x="144.474609"/>
      <use xlink:href="#DejaVuSans-6c" x="205.753906"/>
      <use xlink:href="#DejaVuSans-20" x="233.537109"/>
      <use xlink:href="#DejaVuSans-52" x="265.324219"/>
      <use xlink:href="#DejaVuSans-65" x="330.306641"/>
      <use xlink:href="#DejaVuSans-77" x="391.830078"/>
      <use xlink:href="#DejaVuSans-61" x="473.617188"/>
      <use xlink:href="#DejaVuSans-72" x="534.896484"/>
      <use xlink:href="#DejaVuSans-64" x="574.259766"/>
     </g>
    </g>
   </g>
   <g id="line2d_29">
    <path d="M 78.047841 284.066764 
L 79.473909 309.125251 
L 80.899977 217.808692 
L 82.326045 228.096082 
L 83.752113 246.158246 
L 86.604248 200.205743 
L 88.030316 226.035989 
L 89.456384 296.239552 
L 90.882452 276.992756 
L 92.30852 320.707316 
L 93.734588 293.156168 
L 95.160656 260.702119 
L 96.586724 233.666956 
L 98.012792 263.122898 
L 99.43886 248.58879 
L 100.864927 238.405102 
L 102.290995 280.975673 
L 103.717063 297.194065 
L 105.143131 255.773421 
L 106.569199 240.161568 
L 107.995267 248.112703 
L 109.421335 260.630123 
L 110.847403 231.437206 
L 112.273471 219.60247 
L 113.699539 287.13457 
L 115.125607 254.443471 
L 116.551674 250.899506 
L 117.977742 277.842656 
L 119.40381 254.561148 
L 120.829878 239.590903 
L 122.255946 259.735514 
L 123.682014 288.204029 
L 125.108082 286.539885 
L 126.53415 320.980923 
L 127.960218 235.999095 
L 129.386286 264.326264 
L 130.812354 213.884293 
L 132.238421 209.336369 
L 133.664489 212.748051 
L 135.090557 313.956692 
L 136.516625 230.220392 
L 137.942693 292.414686 
L 139.368761 271.121875 
L 140.794829 229.623008 
L 142.220897 222.486251 
L 143.646965 197.793477 
L 145.073033 269.87615 
L 146.4991 331.366647 
L 147.925168 262.883375 
L 149.351236 295.301074 
L 150.777304 260.159839 
L 152.203372 242.420179 
L 153.62944 215.208966 
L 155.055508 259.896296 
L 156.481576 238.853394 
L 157.907644 278.015179 
L 159.333712 246.669339 
L 160.75978 229.400046 
L 162.185847 258.685803 
L 163.611915 202.354384 
L 165.037983 229.01623 
L 166.464051 298.693568 
L 167.890119 216.228265 
L 169.316187 222.412423 
L 170.742255 250.664462 
L 172.168323 242.661264 
L 173.594391 217.640969 
L 175.020459 250.599944 
L 176.446527 317.259707 
L 177.872594 237.47434 
L 179.298662 245.873881 
L 180.72473 344.674745 
L 182.150798 234.43766 
L 183.576866 246.380018 
L 185.002934 237.714618 
L 186.429002 211.003295 
L 187.85507 195.399811 
L 189.281138 242.988828 
L 190.707206 257.965145 
L 192.133274 259.967807 
L 193.559341 148.140664 
L 194.985409 265.052187 
L 196.411477 241.127553 
L 197.837545 251.176465 
L 199.263613 281.005216 
L 200.689681 194.66074 
L 202.115749 249.874031 
L 203.541817 230.961925 
L 204.967885 222.03801 
L 206.393953 192.281235 
L 207.820021 224.458955 
L 209.246088 155.965691 
L 210.672156 255.407852 
L 212.098224 237.990512 
L 213.524292 296.525883 
L 214.95036 166.922452 
L 216.376428 248.196316 
L 217.802496 302.351124 
L 219.228564 287.657497 
L 220.654632 196.945336 
L 222.0807 247.600659 
L 223.506768 251.935304 
L 224.932835 234.381977 
L 226.358903 254.583244 
L 227.784971 212.605662 
L 229.211039 214.564649 
L 230.637107 249.893385 
L 232.063175 211.738145 
L 233.489243 282.460673 
L 234.915311 274.844436 
L 236.341379 149.796253 
L 237.767447 234.281244 
L 239.193515 219.899849 
L 240.619582 218.525698 
L 242.04565 214.107482 
L 243.471718 182.197597 
L 244.897786 326.967102 
L 246.323854 229.207383 
L 247.749922 222.469803 
L 249.17599 217.11525 
L 250.602058 224.461655 
L 252.028126 276.556649 
L 253.454194 231.925582 
L 254.880262 208.098743 
L 256.306329 227.298121 
L 257.732397 236.346964 
L 259.158465 235.817428 
L 260.584533 212.648528 
L 262.010601 230.707858 
L 263.436669 154.822405 
L 264.862737 271.296643 
L 266.288805 156.840335 
L 267.714873 175.971285 
L 269.140941 305.995761 
L 270.567008 213.428325 
L 271.993076 238.194854 
L 273.419144 243.021309 
L 274.845212 203.876789 
L 276.27128 158.456791 
L 277.697348 238.434811 
L 280.549484 187.820224 
L 281.975552 171.602349 
L 283.40162 180.183764 
L 284.827688 243.919062 
L 286.253755 204.671254 
L 287.679823 245.032504 
L 289.105891 182.207186 
L 290.531959 313.414339 
L 291.958027 195.969483 
L 293.384095 126.465972 
L 294.810163 223.13693 
L 296.236231 189.64277 
L 297.662299 164.165762 
L 299.088367 173.274799 
L 300.514435 162.408778 
L 301.940502 164.066746 
L 303.36657 203.257898 
L 304.792638 278.456333 
L 306.218706 236.445825 
L 309.070842 258.438109 
L 310.49691 246.749311 
L 311.922978 202.639349 
L 313.349046 236.860932 
L 314.775114 238.677199 
L 316.201182 158.247298 
L 317.627249 204.406294 
L 319.053317 295.304529 
L 320.479385 242.83508 
L 321.905453 221.991658 
L 323.331521 246.202499 
L 324.757589 211.350067 
L 326.183657 236.942725 
L 327.609725 242.649917 
L 329.035793 194.115935 
L 330.461861 171.515322 
L 331.887929 168.550515 
L 333.313996 244.019981 
L 334.740064 219.528332 
L 336.166132 172.267013 
L 337.5922 185.943163 
L 339.018268 250.458517 
L 340.444336 147.906396 
L 341.870404 195.153978 
L 343.296472 211.668197 
L 344.72254 212.708826 
L 346.148608 189.995346 
L 347.574676 162.497574 
L 349.000743 261.707339 
L 350.426811 282.001323 
L 351.852879 157.504854 
L 353.278947 211.418319 
L 354.705015 293.216299 
L 356.131083 130.445651 
L 357.557151 90.989664 
L 358.983219 207.547773 
L 360.409287 217.215124 
L 361.835355 196.841458 
L 363.261423 194.489334 
L 364.68749 153.537237 
L 366.113558 250.727935 
L 367.539626 120.67375 
L 368.965694 237.104293 
L 370.391762 163.912823 
L 371.81783 218.949991 
L 373.243898 120.471053 
L 374.669966 192.143914 
L 376.096034 193.906794 
L 377.522102 119.886391 
L 378.948169 139.044806 
L 380.374237 102.384693 
L 381.800305 144.443023 
L 383.226373 131.139973 
L 384.652441 229.521716 
L 386.078509 266.861679 
L 387.504577 212.9604 
L 388.930645 191.641614 
L 390.356713 178.918766 
L 391.782781 194.853837 
L 393.208849 113.138178 
L 394.634916 99.276244 
L 396.060984 124.799067 
L 397.487052 205.341173 
L 398.91312 196.46029 
L 400.339188 270.600221 
L 401.765256 220.957473 
L 403.191324 162.266389 
L 404.617392 163.561902 
L 406.04346 317.791644 
L 407.469528 177.966933 
L 408.895596 286.101865 
L 410.321663 165.947127 
L 411.747731 166.065652 
L 413.173799 126.295746 
L 414.599867 315.93732 
L 416.025935 140.010625 
L 417.452003 80.106668 
L 418.878071 214.565487 
L 420.304139 158.136231 
L 421.730207 173.063589 
L 423.156275 274.494498 
L 424.582343 132.219775 
L 426.00841 56.234437 
L 427.434478 170.297578 
L 428.860546 196.349668 
L 430.286614 131.564648 
L 431.712682 118.67865 
L 433.13875 146.708875 
L 434.564818 217.530957 
L 435.990886 127.312624 
L 437.416954 161.383749 
L 438.843022 84.892677 
L 440.26909 197.004847 
L 441.695157 143.377765 
L 443.121225 167.637007 
L 445.973361 208.319263 
L 447.399429 197.270634 
L 448.825497 198.326696 
L 450.251565 177.06557 
L 451.677633 67.152935 
L 453.103701 132.377971 
L 454.529769 225.683009 
L 455.955837 143.014492 
L 457.381904 156.433937 
L 458.807972 176.018911 
L 460.23404 160.453049 
L 461.660108 206.311988 
L 463.086176 200.635467 
L 464.512244 238.836947 
L 465.938312 90.852849 
L 467.36438 85.257728 
L 468.790448 276.153221 
L 470.216516 41.477812 
L 471.642584 209.827931 
L 473.068651 202.605016 
L 474.494719 159.1147 
L 475.920787 162.651373 
L 477.346855 139.322158 
L 478.772923 61.972383 
L 480.198991 299.237865 
L 481.625059 180.840959 
L 483.051127 212.399241 
L 484.477195 117.864821 
L 485.903263 138.704798 
L 487.329331 193.35602 
L 488.755398 86.382125 
L 490.181466 172.453129 
L 491.607534 140.777987 
L 493.033602 193.869213 
L 494.45967 169.610694 
L 495.885738 249.430405 
L 497.311806 133.261045 
L 498.737874 221.521218 
L 500.163942 181.651892 
L 501.59001 291.168816 
L 503.016077 195.79484 
L 504.442145 171.400324 
L 505.868213 208.036377 
L 507.294281 222.965214 
L 508.720349 214.400174 
L 510.146417 247.538696 
L 511.572485 103.522951 
L 512.998553 205.432958 
L 512.998553 205.432958 
" clip-path="url(#pd0fd0886d6)" style="fill: none; stroke: #2196f3; stroke-opacity: 0.15; stroke-width: 1.5; stroke-linecap: square"/>
   </g>
   <g id="line2d_30">
    <path d="M 105.143131 260.02061 
L 106.569199 257.825351 
L 107.995267 254.774723 
L 109.421335 256.915795 
L 110.847403 257.082851 
L 112.273471 255.755062 
L 113.699539 258.942259 
L 115.125607 261.654146 
L 116.551674 262.897322 
L 117.977742 261.977477 
L 119.40381 260.855896 
L 120.829878 256.800076 
L 122.255946 255.129043 
L 123.682014 256.504139 
L 125.108082 259.147785 
L 126.53415 262.040686 
L 127.960218 261.411202 
L 129.386286 262.70726 
L 130.812354 259.352691 
L 132.238421 254.959806 
L 133.664489 252.808537 
L 135.090557 256.498294 
L 136.516625 255.603678 
L 137.942693 257.192906 
L 139.368761 259.17714 
L 140.794829 259.678167 
L 142.220897 256.445751 
L 143.646965 253.613251 
L 145.073033 254.562083 
L 146.4991 257.238283 
L 147.925168 257.654394 
L 149.351236 260.439903 
L 150.777304 260.461119 
L 152.203372 258.171926 
L 153.62944 254.60538 
L 155.055508 251.551149 
L 156.481576 251.693864 
L 157.907644 252.37831 
L 159.333712 254.017562 
L 160.75978 255.020746 
L 162.185847 257.317633 
L 163.611915 251.737518 
L 165.037983 251.67731 
L 166.464051 251.991254 
L 167.890119 249.246573 
L 169.316187 248.886044 
L 170.742255 250.294955 
L 172.168323 252.538344 
L 173.594391 249.926585 
L 175.020459 245.88825 
L 176.446527 248.607067 
L 177.872594 245.71573 
L 179.298662 245.001432 
L 180.72473 250.11416 
L 182.150798 251.075595 
L 183.576866 250.399781 
L 185.002934 250.342842 
L 186.429002 246.992248 
L 187.85507 244.428772 
L 189.281138 245.108211 
L 190.707206 245.072178 
L 192.133274 247.952849 
L 193.559341 243.909071 
L 194.985409 242.227002 
L 196.411477 243.471966 
L 199.263613 246.427206 
L 200.689681 244.02718 
L 202.115749 245.638833 
L 203.541817 244.656932 
L 204.967885 239.895847 
L 206.393953 237.636192 
L 207.820021 236.565445 
L 209.246088 227.129993 
L 210.672156 228.178502 
L 212.098224 227.759027 
L 213.524292 230.69959 
L 214.95036 228.495548 
L 216.376428 231.135373 
L 217.802496 234.103488 
L 219.228564 235.588106 
L 220.654632 232.436982 
L 222.0807 237.409982 
L 223.506768 236.754138 
L 224.932835 236.416859 
L 226.358903 236.587198 
L 227.784971 233.16722 
L 229.211039 234.162416 
L 230.637107 234.163383 
L 232.063175 233.202194 
L 233.489243 236.223328 
L 234.915311 240.351488 
L 236.341379 236.618353 
L 237.767447 240.53413 
L 239.193515 238.75873 
L 240.619582 237.785489 
L 242.04565 233.664569 
L 243.471718 234.428326 
L 244.897786 238.366866 
L 246.323854 234.709679 
L 247.749922 231.450294 
L 249.17599 232.45879 
L 250.602058 231.301839 
L 252.028126 232.532907 
L 253.454194 232.410087 
L 254.880262 230.085862 
L 256.306329 230.820485 
L 257.732397 231.909601 
L 259.158465 231.205803 
L 260.584533 231.251322 
L 262.010601 228.663681 
L 263.436669 222.66258 
L 264.862737 228.737599 
L 266.288805 224.865554 
L 267.714873 222.669126 
L 269.140941 227.042629 
L 270.567008 227.008671 
L 271.993076 229.808534 
L 273.419144 225.611244 
L 274.845212 224.344714 
L 276.27128 221.144064 
L 277.697348 222.210042 
L 279.123416 221.615217 
L 280.549484 217.178396 
L 281.975552 214.162234 
L 283.40162 212.766485 
L 284.827688 213.597532 
L 286.253755 212.013747 
L 287.679823 212.474501 
L 289.105891 210.952434 
L 290.531959 215.087758 
L 291.958027 217.145112 
L 293.384095 209.903578 
L 294.810163 213.218408 
L 296.236231 213.901982 
L 297.662299 206.810482 
L 299.088367 204.802806 
L 301.940502 197.065774 
L 303.36657 197.034829 
L 304.792638 203.034806 
L 306.218706 202.935357 
L 307.644774 204.659942 
L 310.49691 211.948185 
L 311.922978 213.070964 
L 313.349046 212.718057 
L 314.775114 214.418355 
L 316.201182 210.079094 
L 317.627249 211.18905 
L 319.053317 210.283559 
L 320.479385 212.626839 
L 321.905453 217.403123 
L 324.757589 219.641767 
L 327.609725 226.749371 
L 329.035793 228.334729 
L 330.461861 228.707157 
L 333.313996 225.249971 
L 334.740064 224.404096 
L 337.5922 217.039856 
L 339.018268 217.225316 
L 340.444336 214.488669 
L 341.870404 212.403321 
L 343.296472 211.052871 
L 344.72254 213.775947 
L 346.148608 213.0554 
L 347.574676 206.415052 
L 349.000743 207.358665 
L 350.426811 210.359148 
L 351.852879 205.924266 
L 353.278947 205.927679 
L 354.705015 208.741357 
L 356.131083 203.131144 
L 357.557151 197.97483 
L 358.983219 199.776453 
L 360.409287 202.209683 
L 361.835355 199.850757 
L 363.261423 198.598807 
L 364.68749 197.662319 
L 366.113558 200.901557 
L 367.539626 194.412319 
L 368.965694 198.872214 
L 370.391762 197.310156 
L 371.81783 197.674246 
L 373.243898 193.062357 
L 374.669966 193.169785 
L 376.096034 194.740246 
L 378.948169 180.501373 
L 380.374237 177.745365 
L 381.800305 174.3966 
L 383.226373 166.292784 
L 384.652441 171.246587 
L 386.078509 180.040188 
L 387.504577 180.310819 
L 388.930645 179.032144 
L 390.356713 178.136009 
L 391.782781 178.154234 
L 393.208849 176.134281 
L 394.634916 168.561697 
L 396.060984 168.767963 
L 397.487052 167.179807 
L 398.91312 168.80718 
L 400.339188 171.389692 
L 401.765256 176.414013 
L 404.617392 173.402892 
L 406.04346 183.298154 
L 407.469528 185.244261 
L 408.895596 194.430119 
L 410.321663 195.505325 
L 411.747731 197.251609 
L 413.173799 192.09031 
L 414.599867 194.544092 
L 416.025935 190.896603 
L 417.452003 185.319856 
L 418.878071 187.102192 
L 420.304139 185.266312 
L 421.730207 188.262582 
L 423.156275 197.023495 
L 424.582343 197.39453 
L 426.00841 189.939194 
L 427.434478 188.631058 
L 428.860546 184.91853 
L 430.286614 180.448889 
L 431.712682 178.269502 
L 433.13875 177.426851 
L 434.564818 172.413816 
L 435.990886 169.881101 
L 437.416954 163.645195 
L 438.843022 159.592473 
L 440.26909 161.139432 
L 441.695157 161.993533 
L 443.121225 154.578518 
L 444.547293 157.013544 
L 445.973361 163.424174 
L 447.399429 162.559431 
L 448.825497 164.568954 
L 450.251565 164.769053 
L 451.677633 154.401975 
L 453.103701 154.409885 
L 454.529769 162.882314 
L 455.955837 161.518159 
L 457.381904 159.522373 
L 460.23404 163.833806 
L 461.660108 166.813962 
L 463.086176 165.969187 
L 464.512244 171.545403 
L 465.938312 168.018858 
L 467.36438 168.037111 
L 468.790448 171.994529 
L 470.216516 166.899532 
L 471.642584 169.009078 
L 473.068651 169.703771 
L 474.494719 167.243543 
L 475.920787 165.51258 
L 477.346855 162.562353 
L 478.772923 156.807694 
L 480.198991 168.41194 
L 481.625059 170.83509 
L 483.051127 170.170901 
L 484.477195 168.913418 
L 485.903263 168.026961 
L 487.329331 168.893816 
L 488.755398 165.19027 
L 490.181466 163.497327 
L 491.607534 160.504453 
L 493.033602 158.256067 
L 494.45967 162.193959 
L 495.885738 170.402593 
L 497.311806 163.257984 
L 498.737874 172.260154 
L 500.163942 170.851352 
L 501.59001 175.279542 
L 503.016077 177.113549 
L 504.442145 177.550997 
L 505.868213 180.986708 
L 507.294281 189.036349 
L 508.720349 184.794465 
L 510.146417 188.129351 
L 511.572485 182.685537 
L 512.998553 187.063944 
L 512.998553 187.063944 
" clip-path="url(#pd0fd0886d6)" style="fill: none; stroke: #2196f3; stroke-width: 2.5; stroke-linecap: square"/>
   </g>
   <g id="line2d_31">
    <path d="M 78.047841 137.180696 
L 79.473909 121.599929 
L 80.899977 128.282104 
L 82.326045 202.671385 
L 83.752113 164.278494 
L 85.17818 117.046978 
L 86.604248 135.161867 
L 88.030316 167.973653 
L 89.456384 107.108357 
L 90.882452 146.864185 
L 92.30852 103.141556 
L 93.734588 239.832433 
L 95.160656 194.912852 
L 96.586724 143.689056 
L 98.012792 196.996292 
L 99.43886 156.891508 
L 100.864927 179.384054 
L 102.290995 166.917321 
L 103.717063 139.347822 
L 105.143131 184.023463 
L 106.569199 186.193879 
L 107.995267 151.341623 
L 109.421335 231.379981 
L 110.847403 196.84121 
L 112.273471 307.779216 
L 113.699539 276.742113 
L 115.125607 243.119983 
L 116.551674 201.538051 
L 117.977742 264.00891 
L 119.40381 191.157034 
L 120.829878 280.952988 
L 122.255946 258.109169 
L 123.682014 226.134756 
L 125.108082 236.731576 
L 126.53415 240.852135 
L 127.960218 250.11344 
L 129.386286 315.642052 
L 130.812354 261.923505 
L 132.238421 258.284733 
L 133.664489 232.206813 
L 135.090557 176.61252 
L 136.516625 231.442916 
L 137.942693 311.857259 
L 139.368761 295.258238 
L 140.794829 252.623201 
L 142.220897 300.100148 
L 143.646965 241.336053 
L 145.073033 296.160708 
L 146.4991 262.104117 
L 147.925168 294.187135 
L 149.351236 182.157968 
L 150.777304 262.720587 
L 152.203372 250.338088 
L 153.62944 394.277812 
L 155.055508 262.499653 
L 156.481576 223.032307 
L 157.907644 309.455917 
L 159.333712 248.981399 
L 160.75978 260.363591 
L 162.185847 294.669625 
L 163.611915 280.638489 
L 165.037983 272.207057 
L 166.464051 288.607861 
L 167.890119 224.314031 
L 169.316187 221.189434 
L 170.742255 327.308082 
L 173.594391 238.389182 
L 175.020459 305.795857 
L 176.446527 189.27475 
L 177.872594 224.147622 
L 179.298662 243.695055 
L 180.72473 220.58936 
L 182.150798 251.651228 
L 183.576866 327.364903 
L 185.002934 240.116002 
L 186.429002 323.330595 
L 187.85507 287.071811 
L 189.281138 273.138191 
L 190.707206 199.701147 
L 192.133274 259.158798 
L 193.559341 208.504302 
L 194.985409 302.574076 
L 196.411477 240.696401 
L 197.837545 283.68541 
L 199.263613 207.263335 
L 200.689681 280.021543 
L 202.115749 273.534969 
L 203.541817 206.759152 
L 204.967885 255.081003 
L 206.393953 212.358577 
L 207.820021 284.451263 
L 209.246088 177.860914 
L 210.672156 229.419876 
L 212.098224 304.893573 
L 213.524292 280.366568 
L 214.95036 303.824291 
L 216.376428 257.195559 
L 217.802496 260.834268 
L 219.228564 231.193183 
L 220.654632 294.673794 
L 222.0807 233.860033 
L 223.506768 233.820611 
L 224.932835 220.27872 
L 226.358903 228.641786 
L 227.784971 287.202191 
L 230.637107 220.38087 
L 232.063175 221.947891 
L 233.489243 212.500305 
L 234.915311 218.844397 
L 236.341379 274.336923 
L 237.767447 274.66852 
L 239.193515 280.395977 
L 240.619582 249.402692 
L 242.04565 279.422276 
L 243.471718 255.433941 
L 244.897786 260.648008 
L 246.323854 271.443046 
L 247.749922 273.103403 
L 249.17599 236.652391 
L 250.602058 303.638693 
L 252.028126 321.534831 
L 253.454194 231.977552 
L 254.880262 299.84577 
L 256.306329 237.275781 
L 257.732397 263.282439 
L 259.158465 335.109192 
L 260.584533 319.387163 
L 262.010601 237.849001 
L 263.436669 267.460874 
L 264.862737 268.213744 
L 266.288805 240.717152 
L 267.714873 282.133792 
L 269.140941 238.752175 
L 270.567008 237.521862 
L 271.993076 273.125354 
L 274.845212 295.126327 
L 276.27128 214.212104 
L 277.697348 215.453899 
L 279.123416 304.771821 
L 280.549484 313.413356 
L 281.975552 169.250856 
L 283.40162 222.616113 
L 284.827688 301.767549 
L 286.253755 278.295996 
L 287.679823 237.783801 
L 289.105891 320.625306 
L 290.531959 206.507372 
L 291.958027 225.288146 
L 293.384095 224.008842 
L 294.810163 305.949253 
L 296.236231 274.574128 
L 297.662299 265.146724 
L 299.088367 267.578944 
L 300.514435 251.18384 
L 301.940502 256.751766 
L 303.36657 272.92697 
L 304.792638 231.831811 
L 306.218706 249.768561 
L 307.644774 213.194347 
L 309.070842 294.132299 
L 310.49691 271.555023 
L 311.922978 208.979583 
L 313.349046 290.976091 
L 314.775114 280.442475 
L 316.201182 230.68568 
L 317.627249 244.138589 
L 319.053317 263.95994 
L 320.479385 274.36779 
L 321.905453 233.026022 
L 323.331521 283.111155 
L 324.757589 282.566661 
L 326.183657 190.62337 
L 327.609725 245.843748 
L 329.035793 262.916322 
L 330.461861 213.549126 
L 331.887929 236.636677 
L 333.313996 236.232276 
L 334.740064 260.203502 
L 336.166132 258.338286 
L 337.5922 290.273866 
L 339.018268 260.794877 
L 340.444336 278.373961 
L 341.870404 260.786394 
L 344.72254 288.288128 
L 346.148608 288.827843 
L 347.574676 265.616656 
L 349.000743 252.739006 
L 350.426811 300.516579 
L 351.852879 282.320787 
L 353.278947 211.301521 
L 354.705015 324.037785 
L 356.131083 302.82024 
L 357.557151 217.124384 
L 358.983219 278.166754 
L 360.409287 324.472878 
L 361.835355 213.141291 
L 363.261423 178.902971 
L 364.68749 318.732284 
L 366.113558 207.991099 
L 367.539626 221.186217 
L 368.965694 307.368464 
L 370.391762 379.549541 
L 371.81783 266.447554 
L 373.243898 304.759759 
L 374.669966 221.253114 
L 376.096034 248.884048 
L 377.522102 292.337642 
L 378.948169 287.721476 
L 380.374237 307.474845 
L 383.226373 230.992679 
L 384.652441 284.940032 
L 386.078509 209.509564 
L 387.504577 319.068092 
L 388.930645 271.215181 
L 390.356713 283.011436 
L 391.782781 217.938461 
L 393.208849 285.987116 
L 394.634916 245.299978 
L 396.060984 298.943383 
L 397.487052 279.198135 
L 398.91312 254.947478 
L 400.339188 304.746529 
L 401.765256 256.841317 
L 403.191324 240.986094 
L 404.617392 230.286348 
L 406.04346 249.911426 
L 407.469528 237.693205 
L 408.895596 246.720533 
L 410.321663 284.391669 
L 411.747731 302.252088 
L 413.173799 255.862103 
L 414.599867 337.703167 
L 416.025935 260.028455 
L 417.452003 290.354717 
L 418.878071 285.884428 
L 420.304139 317.978266 
L 421.730207 281.032691 
L 423.156275 221.469031 
L 424.582343 245.94115 
L 426.00841 254.364503 
L 428.860546 334.768481 
L 430.286614 206.375957 
L 431.712682 289.470795 
L 433.13875 239.129422 
L 434.564818 227.939314 
L 435.990886 291.22332 
L 437.416954 259.327369 
L 438.843022 232.801498 
L 440.26909 258.122089 
L 441.695157 263.728786 
L 443.121225 297.787384 
L 444.547293 279.497717 
L 445.973361 283.519725 
L 447.399429 229.960098 
L 448.825497 276.153283 
L 450.251565 259.557633 
L 451.677633 275.013586 
L 453.103701 227.184561 
L 454.529769 280.92271 
L 455.955837 277.25876 
L 457.381904 228.469657 
L 458.807972 263.800607 
L 460.23404 314.417232 
L 461.660108 274.371462 
L 463.086176 208.803232 
L 464.512244 216.046339 
L 465.938312 249.474409 
L 467.36438 252.765343 
L 468.790448 189.411005 
L 470.216516 177.430673 
L 471.642584 282.825745 
L 473.068651 235.992164 
L 474.494719 226.819571 
L 475.920787 247.21104 
L 477.346855 308.497267 
L 478.772923 246.476541 
L 480.198991 198.993088 
L 481.625059 259.476493 
L 483.051127 236.643494 
L 484.477195 194.182915 
L 485.903263 256.109466 
L 487.329331 288.343387 
L 488.755398 244.287485 
L 490.181466 305.06382 
L 491.607534 270.104045 
L 493.033602 178.218849 
L 494.45967 241.06258 
L 495.885738 253.184495 
L 497.311806 183.538097 
L 498.737874 256.038101 
L 500.163942 257.798705 
L 501.59001 287.795118 
L 503.016077 254.119922 
L 504.442145 262.000456 
L 505.868213 280.097119 
L 507.294281 226.625088 
L 508.720349 296.666587 
L 510.146417 255.327829 
L 511.572485 297.458838 
L 512.998553 296.606362 
L 514.424621 264.375493 
L 515.850689 200.641001 
L 517.276757 261.767357 
L 518.702824 214.528982 
L 520.128892 242.303951 
L 521.55496 275.040058 
L 522.981028 240.909711 
L 524.407096 264.215011 
L 525.833164 247.85063 
L 527.259232 281.834883 
L 528.6853 321.412209 
L 530.111368 276.75283 
L 531.537436 271.232704 
L 532.963504 296.347754 
L 534.389571 227.213804 
L 535.815639 227.117633 
L 537.241707 306.408603 
L 538.667775 173.68279 
L 540.093843 240.893036 
L 541.519911 243.877684 
L 542.945979 220.380094 
L 544.372047 257.010012 
L 545.798115 258.149885 
L 547.224183 284.446494 
L 548.650251 286.79059 
L 550.076318 257.372902 
L 551.502386 199.050334 
L 552.928454 259.204044 
L 554.354522 241.186598 
L 555.78059 254.252598 
L 557.206658 283.265958 
L 558.632726 264.184454 
L 560.058794 239.82153 
L 561.484862 230.6998 
L 562.91093 268.733929 
L 564.336998 343.764589 
L 565.763065 267.173053 
L 567.189133 242.439916 
L 570.041269 391.16264 
L 571.467337 303.829887 
L 572.893405 262.955279 
L 574.319473 201.837716 
L 575.745541 227.718348 
L 577.171609 248.119189 
L 578.597677 265.459506 
L 580.023745 330.637361 
L 581.449812 264.400412 
L 582.87588 220.656805 
L 584.301948 276.156376 
L 585.728016 342.189635 
L 587.154084 202.786342 
L 588.580152 206.911897 
L 590.00622 260.926539 
L 591.432288 229.12198 
L 592.858356 270.029856 
L 594.284424 301.476005 
L 595.710492 323.043054 
L 597.136559 338.323764 
L 598.562627 282.863109 
L 599.988695 279.748701 
L 601.414763 206.154154 
L 602.840831 278.222893 
L 604.266899 306.399924 
L 605.692967 368.400655 
L 607.119035 283.536028 
L 608.545103 236.246365 
L 609.971171 235.542413 
L 611.397238 277.189143 
L 612.823306 234.779426 
L 614.249374 266.731847 
L 615.675442 312.065149 
L 617.10151 224.045389 
L 618.527578 235.97282 
L 619.953646 335.20016 
L 621.379714 255.927686 
L 622.805782 269.297395 
L 624.23185 261.009635 
L 625.657918 292.132059 
L 627.083985 299.00307 
L 628.510053 274.34887 
L 629.936121 276.040706 
L 631.362189 203.521223 
L 632.788257 229.336139 
L 634.214325 259.235646 
L 635.640393 277.403436 
L 637.066461 223.900434 
L 638.492529 315.827825 
L 639.918597 303.830653 
L 641.344665 199.646663 
L 642.770732 265.638607 
L 644.1968 299.80069 
L 645.622868 306.835617 
L 647.048936 261.634019 
L 648.475004 302.51562 
L 651.32714 258.818997 
L 652.753208 247.001298 
L 654.179276 215.930504 
L 655.605344 235.810269 
L 657.031412 229.556504 
L 658.457479 249.932363 
L 659.883547 290.631097 
L 661.309615 285.61562 
L 662.735683 255.525984 
L 664.161751 286.674662 
L 665.587819 244.140089 
L 667.013887 273.924432 
L 668.439955 236.609875 
L 669.866023 292.002113 
L 671.292091 226.635236 
L 672.718159 259.68822 
L 674.144226 279.609601 
L 675.570294 216.900708 
L 676.996362 282.708916 
L 678.42243 221.917137 
L 679.848498 244.339414 
L 681.274566 235.071478 
L 682.700634 186.94529 
L 684.126702 268.30104 
L 685.55277 212.246362 
L 686.978838 285.230852 
L 688.404906 300.365242 
L 689.830973 276.007707 
L 691.257041 273.884648 
L 692.683109 274.971206 
L 694.109177 267.571393 
L 695.535245 293.916217 
L 696.961313 275.049998 
L 698.387381 232.898011 
L 699.813449 283.743649 
L 701.239517 249.554898 
L 702.665585 282.859726 
L 704.091653 289.409174 
L 705.51772 281.297464 
L 706.943788 254.528522 
L 708.369856 284.694572 
L 709.795924 254.051949 
L 711.221992 282.680459 
L 712.64806 211.691409 
L 714.074128 254.565162 
L 715.500196 339.112157 
L 716.926264 228.306806 
L 718.352332 286.284277 
L 719.7784 218.668222 
L 721.204467 211.871918 
L 722.630535 249.445766 
L 724.056603 170.634648 
L 725.482671 208.000275 
L 726.908739 251.929014 
L 728.334807 227.034309 
L 729.760875 303.850214 
L 732.613011 239.313427 
L 734.039079 314.66954 
L 735.465146 289.801937 
L 736.891214 279.240495 
L 738.317282 254.461967 
L 739.74335 301.400564 
L 741.169418 220.674504 
L 742.595486 261.813534 
L 744.021554 295.826038 
L 745.447622 313.880672 
L 746.87369 280.831256 
L 748.299758 305.464166 
L 749.725826 261.839602 
L 751.151893 277.826219 
L 752.577961 285.029562 
L 754.004029 244.662808 
L 755.430097 258.145881 
L 756.856165 184.788561 
L 758.282233 239.324681 
L 759.708301 243.37673 
L 761.134369 246.366115 
L 762.560437 262.473647 
L 763.986505 227.168589 
L 765.412573 361.676327 
L 766.83864 234.459538 
L 768.264708 280.2014 
L 769.690776 295.380684 
L 771.116844 368.378994 
L 772.542912 322.065826 
L 773.96898 262.132615 
L 775.395048 237.761571 
L 776.821116 259.843871 
L 778.247184 245.90389 
L 779.673252 247.550716 
L 781.09932 277.098144 
L 782.525387 231.462301 
L 783.951455 253.776004 
L 785.377523 244.609235 
L 786.803591 261.382797 
L 788.229659 358.085532 
L 788.229659 358.085532 
" clip-path="url(#pd0fd0886d6)" style="fill: none; stroke: #4caf50; stroke-opacity: 0.15; stroke-width: 1.5; stroke-linecap: square"/>
   </g>
   <g id="line2d_32">
    <path d="M 105.143131 156.6652 
L 106.569199 159.115859 
L 107.995267 160.602944 
L 109.421335 165.757838 
L 110.847403 165.466329 
L 112.273471 172.641365 
L 113.699539 180.626122 
L 115.125607 186.024028 
L 116.551674 187.702248 
L 117.977742 195.547275 
L 119.40381 197.761918 
L 120.829878 206.652489 
L 122.255946 207.566326 
L 123.682014 209.127422 
L 125.108082 213.779548 
L 126.53415 215.97234 
L 127.960218 220.633436 
L 129.386286 227.446336 
L 130.812354 232.196645 
L 132.238421 238.143491 
L 133.664489 240.552658 
L 135.090557 240.07359 
L 137.942693 248.102519 
L 139.368761 253.02337 
L 140.794829 250.26557 
L 142.220897 251.433471 
L 143.646965 251.344275 
L 145.073033 256.075408 
L 146.4991 255.980168 
L 147.925168 261.131673 
L 149.351236 256.191922 
L 150.777304 256.422493 
L 152.203372 257.63266 
L 153.62944 265.509971 
L 155.055508 266.592347 
L 156.481576 265.238291 
L 157.907644 264.928984 
L 159.333712 264.281879 
L 160.75978 264.385821 
L 162.185847 267.508962 
L 163.611915 272.71026 
L 165.037983 274.748468 
L 166.464051 273.585998 
L 167.890119 270.038787 
L 169.316187 268.467099 
L 170.742255 269.827496 
L 172.168323 271.879715 
L 173.594391 268.991138 
L 175.020459 271.175725 
L 176.446527 265.930106 
L 177.872594 268.029589 
L 179.298662 267.078312 
L 180.72473 265.590876 
L 182.150798 258.459547 
L 183.576866 261.702809 
L 185.002934 262.556994 
L 186.429002 263.250728 
L 187.85507 265.155248 
L 189.281138 265.793978 
L 190.707206 261.045554 
L 192.133274 259.97157 
L 193.559341 256.786432 
L 196.411477 258.303861 
L 197.837545 261.42866 
L 199.263613 255.426423 
L 200.689681 255.308478 
L 202.115749 257.065768 
L 203.541817 252.113932 
L 204.967885 255.404245 
L 206.393953 254.814793 
L 207.820021 256.852603 
L 209.246088 254.716181 
L 212.098224 252.481047 
L 213.524292 254.493575 
L 214.95036 253.51826 
L 216.376428 252.024447 
L 217.802496 251.409251 
L 219.228564 252.983853 
L 220.654632 254.759603 
L 222.0807 256.027389 
L 223.506768 252.589716 
L 224.932835 251.568832 
L 226.358903 248.816651 
L 227.784971 252.813594 
L 229.211039 251.545845 
L 230.637107 248.88814 
L 232.063175 249.647577 
L 233.489243 247.518542 
L 234.915311 247.842833 
L 236.341379 247.337116 
L 237.767447 252.177496 
L 239.193515 254.726301 
L 240.619582 251.951757 
L 242.04565 251.904543 
L 243.471718 249.485025 
L 244.897786 249.657648 
L 246.323854 250.188087 
L 247.749922 252.283598 
L 249.17599 249.382527 
L 250.602058 252.87146 
L 252.028126 257.257171 
L 253.454194 257.842113 
L 254.880262 261.402312 
L 256.306329 258.905992 
L 257.732397 259.336785 
L 259.158465 265.073201 
L 260.584533 269.945165 
L 262.010601 271.2126 
L 263.436669 273.643424 
L 264.862737 273.337265 
L 266.288805 271.639696 
L 267.714873 271.726587 
L 269.140941 271.194061 
L 270.567008 269.099041 
L 271.993076 269.983611 
L 274.845212 272.347875 
L 276.27128 269.40331 
L 277.697348 268.343385 
L 279.123416 268.400042 
L 280.549484 267.993968 
L 281.975552 264.857633 
L 283.40162 260.996151 
L 284.827688 264.220739 
L 286.253755 264.971417 
L 287.679823 260.105147 
L 289.105891 260.167054 
L 290.531959 258.599973 
L 293.384095 254.281091 
L 294.810163 257.542696 
L 296.236231 257.164713 
L 297.662299 258.484441 
L 299.088367 259.987295 
L 300.514435 258.890219 
L 301.940502 257.515307 
L 303.36657 256.405339 
L 304.792638 257.286325 
L 306.218706 259.002058 
L 307.644774 254.423184 
L 309.070842 253.459131 
L 310.49691 258.57434 
L 311.922978 257.892513 
L 313.349046 257.35294 
L 314.775114 257.460264 
L 316.201182 257.105358 
L 317.627249 253.281022 
L 319.053317 256.153651 
L 320.479385 258.607633 
L 321.905453 259.058492 
L 323.331521 257.916587 
L 324.757589 258.316214 
L 326.183657 254.590046 
L 327.609725 253.503286 
L 329.035793 254.08991 
L 330.461861 251.929778 
L 331.887929 250.115264 
L 333.313996 250.335287 
L 334.740064 250.857034 
L 336.166132 253.114231 
L 337.5922 252.921309 
L 339.018268 252.383302 
L 340.444336 255.853021 
L 341.870404 254.343536 
L 343.296472 254.031423 
L 344.72254 256.911546 
L 346.148608 259.146008 
L 347.574676 259.228844 
L 349.000743 258.147405 
L 350.426811 261.521933 
L 351.852879 261.482414 
L 353.278947 257.919158 
L 354.705015 264.589878 
L 356.131083 267.438703 
L 357.557151 265.149106 
L 358.983219 268.379987 
L 360.409287 272.771797 
L 361.835355 271.617248 
L 363.261423 267.552221 
L 364.68749 270.571921 
L 366.113558 266.457783 
L 367.539626 264.47735 
L 368.965694 265.927075 
L 370.391762 271.865233 
L 371.81783 271.477599 
L 373.243898 272.301181 
L 374.669966 268.922444 
L 376.096034 268.085814 
L 377.522102 270.065746 
L 378.948169 269.42599 
L 380.374237 270.683693 
L 381.800305 273.600569 
L 383.226373 268.948313 
L 384.652441 268.054303 
L 386.078509 267.673562 
L 387.504577 269.718629 
L 388.930645 267.055744 
L 390.356713 270.549251 
L 391.782781 272.501026 
L 393.208849 270.863767 
L 394.634916 272.729211 
L 396.060984 276.61707 
L 397.487052 275.208553 
L 398.91312 268.97845 
L 400.339188 270.893399 
L 401.765256 268.497477 
L 403.191324 269.484126 
L 404.617392 268.554241 
L 406.04346 266.43293 
L 407.469528 263.931516 
L 408.895596 260.893801 
L 410.321663 261.631433 
L 411.747731 265.194403 
L 413.173799 263.740507 
L 414.599867 270.150187 
L 416.025935 267.198205 
L 417.452003 268.155182 
L 418.878071 268.298831 
L 420.304139 273.300822 
L 421.730207 273.0531 
L 423.156275 271.861553 
L 424.582343 269.211441 
L 426.00841 267.96976 
L 427.434478 269.933785 
L 428.860546 271.434883 
L 430.286614 268.911615 
L 431.712682 271.33585 
L 433.13875 271.778004 
L 434.564818 270.679398 
L 435.990886 273.355904 
L 437.416954 273.986245 
L 438.843022 271.406737 
L 440.26909 269.200237 
L 441.695157 269.593571 
L 443.121225 267.597782 
L 444.547293 268.571245 
L 445.973361 268.229495 
L 447.399429 265.433279 
L 448.825497 263.34203 
L 450.251565 262.268277 
L 451.677633 264.945505 
L 453.103701 264.007675 
L 454.529769 265.335586 
L 455.955837 264.487124 
L 457.381904 259.172183 
L 458.807972 262.043416 
L 460.23404 263.290738 
L 461.660108 265.05284 
L 463.086176 264.096036 
L 464.512244 260.337186 
L 465.938312 259.844538 
L 467.36438 260.842731 
L 468.790448 257.407177 
L 470.216516 253.092271 
L 471.642584 252.344189 
L 473.068651 250.168911 
L 474.494719 247.333904 
L 475.920787 248.196451 
L 477.346855 249.81365 
L 478.772923 249.159595 
L 480.198991 245.35857 
L 481.625059 246.973167 
L 483.051127 244.759206 
L 484.477195 240.605414 
L 485.903263 241.987404 
L 487.329331 243.214543 
L 488.755398 239.708056 
L 490.181466 241.242674 
L 491.607534 244.307715 
L 493.033602 242.41634 
L 494.45967 241.995749 
L 495.885738 242.016706 
L 497.311806 241.723061 
L 498.737874 245.653432 
L 500.163942 244.40208 
L 501.59001 246.992228 
L 503.016077 248.357245 
L 504.442145 249.096716 
L 505.868213 247.676709 
L 507.294281 246.684136 
L 508.720349 251.567811 
L 510.146417 251.360378 
L 511.572485 254.401145 
L 512.998553 259.522317 
L 514.424621 259.935619 
L 515.850689 255.550499 
L 517.276757 256.424493 
L 518.702824 251.897751 
L 520.128892 250.507746 
L 521.55496 255.348807 
L 522.981028 255.341163 
L 524.407096 255.892689 
L 525.833164 259.108316 
L 527.259232 260.398155 
L 528.6853 263.57883 
L 530.111368 263.026716 
L 531.537436 263.882355 
L 532.963504 265.59972 
L 534.389571 262.955554 
L 535.815639 262.980181 
L 537.241707 263.467282 
L 538.667775 259.38503 
L 541.519911 253.920306 
L 542.945979 251.720536 
L 544.372047 254.538987 
L 545.798115 254.358113 
L 547.224183 257.853989 
L 548.650251 260.078321 
L 550.076318 259.194963 
L 551.502386 257.101994 
L 554.354522 256.518244 
L 555.78059 255.13913 
L 557.206658 253.231817 
L 558.632726 252.603399 
L 560.058794 251.03284 
L 561.484862 247.750442 
L 562.91093 249.826448 
L 564.336998 255.658796 
L 565.763065 253.697019 
L 567.189133 257.134875 
L 568.615201 260.992414 
L 570.041269 268.356661 
L 571.467337 272.529151 
L 572.893405 272.826414 
L 575.745541 267.174399 
L 577.171609 265.240829 
L 578.597677 265.645159 
L 580.023745 272.22451 
L 581.449812 272.484329 
L 582.87588 271.457839 
L 584.301948 272.553028 
L 585.728016 275.499212 
L 587.154084 272.429306 
L 588.580152 270.783824 
L 590.00622 272.295161 
L 591.432288 270.314564 
L 592.858356 266.627827 
L 594.284424 268.342975 
L 595.710492 272.373132 
L 597.136559 273.38713 
L 598.562627 267.972153 
L 599.988695 266.768094 
L 601.414763 263.928037 
L 604.266899 271.681375 
L 605.692967 277.695448 
L 607.119035 278.599275 
L 608.545103 273.879725 
L 609.971171 272.436825 
L 611.397238 275.263442 
L 612.823306 273.194594 
L 614.249374 269.421705 
L 615.675442 274.885645 
L 617.10151 275.74232 
L 618.527578 274.494634 
L 619.953646 279.798543 
L 621.379714 279.093434 
L 622.805782 277.484504 
L 624.23185 274.382833 
L 625.657918 272.073248 
L 627.083985 272.880246 
L 628.510053 272.610254 
L 629.936121 276.104582 
L 632.788257 268.516309 
L 634.214325 263.058058 
L 635.640393 262.751429 
L 637.066461 262.134132 
L 638.492529 266.148403 
L 639.918597 267.480478 
L 641.344665 265.72384 
L 642.770732 265.669178 
L 644.1968 265.055955 
L 645.622868 269.195467 
L 647.048936 270.478527 
L 648.475004 268.8443 
L 649.901072 270.065823 
L 651.32714 269.541903 
L 652.753208 268.841486 
L 654.179276 265.031408 
L 655.605344 261.871768 
L 657.031412 259.63215 
L 658.457479 258.326733 
L 659.883547 262.682226 
L 661.309615 265.4962 
L 662.735683 265.310717 
L 664.161751 265.774279 
L 665.587819 266.786261 
L 667.013887 264.691092 
L 668.439955 261.330053 
L 669.866023 265.947825 
L 672.718159 261.992033 
L 674.144226 260.630733 
L 675.570294 258.394067 
L 676.996362 257.403732 
L 678.42243 254.481681 
L 679.848498 253.757702 
L 681.274566 253.161211 
L 682.700634 251.71195 
L 684.126702 253.336489 
L 685.55277 252.470982 
L 686.978838 254.235906 
L 688.404906 254.722614 
L 689.830973 254.242218 
L 691.257041 255.160151 
L 692.683109 254.574978 
L 694.109177 255.746544 
L 695.535245 256.746133 
L 696.961313 258.668139 
L 698.387381 255.712934 
L 699.813449 258.568354 
L 701.239517 258.061688 
L 702.665585 258.224195 
L 704.091653 261.849618 
L 705.51772 261.779045 
L 706.943788 263.409615 
L 708.369856 265.427372 
L 709.795924 266.376396 
L 711.221992 271.163154 
L 712.64806 268.332673 
L 714.074128 270.448613 
L 715.500196 273.142678 
L 716.926264 269.539756 
L 718.352332 270.053585 
L 719.7784 267.292764 
L 721.204467 264.137799 
L 722.630535 263.231518 
L 724.056603 257.067439 
L 725.482671 253.714953 
L 726.908739 254.666503 
L 728.334807 251.831036 
L 729.760875 254.545802 
L 731.186943 254.007042 
L 732.613011 251.502254 
L 735.465146 254.934529 
L 736.891214 254.661825 
L 738.317282 254.682326 
L 739.74335 255.618331 
L 742.595486 256.429905 
L 744.021554 254.265599 
L 745.447622 258.544292 
L 746.87369 258.271641 
L 748.299758 262.611438 
L 749.725826 265.109822 
L 751.151893 266.528845 
L 752.577961 272.248591 
L 754.004029 274.081717 
L 755.430097 274.392561 
L 756.856165 272.280273 
L 758.282233 269.053997 
L 759.708301 267.618607 
L 761.134369 267.971242 
L 762.560437 265.361447 
L 763.986505 262.22978 
L 765.412573 266.351571 
L 768.264708 264.291492 
L 769.690776 268.026801 
L 771.116844 273.355073 
L 772.542912 274.667063 
L 773.96898 272.07966 
L 776.821116 267.645161 
L 778.247184 266.848375 
L 779.673252 265.3346 
L 781.09932 264.938029 
L 782.525387 264.278004 
L 783.951455 264.05951 
L 785.377523 267.050544 
L 786.803591 268.15345 
L 788.229659 273.88889 
L 788.229659 273.88889 
" clip-path="url(#pd0fd0886d6)" style="fill: none; stroke: #4caf50; stroke-width: 2.5; stroke-linecap: square"/>
   </g>
   <g id="patch_3">
    <path d="M 42.53875 411.917812 
L 42.53875 23.837812 
" style="fill: none; stroke: #000000; stroke-width: 0.8; stroke-linejoin: miter; stroke-linecap: square"/>
   </g>
   <g id="patch_4">
    <path d="M 823.73875 411.917812 
L 823.73875 23.837812 
" style="fill: none; stroke: #000000; stroke-width: 0.8; stroke-linejoin: miter; stroke-linecap: square"/>
   </g>
   <g id="patch_5">
    <path d="M 42.53875 411.917812 
L 823.73875 411.917812 
" style="fill: none; stroke: #000000; stroke-width: 0.8; stroke-linejoin: miter; stroke-linecap: square"/>
   </g>
   <g id="patch_6">
    <path d="M 42.53875 23.837812 
L 823.73875 23.837812 
" style="fill: none; stroke: #000000; stroke-width: 0.8; stroke-linejoin: miter; stroke-linecap: square"/>
   </g>
   <g id="text_17">
    <!-- DQN vs PPO Training Reward Curves -->
    <g transform="translate(289.593906 17.837812) scale(0.14 -0.14)">
     <defs>
      <path id="DejaVuSans-Bold-44" d="M 1791 3756 
L 1791 909 
L 2222 909 
Q 2959 909 3348 1275 
Q 3738 1641 3738 2338 
Q 3738 3031 3350 3393 
Q 2963 3756 2222 3756 
L 1791 3756 
z
M 588 4666 
L 1856 4666 
Q 2919 4666 3439 4514 
Q 3959 4363 4331 4000 
Q 4659 3684 4818 3271 
Q 4978 2859 4978 2338 
Q 4978 1809 4818 1395 
Q 4659 981 4331 666 
Q 3956 303 3431 151 
Q 2906 0 1856 0 
L 588 0 
L 588 4666 
z
" transform="scale(0.015625)"/>
      <path id="DejaVuSans-Bold-51" d="M 2847 -84 
L 2753 -84 
Q 1600 -84 959 553 
Q 319 1191 319 2328 
Q 319 3463 958 4106 
Q 1597 4750 2719 4750 
Q 3853 4750 4486 4112 
Q 5119 3475 5119 2328 
Q 5119 1541 4783 972 
Q 4447 403 3816 116 
L 4756 -934 
L 3609 -934 
L 2847 -84 
z
M 2719 3878 
Q 2169 3878 1866 3472 
Q 1563 3066 1563 2328 
Q 1563 1578 1859 1179 
Q 2156 781 2719 781 
Q 3272 781 3575 1187 
Q 3878 1594 3878 2328 
Q 3878 3066 3575 3472 
Q 3272 3878 2719 3878 
z
" transform="scale(0.015625)"/>
      <path id="DejaVuSans-Bold-4e" d="M 588 4666 
L 1931 4666 
L 3628 1466 
L 3628 4666 
L 4769 4666 
L 4769 0 
L 3425 0 
L 1728 3200 
L 1728 0 
L 588 0 
L 588 4666 
z
" transform="scale(0.015625)"/>
      <path id="DejaVuSans-Bold-20" transform="scale(0.015625)"/>
      <path id="DejaVuSans-Bold-76" d="M 97 3500 
L 1216 3500 
L 2088 1081 
L 2956 3500 
L 4078 3500 
L 2700 0 
L 1472 0 
L 97 3500 
z
" transform="scale(0.015625)"/>
      <path id="DejaVuSans-Bold-73" d="M 3272 3391 
L 3272 2541 
Q 2913 2691 2578 2766 
Q 2244 2841 1947 2841 
Q 1628 2841 1473 2761 
Q 1319 2681 1319 2516 
Q 1319 2381 1436 2309 
Q 1553 2238 1856 2203 
L 2053 2175 
Q 2913 2066 3209 1816 
Q 3506 1566 3506 1031 
Q 3506 472 3093 190 
Q 2681 -91 1863 -91 
Q 1516 -91 1145 -36 
Q 775 19 384 128 
L 384 978 
Q 719 816 1070 734 
Q 1422 653 1784 653 
Q 2113 653 2278 743 
Q 2444 834 2444 1013 
Q 2444 1163 2330 1236 
Q 2216 1309 1875 1350 
L 1678 1375 
Q 931 1469 631 1722 
Q 331 1975 331 2491 
Q 331 3047 712 3315 
Q 1094 3584 1881 3584 
Q 2191 3584 2531 3537 
Q 2872 3491 3272 3391 
z
" transform="scale(0.015625)"/>
      <path id="DejaVuSans-Bold-50" d="M 588 4666 
L 2584 4666 
Q 3475 4666 3951 4270 
Q 4428 3875 4428 3144 
Q 4428 2409 3951 2014 
Q 3475 1619 2584 1619 
L 1791 1619 
L 1791 0 
L 588 0 
L 588 4666 
z
M 1791 3794 
L 1791 2491 
L 2456 2491 
Q 2806 2491 2997 2661 
Q 3188 2831 3188 3144 
Q 3188 3456 2997 3625 
Q 2806 3794 2456 3794 
L 1791 3794 
z
" transform="scale(0.015625)"/>
      <path id="DejaVuSans-Bold-4f" d="M 2719 3878 
Q 2169 3878 1866 3472 
Q 1563 3066 1563 2328 
Q 1563 1594 1866 1187 
Q 2169 781 2719 781 
Q 3272 781 3575 1187 
Q 3878 1594 3878 2328 
Q 3878 3066 3575 3472 
Q 3272 3878 2719 3878 
z
M 2719 4750 
Q 3844 4750 4481 4106 
Q 5119 3463 5119 2328 
Q 5119 1197 4481 553 
Q 3844 -91 2719 -91 
Q 1597 -91 958 553 
Q 319 1197 319 2328 
Q 319 3463 958 4106 
Q 1597 4750 2719 4750 
z
" transform="scale(0.015625)"/>
      <path id="DejaVuSans-Bold-54" d="M 31 4666 
L 4331 4666 
L 4331 3756 
L 2784 3756 
L 2784 0 
L 1581 0 
L 1581 3756 
L 31 3756 
L 31 4666 
z
" transform="scale(0.015625)"/>
      <path id="DejaVuSans-Bold-72" d="M 3138 2547 
Q 2991 2616 2845 2648 
Q 2700 2681 2553 2681 
Q 2122 2681 1889 2404 
Q 1656 2128 1656 1613 
L 1656 0 
L 538 0 
L 538 3500 
L 1656 3500 
L 1656 2925 
Q 1872 3269 2151 3426 
Q 2431 3584 2822 3584 
Q 2878 3584 2943 3579 
Q 3009 3575 3134 3559 
L 3138 2547 
z
" transform="scale(0.015625)"/>
      <path id="DejaVuSans-Bold-61" d="M 2106 1575 
Q 1756 1575 1579 1456 
Q 1403 1338 1403 1106 
Q 1403 894 1545 773 
Q 1688 653 1941 653 
Q 2256 653 2472 879 
Q 2688 1106 2688 1447 
L 2688 1575 
L 2106 1575 
z
M 3816 1997 
L 3816 0 
L 2688 0 
L 2688 519 
Q 2463 200 2181 54 
Q 1900 -91 1497 -91 
Q 953 -91 614 226 
Q 275 544 275 1050 
Q 275 1666 698 1953 
Q 1122 2241 2028 2241 
L 2688 2241 
L 2688 2328 
Q 2688 2594 2478 2717 
Q 2269 2841 1825 2841 
Q 1466 2841 1156 2769 
Q 847 2697 581 2553 
L 581 3406 
Q 941 3494 1303 3539 
Q 1666 3584 2028 3584 
Q 2975 3584 3395 3211 
Q 3816 2838 3816 1997 
z
" transform="scale(0.015625)"/>
      <path id="DejaVuSans-Bold-69" d="M 538 3500 
L 1656 3500 
L 1656 0 
L 538 0 
L 538 3500 
z
M 538 4863 
L 1656 4863 
L 1656 3950 
L 538 3950 
L 538 4863 
z
" transform="scale(0.015625)"/>
      <path id="DejaVuSans-Bold-6e" d="M 4056 2131 
L 4056 0 
L 2931 0 
L 2931 347 
L 2931 1631 
Q 2931 2084 2911 2256 
Q 2891 2428 2841 2509 
Q 2775 2619 2662 2680 
Q 2550 2741 2406 2741 
Q 2056 2741 1856 2470 
Q 1656 2200 1656 1722 
L 1656 0 
L 538 0 
L 538 3500 
L 1656 3500 
L 1656 2988 
Q 1909 3294 2193 3439 
Q 2478 3584 2822 3584 
Q 3428 3584 3742 3212 
Q 4056 2841 4056 2131 
z
" transform="scale(0.015625)"/>
      <path id="DejaVuSans-Bold-67" d="M 2919 594 
Q 2688 288 2409 144 
Q 2131 0 1766 0 
Q 1125 0 706 504 
Q 288 1009 288 1791 
Q 288 2575 706 3076 
Q 1125 3578 1766 3578 
Q 2131 3578 2409 3434 
Q 2688 3291 2919 2981 
L 2919 3500 
L 4044 3500 
L 4044 353 
Q 4044 -491 3511 -936 
Q 2978 -1381 1966 -1381 
Q 1638 -1381 1331 -1331 
Q 1025 -1281 716 -1178 
L 716 -306 
Q 1009 -475 1290 -558 
Q 1572 -641 1856 -641 
Q 2406 -641 2662 -400 
Q 2919 -159 2919 353 
L 2919 594 
z
M 2181 2772 
Q 1834 2772 1640 2515 
Q 1447 2259 1447 1791 
Q 1447 1309 1634 1061 
Q 1822 813 2181 813 
Q 2531 813 2725 1069 
Q 2919 1325 2919 1791 
Q 2919 2259 2725 2515 
Q 2531 2772 2181 2772 
z
" transform="scale(0.015625)"/>
      <path id="DejaVuSans-Bold-52" d="M 2297 2597 
Q 2675 2597 2839 2737 
Q 3003 2878 3003 3200 
Q 3003 3519 2839 3656 
Q 2675 3794 2297 3794 
L 1791 3794 
L 1791 2597 
L 2297 2597 
z
M 1791 1766 
L 1791 0 
L 588 0 
L 588 4666 
L 2425 4666 
Q 3347 4666 3776 4356 
Q 4206 4047 4206 3378 
Q 4206 2916 3982 2619 
Q 3759 2322 3309 2181 
Q 3556 2125 3751 1926 
Q 3947 1728 4147 1325 
L 4800 0 
L 3519 0 
L 2950 1159 
Q 2778 1509 2601 1637 
Q 2425 1766 2131 1766 
L 1791 1766 
z
" transform="scale(0.015625)"/>
      <path id="DejaVuSans-Bold-65" d="M 4031 1759 
L 4031 1441 
L 1416 1441 
Q 1456 1047 1700 850 
Q 1944 653 2381 653 
Q 2734 653 3104 758 
Q 3475 863 3866 1075 
L 3866 213 
Q 3469 63 3072 -14 
Q 2675 -91 2278 -91 
Q 1328 -91 801 392 
Q 275 875 275 1747 
Q 275 2603 792 3093 
Q 1309 3584 2216 3584 
Q 3041 3584 3536 3087 
Q 4031 2591 4031 1759 
z
M 2881 2131 
Q 2881 2450 2695 2645 
Q 2509 2841 2209 2841 
Q 1884 2841 1681 2658 
Q 1478 2475 1428 2131 
L 2881 2131 
z
" transform="scale(0.015625)"/>
      <path id="DejaVuSans-Bold-77" d="M 225 3500 
L 1313 3500 
L 1900 1088 
L 2491 3500 
L 3425 3500 
L 4013 1113 
L 4603 3500 
L 5691 3500 
L 4769 0 
L 3547 0 
L 2956 2406 
L 2369 0 
L 1147 0 
L 225 3500 
z
" transform="scale(0.015625)"/>
      <path id="DejaVuSans-Bold-64" d="M 2919 2988 
L 2919 4863 
L 4044 4863 
L 4044 0 
L 2919 0 
L 2919 506 
Q 2688 197 2409 53 
Q 2131 -91 1766 -91 
Q 1119 -91 703 423 
Q 288 938 288 1747 
Q 288 2556 703 3070 
Q 1119 3584 1766 3584 
Q 2128 3584 2408 3439 
Q 2688 3294 2919 2988 
z
M 2181 722 
Q 2541 722 2730 984 
Q 2919 1247 2919 1747 
Q 2919 2247 2730 2509 
Q 2541 2772 2181 2772 
Q 1825 2772 1636 2509 
Q 1447 2247 1447 1747 
Q 1447 1247 1636 984 
Q 1825 722 2181 722 
z
" transform="scale(0.015625)"/>
      <path id="DejaVuSans-Bold-43" d="M 4288 256 
Q 3956 84 3597 -3 
Q 3238 -91 2847 -91 
Q 1681 -91 1000 561 
Q 319 1213 319 2328 
Q 319 3447 1000 4098 
Q 1681 4750 2847 4750 
Q 3238 4750 3597 4662 
Q 3956 4575 4288 4403 
L 4288 3438 
Q 3953 3666 3628 3772 
Q 3303 3878 2944 3878 
Q 2300 3878 1931 3465 
Q 1563 3053 1563 2328 
Q 1563 1606 1931 1193 
Q 2300 781 2944 781 
Q 3303 781 3628 887 
Q 3953 994 4288 1222 
L 4288 256 
z
" transform="scale(0.015625)"/>
      <path id="DejaVuSans-Bold-75" d="M 500 1363 
L 500 3500 
L 1625 3500 
L 1625 3150 
Q 1625 2866 1622 2436 
Q 1619 2006 1619 1863 
Q 1619 1441 1641 1255 
Q 1663 1069 1716 984 
Q 1784 875 1895 815 
Q 2006 756 2150 756 
Q 2500 756 2700 1025 
Q 2900 1294 2900 1772 
L 2900 3500 
L 4019 3500 
L 4019 0 
L 2900 0 
L 2900 506 
Q 2647 200 2364 54 
Q 2081 -91 1741 -91 
Q 1134 -91 817 281 
Q 500 653 500 1363 
z
" transform="scale(0.015625)"/>
     </defs>
     <use xlink:href="#DejaVuSans-Bold-44"/>
     <use xlink:href="#DejaVuSans-Bold-51" x="83.007812"/>
     <use xlink:href="#DejaVuSans-Bold-4e" x="168.017578"/>
     <use xlink:href="#DejaVuSans-Bold-20" x="251.708984"/>
     <use xlink:href="#DejaVuSans-Bold-76" x="286.523438"/>
     <use xlink:href="#DejaVuSans-Bold-73" x="351.708984"/>
     <use xlink:href="#DejaVuSans-Bold-20" x="411.230469"/>
     <use xlink:href="#DejaVuSans-Bold-50" x="446.044922"/>
     <use xlink:href="#DejaVuSans-Bold-50" x="519.335938"/>
     <use xlink:href="#DejaVuSans-Bold-4f" x="592.626953"/>
     <use xlink:href="#DejaVuSans-Bold-20" x="677.636719"/>
     <use xlink:href="#DejaVuSans-Bold-54" x="712.451172"/>
     <use xlink:href="#DejaVuSans-Bold-72" x="769.664062"/>
     <use xlink:href="#DejaVuSans-Bold-61" x="818.980469"/>
     <use xlink:href="#DejaVuSans-Bold-69" x="886.460938"/>
     <use xlink:href="#DejaVuSans-Bold-6e" x="920.738281"/>
     <use xlink:href="#DejaVuSans-Bold-69" x="991.929688"/>
     <use xlink:href="#DejaVuSans-Bold-6e" x="1026.207031"/>
     <use xlink:href="#DejaVuSans-Bold-67" x="1097.398438"/>
     <use xlink:href="#DejaVuSans-Bold-20" x="1168.980469"/>
     <use xlink:href="#DejaVuSans-Bold-52" x="1203.794922"/>
     <use xlink:href="#DejaVuSans-Bold-65" x="1280.796875"/>
     <use xlink:href="#DejaVuSans-Bold-77" x="1348.619141"/>
     <use xlink:href="#DejaVuSans-Bold-61" x="1441.001953"/>
     <use xlink:href="#DejaVuSans-Bold-72" x="1508.482422"/>
     <use xlink:href="#DejaVuSans-Bold-64" x="1557.798828"/>
     <use xlink:href="#DejaVuSans-Bold-20" x="1629.380859"/>
     <use xlink:href="#DejaVuSans-Bold-43" x="1664.195312"/>
     <use xlink:href="#DejaVuSans-Bold-75" x="1737.583984"/>
     <use xlink:href="#DejaVuSans-Bold-72" x="1808.775391"/>
     <use xlink:href="#DejaVuSans-Bold-76" x="1858.091797"/>
     <use xlink:href="#DejaVuSans-Bold-65" x="1923.277344"/>
     <use xlink:href="#DejaVuSans-Bold-73" x="1991.099609"/>
    </g>
   </g>
   <g id="legend_1">
    <g id="patch_7">
     <path d="M 675.608125 68.665312 
L 815.33875 68.665312 
Q 817.73875 68.665312 817.73875 66.265312 
L 817.73875 32.237812 
Q 817.73875 29.837812 815.33875 29.837812 
L 675.608125 29.837812 
Q 673.208125 29.837812 673.208125 32.237812 
L 673.208125 66.265312 
Q 673.208125 68.665312 675.608125 68.665312 
z
" style="fill: #ffffff; opacity: 0.8; stroke: #cccccc; stroke-linejoin: miter"/>
    </g>
    <g id="line2d_33">
     <path d="M 678.008125 39.555937 
L 690.008125 39.555937 
L 702.008125 39.555937 
" style="fill: none; stroke: #2196f3; stroke-width: 2.5; stroke-linecap: square"/>
    </g>
    <g id="text_18">
     <!-- DQN (20-ep avg) -->
     <g transform="translate(711.608125 43.755937) scale(0.12 -0.12)">
      <defs>
       <path id="DejaVuSans-44" d="M 1259 4147 
L 1259 519 
L 2022 519 
Q 2988 519 3436 956 
Q 3884 1394 3884 2338 
Q 3884 3275 3436 3711 
Q 2988 4147 2022 4147 
L 1259 4147 
z
M 628 4666 
L 1925 4666 
Q 3281 4666 3915 4102 
Q 4550 3538 4550 2338 
Q 4550 1131 3912 565 
Q 3275 0 1925 0 
L 628 0 
L 628 4666 
z
" transform="scale(0.015625)"/>
       <path id="DejaVuSans-51" d="M 2522 4238 
Q 1834 4238 1429 3725 
Q 1025 3213 1025 2328 
Q 1025 1447 1429 934 
Q 1834 422 2522 422 
Q 3209 422 3611 934 
Q 4013 1447 4013 2328 
Q 4013 3213 3611 3725 
Q 3209 4238 2522 4238 
z
M 3406 84 
L 4238 -825 
L 3475 -825 
L 2784 -78 
Q 2681 -84 2626 -87 
Q 2572 -91 2522 -91 
Q 1538 -91 948 567 
Q 359 1225 359 2328 
Q 359 3434 948 4092 
Q 1538 4750 2522 4750 
Q 3503 4750 4090 4092 
Q 4678 3434 4678 2328 
Q 4678 1516 4351 937 
Q 4025 359 3406 84 
z
" transform="scale(0.015625)"/>
       <path id="DejaVuSans-4e" d="M 628 4666 
L 1478 4666 
L 3547 763 
L 3547 4666 
L 4159 4666 
L 4159 0 
L 3309 0 
L 1241 3903 
L 1241 0 
L 628 0 
L 628 4666 
z
" transform="scale(0.015625)"/>
       <path id="DejaVuSans-28" d="M 1984 4856 
Q 1566 4138 1362 3434 
Q 1159 2731 1159 2009 
Q 1159 1288 1364 580 
Q 1569 -128 1984 -844 
L 1484 -844 
Q 1016 -109 783 600 
Q 550 1309 550 2009 
Q 550 2706 781 3412 
Q 1013 4119 1484 4856 
L 1984 4856 
z
" transform="scale(0.015625)"/>
       <path id="DejaVuSans-2d" d="M 313 2009 
L 1997 2009 
L 1997 1497 
L 313 1497 
L 313 2009 
z
" transform="scale(0.015625)"/>
       <path id="DejaVuSans-76" d="M 191 3500 
L 800 3500 
L 1894 563 
L 2988 3500 
L 3597 3500 
L 2284 0 
L 1503 0 
L 191 3500 
z
" transform="scale(0.015625)"/>
       <path id="DejaVuSans-67" d="M 2906 1791 
Q 2906 2416 2648 2759 
Q 2391 3103 1925 3103 
Q 1463 3103 1205 2759 
Q 947 2416 947 1791 
Q 947 1169 1205 825 
Q 1463 481 1925 481 
Q 2391 481 2648 825 
Q 2906 1169 2906 1791 
z
M 3481 434 
Q 3481 -459 3084 -895 
Q 2688 -1331 1869 -1331 
Q 1566 -1331 1297 -1286 
Q 1028 -1241 775 -1147 
L 775 -588 
Q 1028 -725 1275 -790 
Q 1522 -856 1778 -856 
Q 2344 -856 2625 -561 
Q 2906 -266 2906 331 
L 2906 616 
Q 2728 306 2450 153 
Q 2172 0 1784 0 
Q 1141 0 747 490 
Q 353 981 353 1791 
Q 353 2603 747 3093 
Q 1141 3584 1784 3584 
Q 2172 3584 2450 3431 
Q 2728 3278 2906 2969 
L 2906 3500 
L 3481 3500 
L 3481 434 
z
" transform="scale(0.015625)"/>
       <path id="DejaVuSans-29" d="M 513 4856 
L 1013 4856 
Q 1481 4119 1714 3412 
Q 1947 2706 1947 2009 
Q 1947 1309 1714 600 
Q 1481 -109 1013 -844 
L 513 -844 
Q 928 -128 1133 580 
Q 1338 1288 1338 2009 
Q 1338 2731 1133 3434 
Q 928 4138 513 4856 
z
" transform="scale(0.015625)"/>
      </defs>
      <use xlink:href="#DejaVuSans-44"/>
      <use xlink:href="#DejaVuSans-51" x="77.001953"/>
      <use xlink:href="#DejaVuSans-4e" x="155.712891"/>
      <use xlink:href="#DejaVuSans-20" x="230.517578"/>
      <use xlink:href="#DejaVuSans-28" x="262.304688"/>
      <use xlink:href="#DejaVuSans-32" x="301.318359"/>
      <use xlink:href="#DejaVuSans-30" x="364.941406"/>
      <use xlink:href="#DejaVuSans-2d" x="428.564453"/>
      <use xlink:href="#DejaVuSans-65" x="464.648438"/>
      <use xlink:href="#DejaVuSans-70" x="526.171875"/>
      <use xlink:href="#DejaVuSans-20" x="589.648438"/>
      <use xlink:href="#DejaVuSans-61" x="621.435547"/>
      <use xlink:href="#DejaVuSans-76" x="682.714844"/>
      <use xlink:href="#DejaVuSans-67" x="741.894531"/>
      <use xlink:href="#DejaVuSans-29" x="805.371094"/>
     </g>
    </g>
    <g id="line2d_34">
     <path d="M 678.008125 57.169687 
L 690.008125 57.169687 
L 702.008125 57.169687 
" style="fill: none; stroke: #4caf50; stroke-width: 2.5; stroke-linecap: square"/>
    </g>
    <g id="text_19">
     <!-- PPO (20-ep avg) -->
     <g transform="translate(711.608125 61.369687) scale(0.12 -0.12)">
      <defs>
       <path id="DejaVuSans-50" d="M 1259 4147 
L 1259 2394 
L 2053 2394 
Q 2494 2394 2734 2622 
Q 2975 2850 2975 3272 
Q 2975 3691 2734 3919 
Q 2494 4147 2053 4147 
L 1259 4147 
z
M 628 4666 
L 2053 4666 
Q 2838 4666 3239 4311 
Q 3641 3956 3641 3272 
Q 3641 2581 3239 2228 
Q 2838 1875 2053 1875 
L 1259 1875 
L 1259 0 
L 628 0 
L 628 4666 
z
" transform="scale(0.015625)"/>
       <path id="DejaVuSans-4f" d="M 2522 4238 
Q 1834 4238 1429 3725 
Q 1025 3213 1025 2328 
Q 1025 1447 1429 934 
Q 1834 422 2522 422 
Q 3209 422 3611 934 
Q 4013 1447 4013 2328 
Q 4013 3213 3611 3725 
Q 3209 4238 2522 4238 
z
M 2522 4750 
Q 3503 4750 4090 4092 
Q 4678 3434 4678 2328 
Q 4678 1225 4090 567 
Q 3503 -91 2522 -91 
Q 1538 -91 948 565 
Q 359 1222 359 2328 
Q 359 3434 948 4092 
Q 1538 4750 2522 4750 
z
" transform="scale(0.015625)"/>
      </defs>
      <use xlink:href="#DejaVuSans-50"/>
      <use xlink:href="#DejaVuSans-50" x="60.302734"/>
      <use xlink:href="#DejaVuSans-4f" x="120.605469"/>
      <use xlink:href="#DejaVuSans-20" x="199.316406"/>
      <use xlink:href="#DejaVuSans-28" x="231.103516"/>
      <use xlink:href="#DejaVuSans-32" x="270.117188"/>
      <use xlink:href="#DejaVuSans-30" x="333.740234"/>
      <use xlink:href="#DejaVuSans-2d" x="397.363281"/>
      <use xlink:href="#DejaVuSans-65" x="433.447266"/>
      <use xlink:href="#DejaVuSans-70" x="494.970703"/>
      <use xlink:href="#DejaVuSans-20" x="558.447266"/>
      <use xlink:href="#DejaVuSans-61" x="590.234375"/>
      <use xlink:href="#DejaVuSans-76" x="651.513672"/>
      <use xlink:href="#DejaVuSans-67" x="710.693359"/>
      <use xlink:href="#DejaVuSans-29" x="774.169922"/>
     </g>
    </g>
   </g>
  </g>
 </g>
 <defs>
  <clipPath id="pd0fd0886d6">
   <rect x="42.53875" y="23.837812" width="781.2" height="388.08"/>
  </clipPath>
 </defs>
</svg>
